<?xml version="1.0" standalone="no"?>
<!DOCTYPE svg PUBLIC "-//W3C//DTD SVG 1.1//EN" "http://www.w3.org/Graphics/SVG/1.1/DTD/svg11.dtd" >
<svg>
<metadata>
Created by FontForge 20090914 at Thu Oct  3 22:32:01 2024
 By www-data
Copyright (c) 1991 Digital Typeface Corp.
</metadata>
<defs>
<font id="EurostileExtended-Black" horiz-adv-x="500" >
  <font-face 
    font-family="Eurostile Extended"
    font-weight="700"
    font-stretch="normal"
    units-per-em="1000"
    panose-1="0 0 0 0 0 0 0 0 0 0"
    ascent="800"
    descent="-200"
    x-height="467"
    cap-height="667"
    bbox="-215 -223.001 1540 904"
    underline-thickness="110"
    underline-position="-49"
    unicode-range="U+0020-U+2122"
  />
<missing-glyph horiz-adv-x="750" 
d="M46 0v750h658v-750h-658zM658 46v658h-566v-658h566z" />
    <glyph glyph-name=".notdef" horiz-adv-x="750" 
d="M46 0v750h658v-750h-658zM658 46v658h-566v-658h566z" />
    <glyph glyph-name="space" unicode=" " horiz-adv-x="250" 
 />
    <glyph glyph-name="exclam" unicode="!" horiz-adv-x="327" 
d="M65 0v186h199v-186h-199zM78 273l-9 394h197l-11 -394h-177z" />
    <glyph glyph-name="quotedbl" unicode="&#x22;" horiz-adv-x="483" 
d="M17 666h206l-36 -267h-134zM259 666h206l-37 -267h-134z" />
    <glyph glyph-name="numbersign" unicode="#" horiz-adv-x="661" 
d="M331 43l23 161h-92l-23 -161h-85l23 161h-99l12 83h98l13 87h-99l11 83h99l21 147h85l-21 -147h93l20 147h86l-21 -147h108l-12 -83h-108l-12 -87h108l-12 -83h-108l-22 -161h-86zM274 287h92l12 87h-92z" />
    <glyph glyph-name="dollar" unicode="$" horiz-adv-x="953" 
d="M555 410l132.999 -4.00098c84.667 0 144.5 -11.833 179.5 -35.5s52.5 -75.167 52.5 -154.5c0 -47.333 -7.16699 -86.833 -21.5 -118.5s-38.666 -54.167 -72.999 -67.5s-71.333 -21.666 -111 -24.999s-85.5 -5 -137.5 -5h-53v-80h-101v80l-28 1l-111 3
c-34 0 -62.167 1.33301 -84.5 4s-49.833 10 -82.5 22s-54.667 32.167 -66 60.5s-17 68.5 -17 120.5v20h168c0 -40 8.16699 -64.833 24.5 -74.5s45.5 -14.5 87.5 -14.5l109 -1v140l-19 1l-149 2c-75.333 0 -129.5 14 -162.5 42s-49.5 78.667 -49.5 152
c0 72.667 19.333 122.167 58 148.5s95.334 39.5 170.001 39.5h26l113 1h13v54h101v-54c38 0 75 -0.166992 111 -0.5s79.667 -2.83301 131 -7.5s86.666 -21.167 105.999 -49.5s29 -74.833 29 -139.5h-169c0 25.333 -6.66699 41.5 -20 48.5s-33 10.5 -59 10.5l-129 1v-120h31z
M218.999 479.999c0 -24 5 -40.333 15 -49s27.667 -13 53 -13l136 -3v117h-134c-28.667 0 -47.5 -3.83301 -56.5 -11.5s-13.5 -21.167 -13.5 -40.5zM748.999 209.999c0 28 -7.83301 46.334 -23.5 55.001s-39.5 13 -71.5 13l-130 3v-140h149c26 0 45.167 5.16699 57.5 15.5
s18.5 28.166 18.5 53.499z" />
    <glyph glyph-name="percent" unicode="%" horiz-adv-x="1086" 
d="M304 669c65.333 0 109.5 -9.66797 132.5 -29.001s34.5 -61.666 34.5 -126.999v-30c0 -59.333 -8.66699 -99.333 -26 -120s-63 -31 -137 -31l-113 -1c-58.667 0 -98.834 9.5 -120.501 28.5s-32.5 57.167 -32.5 114.5v27c0 66.667 8.83301 111 26.5 133
s58.834 33 123.501 33zM258 416.999c49.333 0 79.668 3.66699 91.001 11s17 31.333 17 72c0 34 -4.5 57 -13.5 69s-29.833 18 -62.5 18l-65 -1c-17.333 0 -29.833 -0.5 -37.5 -1.5s-14.834 -3.66699 -21.501 -8s-11.5 -11.333 -14.5 -21s-4.5 -24.167 -4.5 -43.5v-12
c0 -34.667 3.66699 -57.167 11 -67.5s27 -15.5 59 -15.5h41zM316.002 -0.000976562h-92l555 667h92zM886.002 335.999c66.667 0 111.165 -10.168 133.498 -30.501s33.5 -62.166 33.5 -125.499v-34c0 -31.333 -2.66699 -57.833 -8 -79.5s-15 -36.667 -29 -45
s-30.833 -14.333 -50.5 -18s-47.5 -5.5 -83.5 -5.5l-99 -1c-57.333 0 -98.166 8 -122.499 24s-36.5 56 -36.5 120v27c0 66.667 8.83301 111 26.5 133s58.834 33 123.501 33zM840 82.998l46 1.99902c28.667 0 46.167 5.33301 52.5 16s9.5 31 9.5 61v29
c0 12.667 -1.16699 23.334 -3.5 32.001s-7.16602 15.167 -14.499 19.5s-15.5 7.33301 -24.5 9s-20.167 2.5 -33.5 2.5l-65 -1c-17.333 0 -29.833 -0.5 -37.5 -1.5s-14.834 -3.66699 -21.501 -8s-11.5 -11.333 -14.5 -21s-4.5 -24.167 -4.5 -43.5v-12
c0 -35.333 3.5 -58 10.5 -68s27.167 -15 60.5 -15z" />
    <glyph glyph-name="ampersand" unicode="&#x26;" horiz-adv-x="1026" 
d="M861 191l149 -78.0029l-60 -120l-140 69c-28 -22 -56.167 -37.667 -84.5 -47s-61.166 -14 -98.499 -14l-140 -5l-172 3c-78.667 0 -140.667 12.5 -186 37.5s-68 73.833 -68 146.5c0 70.667 9 118.334 27 143.001s60 41 126 49c-32.667 18 -53.334 36.167 -62.001 54.5
s-13 47.833 -13 88.5c0 52.667 13.167 90.5 39.5 113.5s65.5 34.5 117.5 34.5l161 4l168 -4c77.333 0 127.5 -15 150.5 -45s34.5 -86 34.5 -168h-174l1 11c0 13.333 -1.66699 24.833 -5 34.5s-8.66602 16.5 -15.999 20.5s-14.5 6.66699 -21.5 8s-14.167 2 -21.5 2l-137 2
h-32c-10 0 -22.833 -1.16699 -38.5 -3.5s-26.834 -6.66602 -33.501 -12.999s-10 -14.5 -10 -24.5c0 -18 10.833 -32.667 32.5 -44l42.5 -22l303 -155c2.66699 12.667 4 26.334 4 41.001v28c-2 8.66699 -3.33301 14.667 -4 18h169c0 -44 -0.5 -74.5 -1.5 -91.5
s-3.16699 -41.5 -6.5 -73.5zM243 222.997c0 -32.667 8.16699 -54.833 24.5 -66.5s41.5 -17.5 75.5 -17.5l90 -3l228 1l-341 171c-7.33301 2 -14.333 3 -21 3c-20.667 0 -35.167 -8.83301 -43.5 -26.5s-12.5 -38.167 -12.5 -61.5z" />
    <glyph glyph-name="quotesingle" unicode="'" horiz-adv-x="247" 
d="M17 666h212l-36 -267h-140z" />
    <glyph glyph-name="parenleft" unicode="(" horiz-adv-x="424" 
d="M388 528c-54.667 0 -88.5 -6.16797 -101.5 -18.501s-19.5 -46.166 -19.5 -101.499l-1 -246l1 -63l-1 -88c0 -30 7.5 -50.667 22.5 -62s38.167 -17 69.5 -17l47 2v-154l-79 1c-82 0 -143 13.167 -183 39.5s-60 78.833 -60 157.5l-2 136v175l4 210
c0 63.333 20.667 108.333 62 135s96 40 164 40l94 -1v-145h-17z" />
    <glyph glyph-name="parenright" unicode=")" horiz-adv-x="424" 
d="M344 381l1 -74l-1 -102l-3 -227c0 -78 -19.5 -130.333 -58.5 -157s-100.167 -40 -183.5 -40l-79 -1v154l42 -1c34 0 58.667 5 74 15s23 31 23 63l-1 397c0 56 -6.33301 90 -19 102s-46.667 18 -102 18h-17v145l96 1c98 0 160.5 -22.5 187.5 -67.5
s40.5 -120.167 40.5 -225.5z" />
    <glyph glyph-name="asterisk" unicode="*" horiz-adv-x="953" 
d="M527 667v-158l151 48l31 -95l-151 -49l93 -128l-81 -59l-93 128l-93 -128l-82 59l94 128l-151 49l31 96l151 -49v158h100z" />
    <glyph glyph-name="plus" unicode="+" 
d="M205 614h90v-203h202v-87h-202v-203h-90v203h-201v87h201v203z" />
    <glyph glyph-name="comma" unicode="," horiz-adv-x="322" 
d="M93 -178h-14.999c-15.333 0 -30 1 -44 3v104l21 -2c23.333 0 39.666 6.16699 48.999 18.5s14 30.5 14 54.5h-56v186h201v-186c0 -64.667 -12.167 -110.5 -36.5 -137.5s-68.833 -40.5 -133.5 -40.5z" />
    <glyph glyph-name="hyphen" unicode="-" horiz-adv-x="346" 
d="M10 156v170h326v-170h-326z" />
    <glyph glyph-name="period" unicode="." horiz-adv-x="332" 
d="M66 0v186h199v-186h-199z" />
    <glyph glyph-name="slash" unicode="/" horiz-adv-x="780" 
d="M23 -213h-145l727 880h141z" />
    <glyph glyph-name="zero" unicode="0" horiz-adv-x="953" 
d="M479 670l77.999 1c37.333 0 64 -0.5 80 -1.5s42.333 -4 79 -9s69 -16.167 97 -33.5s46.667 -41 56 -71s15.833 -60.5 19.5 -91.5s5.5 -73.833 5.5 -128.5c0 -97.333 -5 -167.333 -15 -210s-35.667 -74.667 -77 -96s-109 -32 -203 -32l-210 -2
c-133.333 0 -221.166 18 -263.499 54s-63.5 119 -63.5 249v37c0 132.667 17.167 221.167 51.5 265.5s113.5 66.5 237.5 66.5zM480.999 160l54.999 -0.00195312c64.667 0 107.834 8.83301 129.501 26.5s32.5 62.167 32.5 133.5v15v14v12c0 28.667 -2 54.167 -6 76.5
s-13.167 38.833 -27.5 49.5s-29.833 17.334 -46.5 20.001s-35.167 4.33398 -55.5 5.00098s-31.833 1 -34.5 1h-94c-79.333 0 -128.5 -9.5 -147.5 -28.5s-28.5 -64.833 -28.5 -137.5v-13c0 -70 7.5 -116.167 22.5 -138.5s55.5 -33.5 121.5 -33.5z" />
    <glyph glyph-name="one" unicode="1" horiz-adv-x="953" 
d="M466 0v510l-242 -166l-90 136l285 187h246v-667h-199z" />
    <glyph glyph-name="two" unicode="2" horiz-adv-x="953" 
d="M87 0l0.00292969 170c0 60 11.167 104.167 33.5 132.5s62.833 46.5 121.5 54.5l350 28c31.333 3.33301 53.833 9.33301 67.5 18s20.5 25.334 20.5 50.001l-1 14c0 26 -6.16699 43.5 -18.5 52.5s-36.833 13.5 -73.5 13.5h-104l-118 -2
c-18.667 0 -34.834 -2.16699 -48.501 -6.5s-23.834 -11.166 -30.501 -20.499s-10.834 -18.333 -12.501 -27s-2.5 -18.667 -2.5 -30v-23h-184l-1 47c0 87.333 17.667 141.666 53 162.999s99.666 32 192.999 32l224 4l112 -2c74.667 0 126.834 -14.5 156.501 -43.5
s44.5 -80.833 44.5 -155.5c0 -84.667 -14.333 -143.167 -43 -175.5s-84.667 -48.5 -168 -48.5l-165 -11l-140 -10c-26.667 0 -47.167 -3.33301 -61.5 -10s-21.5 -23.334 -21.5 -50.001v-29h599v-135h-782z" />
    <glyph glyph-name="three" unicode="3" horiz-adv-x="953" 
d="M532 398l35 0.000976562c35.333 0 61.5 3 78.5 9s25.5 22.333 25.5 49c0 30.667 -6 50.834 -18 60.501s-38.333 14.5 -79 14.5h-9l-111 3l-96 -3c-29.333 0 -51.5 -5.16699 -66.5 -15.5s-22.5 -29.5 -22.5 -57.5l1 -18h-189c0 80 12.833 135.333 38.5 166
s66 48.5 121 53.5s95.333 8 121 9s58.834 1.5 99.501 1.5h27l155 -3c76 0 131.167 -12.833 165.5 -38.5s51.5 -75.167 51.5 -148.5c0 -21.333 -1.33301 -39.333 -4 -54s-8.5 -28.834 -17.5 -42.501s-25.833 -24.834 -50.5 -33.501l-62 -17
c58 -6.66699 97.667 -19.834 119 -39.501s32 -58.167 32 -115.5c0 -58.667 -16.5 -103.5 -49.5 -134.5s-103.5 -46.5 -211.5 -46.5h-158l-128 1c-88 0 -152.167 12.167 -192.5 36.5s-60.5 77.833 -60.5 160.5l2 36h183c0 -35.333 6 -60.166 18 -74.499
s35.333 -21.5 70 -21.5l116 -1h112l23 -1c26 0 46.833 4.33301 62.5 13s23.5 25.667 23.5 51c0 28 -6.33301 47.167 -19 57.5s-33.334 15.5 -62.001 15.5l-49 -1h-160v129h135z" />
    <glyph glyph-name="four" unicode="4" horiz-adv-x="953" 
d="M892 268v-135h-108v-133h-186v133h-531v233l482 301h235v-399h108zM206 268h392v249z" />
    <glyph glyph-name="five" unicode="5" horiz-adv-x="953" 
d="M278 532l-0.000976562 -136.002c16.667 20 35.667 33.833 57 41.5s46.333 11.5 75 11.5l62 1h62c28.667 0 56.834 -0.166992 84.501 -0.5s66.167 -3.16602 115.5 -8.49902s85.5 -23.333 108.5 -54s34.5 -79.667 34.5 -147c0 -84.667 -16 -146.167 -48 -184.5
s-90.333 -57.5 -175 -57.5l-75 -1h-76l-191 5c-83.333 0 -142.666 13.333 -177.999 40s-53 81.334 -53 164.001h186c0 -36.667 14.167 -57.5 42.5 -62.5s55.833 -7.5 82.5 -7.5l97 -2l85 1c42 0 71.5 5.5 88.5 16.5s25.5 35.5 25.5 73.5c0 34 -6.83301 57.833 -20.5 71.5
s-37.834 20.5 -72.501 20.5l-109 2h-110c-16 0 -29 -0.5 -39 -1.5s-21.667 -3.66699 -35 -8s-21.333 -15.5 -24 -33.5h-171l9 391h732v-135h-570z" />
    <glyph glyph-name="six" unicode="6" horiz-adv-x="953" 
d="M575 532l-59 0.99707l-116 -2c-29.333 0 -51.333 -1.16699 -66 -3.5s-26.5 -9.16602 -35.5 -20.499s-14.667 -23.166 -17 -35.499s-3.5 -26.5 -3.5 -42.5v-24v-59c15.333 32 38.5 52.167 69.5 60.5s71.833 12.5 122.5 12.5l139 1c41.333 0 77.666 -2 108.999 -6
s60.333 -12 87 -24s44.334 -32.833 53.001 -62.5s13 -63.5 13 -101.5c0 -93.333 -18.333 -154.5 -55 -183.5s-105 -43.5 -205 -43.5l-208 -3c-72.667 0 -127 4.33301 -163 13s-67 22.834 -93 42.501s-42.333 46.667 -49 81s-10 79.166 -10 134.499l-1 144v39
c0 12.667 2.33301 38 7 76s28 70.5 70 97.5s95.333 40.5 160 40.5c26.667 2.66699 52 4.33398 76 5.00098s52 1 84 1c58 0 103.5 -0.5 136.5 -1.5s72 -4.33301 117 -10s76.167 -23.167 93.5 -52.5s26 -71.333 26 -126h-184c-3.33301 21.333 -14 35.333 -32 42s-40 10 -66 10
zM574 134.997c36.667 0 63.667 4.83301 81 14.5s26 31.167 26 64.5c0 25.333 -7.5 43 -22.5 53s-35.167 15 -60.5 15h-97l-128 -2c-32 0 -56 -4.33301 -72 -13s-24 -27.667 -24 -57c0 -33.333 9 -54.5 27 -63.5s46.333 -13.5 85 -13.5z" />
    <glyph glyph-name="seven" unicode="7" horiz-adv-x="953" 
d="M433 0h-240l435 503h-549v164h795v-152z" />
    <glyph glyph-name="eight" unicode="8" horiz-adv-x="953" 
d="M815 32c-24.667 -16 -47.832 -25.334 -69.499 -28.001s-44.5 -4.33398 -68.5 -5.00098s-46.333 -1 -67 -1l-136 -1l-134 1c-85.333 0 -149.833 10.333 -193.5 31s-65.5 68.667 -65.5 144c0 53.333 9.5 90.333 28.5 111s54.833 39 107.5 55
c-50.667 14 -84.834 31.333 -102.501 52s-26.5 57.334 -26.5 110.001c0 61.333 16.667 104.5 50 129.5s81.666 37.5 144.999 37.5l122 4l154 -3h57c102.667 0 170.334 -14.667 203.001 -44s49 -73.333 49 -132c0 -48.667 -9.5 -83.5 -28.5 -104.5
s-52.5 -38.167 -100.5 -51.5c48 -13.333 82 -29.666 102 -48.999s30 -51 30 -95c0 -40.667 -3.16699 -73.667 -9.5 -99s-21.833 -46 -46.5 -62zM589.002 404.999c26 0 47.498 5.00098 64.498 15.001s25.5 27 25.5 51c0 27.333 -9.16699 45.166 -27.5 53.499
s-43.166 12.5 -74.499 12.5l-194 1c-31.333 0 -56.666 -4 -75.999 -12s-29 -24.333 -29 -49c0 -26.667 9 -45.167 27 -55.5s41.667 -15.5 71 -15.5zM420 133l147.001 1c34 0 61.667 4.33301 83 13s32 27 32 55c0 30 -9.16699 50.167 -27.5 60.5s-44.5 15.5 -78.5 15.5h-204
c-32 0 -57 -4.5 -75 -13.5s-27 -28.167 -27 -57.5c0 -17.333 2.66699 -30.5 8 -39.5s14.833 -16 28.5 -21s31.167 -8.5 52.5 -10.5s41.666 -3 60.999 -3z" />
    <glyph glyph-name="nine" unicode="9" horiz-adv-x="953" 
d="M361 135l102 -1.99902l114 1c37.333 0 63.5 6.5 78.5 19.5s22.5 36.167 22.5 69.5v86c-15.333 -23.333 -35.5 -38.666 -60.5 -45.999s-55.5 -11 -91.5 -11l-160 -2c-97.333 0 -167.333 13.167 -210 39.5s-64 85.166 -64 176.499c0 79.333 19.5 132.666 58.5 159.999
s100.167 41 183.5 41l224 3c36.667 0 64 -0.5 82 -1.5s44.333 -4.5 79 -10.5s64.5 -18.167 89.5 -36.5s41.167 -43.5 48.5 -75.5s11.833 -60.833 13.5 -86.5s2.5 -56.5 2.5 -92.5v-51c0 -124 -15.667 -207.833 -47 -251.5s-107 -65.5 -227 -65.5l-136 -3l-201 7
c-62 5.33301 -107.833 18.833 -137.5 40.5s-44.5 61.167 -44.5 118.5l1 26h188c0 -22 8.66699 -36.333 26 -43s39.333 -10 66 -10zM486 387.001l91 0.999023c32.667 0 58.667 4 78 12s29 26 29 54c0 26.667 -5.83301 45.834 -17.5 57.501s-31.167 17.5 -58.5 17.5l-45 2
l-103 2l-78 -1c-40 0 -66.833 -5.83301 -80.5 -17.5s-20.5 -28.5 -20.5 -50.5c0 -35.333 9.16699 -56.833 27.5 -64.5s48.5 -11.5 90.5 -11.5z" />
    <glyph glyph-name="colon" unicode=":" horiz-adv-x="332" 
d="M66 281v186h199v-186h-199zM66 0v186h199v-186h-199z" />
    <glyph glyph-name="semicolon" unicode=";" horiz-adv-x="322" 
d="M64 281v186h199v-186h-199zM93 -178h-14.999c-15.333 0 -30 1 -44 3v104l21 -2c23.333 0 39.666 6.16699 48.999 18.5s14 30.5 14 54.5h-56v186h201v-186c0 -64.667 -12.167 -110.5 -36.5 -137.5s-68.833 -40.5 -133.5 -40.5z" />
    <glyph glyph-name="less" unicode="&#x3c;" 
d="M233 338l232 -132l1 -187l-433 240v158l433 240v-188z" />
    <glyph glyph-name="equal" unicode="=" 
d="M497 403h-494v84h494v-84zM497 248h-494v84h494v-84z" />
    <glyph glyph-name="greater" unicode="&#x3e;" 
d="M267 338l-232 132l-1 187l433 -240v-158l-433 -240v188z" />
    <glyph glyph-name="question" unicode="?" horiz-adv-x="796" 
d="M239 0v186h199v-186h-199zM467 418c23.333 3.33301 42.335 9.49902 57.002 18.499s22 24.167 22 45.5c0 22 -9 37.833 -27 47.5s-39 14.5 -63 14.5l-83 2l-71 -2c-30.667 0 -53.334 -5.66699 -68.001 -17s-22 -31 -22 -59c0 -13.333 0.666992 -23.333 2 -30h-175
c0 86 13 145.833 39 179.5s79 50.5 159 50.5l137 5c50 0 87.167 -0.5 111.5 -1.5s58 -4.5 101 -10.5s75.167 -23.667 96.5 -53s32 -70.333 32 -123v-15c0 -31.333 -1.83301 -56.666 -5.5 -75.999s-13.834 -38 -30.501 -56s-63 -34 -139 -48s-114.667 -28.667 -116 -44l1 -11
h-172c0 78 12.833 124.5 38.5 139.5s84.167 29.5 175.5 43.5z" />
    <glyph glyph-name="at" unicode="@" horiz-adv-x="1105" 
d="M927 -15c-5.33301 -0.666992 -15 -1.33301 -29 -2s-31 -1 -51 -1l-468 -2l-160 4c-68 0 -111.167 16.333 -129.5 49s-27.5 86.334 -27.5 161.001l-1 135l1 129c0 74 6.66699 129 20 165s49.666 54 108.999 54l129 5l223 1h100l251 -8c68 0 110.333 -19.333 127 -58
s25 -99.334 25 -182.001v-110c0 -17.333 -0.333008 -32.666 -1 -45.999s-2.66699 -29.5 -6 -48.5s-10.5 -35.5 -21.5 -49.5s-25.5 -22.667 -43.5 -26s-39 -5.66602 -63 -6.99902s-44.667 -2 -62 -2c-36.667 0 -67.5 2.66699 -92.5 8s-40.833 15.666 -47.5 30.999
s-10 33.333 -10 54c-11.333 -37.333 -33.5 -61.5 -66.5 -72.5s-74.833 -16.5 -125.5 -16.5c-38.667 0 -71 2.16699 -97 6.5s-49 13.5 -69 27.5s-32.5 31.5 -37.5 52.5s-7.5 46.5 -7.5 76.5v18c0 38 1 64.5 3 79.5s8.16699 32.5 18.5 52.5s32.333 33.667 66 41
s74.167 11 121.5 11h32c40.667 0 74.5 -3.83301 101.5 -11.5s47.167 -25.167 60.5 -52.5v61h110v-211c0 -20.667 3.5 -36.5 10.5 -47.5s20.167 -16.5 39.5 -16.5h9c24 0 39.5 6.83301 46.5 20.5s10.5 33.5 10.5 59.5l2 127v12c0 32 -1.83301 57 -5.5 75
s-10.5 30.167 -20.5 36.5s-21.667 10.666 -35 12.999s-29.833 3.83301 -49.5 4.5s-30.5 1 -32.5 1l-100 2l-126 1l-169 -1l-109 -1c-41.333 0 -67.5 -9.16699 -78.5 -27.5s-16.5 -48.166 -16.5 -89.499v-35l-4 -104l5 -159c2.66699 -32 8 -54.167 16 -66.5
s23.833 -20.333 47.5 -24s43.667 -5.83398 60 -6.50098s35.5 -1 57.5 -1l199 -1l285 1c20.667 0 38.167 2.5 52.5 7.5s23.5 15.167 27.5 30.5l113 -21c-8 -32 -21.167 -56.5 -39.5 -73.5s-44.166 -27.833 -77.499 -32.5zM566 232.001
c49.333 0 83.502 6.50195 102.502 19.502s28.5 41.833 28.5 86.5c0 43.333 -8.33301 71.166 -25 83.499s-49.334 18.5 -98.001 18.5h-37c-21.333 0 -40.833 -1.33301 -58.5 -4s-30.667 -7.83398 -39 -15.501s-14.333 -17 -18 -28s-5.5 -27.833 -5.5 -50.5v-7
c0 -38 6.66699 -64.5 20 -79.5s38.666 -22.5 75.999 -22.5z" />
    <glyph glyph-name="A" unicode="A" horiz-adv-x="1077" 
d="M260 0h-226l372 667h274l364 -667h-224l-63 121h-431zM397 259h286l-143 264z" />
    <glyph glyph-name="B" unicode="B" horiz-adv-x="1025" 
d="M720 667c66.667 0 117.668 -12.665 153.001 -37.998s53 -70 53 -134c0 -28 -2.5 -51.833 -7.5 -71.5s-14 -35.167 -27 -46.5s-25 -19 -36 -23s-26.5 -8.66699 -46.5 -14c54 -8.66699 91.333 -22.334 112 -41.001s31 -54.334 31 -107.001
c0 -74 -17.833 -124.5 -53.5 -151.5s-91.834 -40.5 -168.501 -40.5h-643v667h633zM721.001 465.002c0 22.667 -6.50098 37.668 -19.501 45.001s-32.167 11 -57.5 11h-354v-116h350c26.667 0 46.834 3.66699 60.501 11s20.5 23.666 20.5 48.999zM748 216.003
c0 18 -5.83301 32 -17.5 42s-34.5 15 -68.5 15h-372v-122h369c23.333 0 44 2.5 62 7.5s27 24.167 27 57.5z" />
    <glyph glyph-name="C" unicode="C" horiz-adv-x="999" 
d="M928 225c0 -92 -16.833 -153.166 -50.5 -183.499s-100.167 -45.5 -199.5 -45.5l-155 -3l-126 2c-134 0 -220.167 17.5 -258.5 52.5s-57.5 89.5 -57.5 163.5l-6 140c0 109.333 16 189.5 48 240.5s97.333 76.5 196 76.5l190 5c55.333 0 101 -0.5 137 -1.5
s79.667 -4.16699 131 -9.5s88 -27.833 110 -67.5s33 -93.834 33 -162.501h-197c0 30.667 -7.5 51.167 -22.5 61.5s-38.833 15.5 -71.5 15.5l-57 1h-56l-103 -1c-61.333 0 -98.833 -11.333 -112.5 -34s-20.5 -69.667 -20.5 -141c0 -73.333 8 -121 24 -143s58.667 -33 128 -33
l79 -2l104 1c40.667 0 69.667 5.66699 87 17s26 38 26 80h199z" />
    <glyph glyph-name="D" unicode="D" horiz-adv-x="1053" 
d="M675 667c120.667 0 201.666 -20 242.999 -60s62 -120 62 -240v-38v-21v-18c0 -31.333 -0.5 -53.333 -1.5 -66s-4.83301 -38.5 -11.5 -77.5s-29.667 -73.167 -69 -102.5s-88.666 -44 -147.999 -44h-663v667h588zM774.999 331v6.00098c0 65.333 -7.33301 109.333 -22 132
s-54 34 -118 34h-345v-340h342c62.667 0 102.167 11.667 118.5 35s24.5 67.666 24.5 132.999z" />
    <glyph glyph-name="E" unicode="E" horiz-adv-x="894" 
d="M831 667v-152h-541v-114h505v-132h-505v-118h541v-151h-744v667h744z" />
    <glyph glyph-name="F" unicode="F" horiz-adv-x="831" 
d="M795 667v-152h-505v-114h505v-132h-505v-269h-203v667h708z" />
    <glyph glyph-name="G" unicode="G" horiz-adv-x="1017" 
d="M944 376l1.00195 -139.999c0 -82 -14.167 -142.833 -42.5 -182.5s-83.5 -59.5 -165.5 -59.5l-106 -1l-121 1l-105 1c-76.667 0 -137.5 5.16699 -182.5 15.5s-80.667 33.166 -107 68.499s-39.5 89.333 -39.5 162l-2 84c0 130 16 220 48 270s107.333 75 226 75l152 3l56 1
l136 -3c88 0 151.833 -15.167 191.5 -45.5s59.5 -88.833 59.5 -175.5v-12h-199c0 16 -2.33301 29.667 -7 41s-13.334 19.333 -26.001 24s-24.834 7.5 -36.501 8.5s-28.5 1.5 -50.5 1.5l-235 1c-48 0 -78.333 -11.667 -91 -35s-19 -62.666 -19 -117.999v-62
c0 -46 6.33301 -80.167 19 -102.5s30.667 -35 54 -38s41.333 -4.83301 54 -5.5s28.667 -1 48 -1l181 -1c34 0 60.833 5.66699 80.5 17s29.5 32.666 29.5 63.999l-1 19h-257v125h457z" />
    <glyph glyph-name="H" unicode="H" horiz-adv-x="1040" 
d="M953 667v-667h-204v257h-460v-257h-203v667h203v-244h460v244h204z" />
    <glyph glyph-name="I" unicode="I" horiz-adv-x="377" 
d="M87 0v667h203v-667h-203z" />
    <glyph glyph-name="J" unicode="J" horiz-adv-x="807" 
d="M720 272c0 -81.333 -9.83594 -142.833 -29.5029 -184.5s-53.667 -67 -102 -76s-90.166 -14.167 -125.499 -15.5s-69 -2 -101 -2c-88 0 -153.167 4.16699 -195.5 12.5s-75.166 30.666 -98.499 66.999s-35 95.833 -35 178.5l1 33h195l-1 -44
c0 -35.333 10.5 -58.166 31.5 -68.499s51.5 -15.5 91.5 -15.5h54c32.667 0 59.334 4.16699 80.001 12.5s31 25.5 31 51.5l1 51v395h203v-395z" />
    <glyph glyph-name="K" unicode="K" horiz-adv-x="1017" 
d="M394 416l275 251h280l-382 -330l424 -337h-298l-299 254h-104v-254h-203v667h203v-251h104z" />
    <glyph glyph-name="L" unicode="L" horiz-adv-x="777" 
d="M751 167v-167h-664v667h203v-500h461z" />
    <glyph glyph-name="M" unicode="M" horiz-adv-x="1304" 
d="M1025 0v508l-294 -508h-163l-291 508v-508h-191v667h323l245 -442l242 442h321v-667h-192z" />
    <glyph glyph-name="N" unicode="N" horiz-adv-x="1089" 
d="M679 0l-402 501v-501h-191v667h323l402 -500v500h191v-667h-323z" />
    <glyph glyph-name="O" unicode="O" horiz-adv-x="1061" 
d="M517 674l162 -1c118.667 0 199.834 -19.667 243.501 -59s65.5 -118 65.5 -236v-32c0 -138.667 -17.333 -231.5 -52 -278.5s-122.334 -70.5 -263.001 -70.5l-153 -3l-64 -1l-138 5c-77.333 0 -137 17.5 -179 52.5s-63 91.5 -63 169.5l-2 123
c0 135.333 17.333 223.833 52 265.5s117 62.5 247 62.5zM407 159l108.998 -2.00195l104 1c57.333 0 98.5 6.16699 123.5 18.5s37.5 42.833 37.5 91.5l2 90c0 30.667 -1.83301 56.834 -5.5 78.501s-11.167 37.667 -22.5 48s-28.166 17.166 -50.499 20.499
s-46.166 5 -71.499 5l-202 -1c-46 0 -81 -4.66699 -105 -14s-37.833 -29.166 -41.5 -59.499s-5.5 -55.5 -5.5 -75.5v-18v-27c0 -61.333 7.16699 -102.666 21.5 -123.999s49.833 -32 106.5 -32z" />
    <glyph glyph-name="P" unicode="P" horiz-adv-x="951" 
d="M627 667c100.667 0 170.5 -16.333 209.5 -49s58.5 -98.334 58.5 -197.001c0 -93.333 -15.167 -159.166 -45.5 -197.499s-93.833 -57.5 -190.5 -57.5h-52h-317v-166h-203v667h540zM690 414c0 37.333 -8.00098 61.833 -24.001 73.5s-44 17.5 -84 17.5h-292v-177h295
c38.667 0 65.834 5.5 81.501 16.5s23.5 34.167 23.5 69.5z" />
    <glyph glyph-name="Q" unicode="Q" horiz-adv-x="1064" 
d="M914 52c-31.333 -21.333 -65.3311 -36.001 -101.998 -44.001s-77.334 -12 -122.001 -12l-151 -3h-159c-61.333 0 -112.333 3.83301 -153 11.5s-72.834 24.834 -96.501 51.501s-38.667 57.167 -45 91.5s-9.5 72.833 -9.5 115.5l-2 83c0 29.333 0.666992 57.166 2 83.499
s5 58.5 11 96.5s31.333 71.667 76 101s119 44 223 44l153 2c54 0 99.167 -0.5 135.5 -1.5s80 -4 131 -9s93.167 -23.833 126.5 -56.5s50 -81.667 50 -147c2 -17.333 3.33301 -39.5 4 -66.5s1 -42.167 1 -45.5c0 -40 -0.5 -70.667 -1.5 -92s-3.5 -46.666 -7.5 -75.999l86 -47
l-71 -134zM782.002 358.999c0 17.333 -0.332031 32.3311 -0.999023 44.998s-3.16699 28.834 -7.5 48.501s-16.833 33.834 -37.5 42.501s-46 13 -76 13l-120 2c-38 0 -69 -0.333008 -93 -1s-52.667 -2.83398 -86 -6.50098s-55.333 -16.167 -66 -37.5s-16 -52.666 -16 -93.999
v-54c0 -66 8.16699 -109.333 24.5 -130s59.5 -31 129.5 -31l224 4c19.333 0 39.666 2.66699 60.999 8l-216 119l84 133l196 -126v65z" />
    <glyph glyph-name="R" unicode="R" horiz-adv-x="1011" 
d="M708 667c80 0 137.167 -15.499 171.5 -46.499s51.5 -85.833 51.5 -164.5c0 -30 -1.66699 -55.667 -5 -77s-10 -39.833 -20 -55.5s-21.667 -27.334 -35 -35.001s-41.333 -18.5 -84 -32.5c46.667 -6 81 -17.833 103 -35.5s33 -48.5 33 -92.5v-128h-206v64
c0 32.667 -2.83301 58.667 -8.5 78s-32.167 29 -79.5 29h-339v-171h-203v667h621zM623 333.001c46 0 74.668 5.66797 86.001 17.001s17 36.666 17 75.999c0 22 -2.16699 38.333 -6.5 49s-13.333 18 -27 22s-24.834 6.33301 -33.501 7s-19 1 -31 1h-16h-322v-172h307h26z" />
    <glyph glyph-name="S" unicode="S" horiz-adv-x="983" 
d="M279 202c0 -27.333 9.16895 -44.498 27.502 -51.498s43.833 -10.5 76.5 -10.5l96 -1l136 4c37.333 0 61.666 4.66699 72.999 14s17 24 17 44c0 18 -6.5 32.333 -19.5 43s-37.833 16 -74.5 16h-33l-334 7c-62.667 0 -106.834 15.833 -132.501 47.5
s-38.5 80.167 -38.5 145.5c0 55.333 8.16699 98.333 24.5 129s46 51.5 89 62.5s99.333 17.5 169 19.5s116.5 3 140.5 3l142 -2c56.667 0 102.334 -4.5 137.001 -13.5s59.167 -25.5 73.5 -49.5s23.5 -45.667 27.5 -65s6 -46 6 -80h-199
c0 23.333 -6.83301 39.666 -20.5 48.999s-32.834 14 -57.501 14l-98 1l-155 -5c-20.667 0 -38.167 -3.83301 -52.5 -11.5s-21.5 -20.5 -21.5 -38.5c0 -24.667 8.5 -40.834 25.5 -48.501s40.167 -11.5 69.5 -11.5h21l136 -2l134 -1c86 0 148.5 -13.5 187.5 -40.5
s58.5 -81.167 58.5 -162.5c0 -78.667 -17.5 -132.667 -52.5 -162s-92.833 -44 -173.5 -44l-260 -7l-136 3c-72 0 -125 11.667 -159 35s-51 70.333 -51 141v40h200z" />
    <glyph glyph-name="T" unicode="T" horiz-adv-x="851" 
d="M324 0v500h-298v167h798v-167h-297v-500h-203z" />
    <glyph glyph-name="U" unicode="U" horiz-adv-x="1030" 
d="M943 286v-39c0 -104 -27.167 -172.5 -81.5 -205.5s-138.166 -49.5 -251.499 -49.5l-166 1c-88 0 -155.333 4.66699 -202 14s-84.334 33 -113.001 71s-43 97.667 -43 179v409h203v-349c0 -66.667 8 -110 24 -130s56.333 -30 121 -30l91 -1l84 1
c55.333 0 90.833 8.66699 106.5 26s23.5 52.333 23.5 105v25v353h204v-380z" />
    <glyph glyph-name="V" unicode="V" horiz-adv-x="1036" 
d="M378 0l-352 667h222l262 -503l273 503h226l-372 -667h-259z" />
    <glyph glyph-name="W" unicode="W" horiz-adv-x="1451" 
d="M873 0l-148 473l-154 -473h-273l-271 667h208l195 -506l175 506h245l166 -506l201 506h207l-275 -667h-276z" />
    <glyph glyph-name="X" unicode="X" horiz-adv-x="1056" 
d="M1029 0h-278l-224 239l-225 -239h-276l333 333l-314 334h271l213 -239l214 239h262l-312 -334z" />
    <glyph glyph-name="Y" unicode="Y" horiz-adv-x="1000" 
d="M980 667l-375 -435v-232h-204v232l-381 435h256l226 -275l224 275h254z" />
    <glyph glyph-name="Z" unicode="Z" horiz-adv-x="925" 
d="M868 151v-151h-811v151l503 364h-490v152h788v-152l-507 -364h517z" />
    <glyph glyph-name="bracketleft" unicode="[" horiz-adv-x="424" 
d="M258 534v-614h153v-133h-324v880h324v-133h-153z" />
    <glyph glyph-name="backslash" unicode="\" horiz-adv-x="780" 
d="M757 -213l-723 880h141l727 -880h-145z" />
    <glyph glyph-name="bracketright" unicode="]" horiz-adv-x="424" 
d="M337 -213h-324v133h153v614h-153v133h324v-880z" />
    <glyph glyph-name="asciicircum" unicode="^" 
d="M145 671h209l140 -334h-165l-79 207l-79 -207h-165z" />
    <glyph glyph-name="underscore" unicode="_" 
d="M500 -159h-500v110h500v-110z" />
    <glyph glyph-name="grave" unicode="`" 
d="M357 521l-238 67l39 110l224 -110z" />
    <glyph glyph-name="a" unicode="a" horiz-adv-x="764" 
d="M285 473l181 4c72 0 127.5 -10.667 166.5 -32s58.5 -64.666 58.5 -129.999v-315h-174v76c-13.333 -37.333 -37.5 -61 -72.5 -71s-80.167 -15 -135.5 -15h-32c-74.667 0 -129.5 9.33301 -164.5 28s-52.5 62 -52.5 130c0 49.333 13.5 86.5 40.5 111.5
s65.167 37.5 114.5 37.5c26 2 52.333 3 79 3h27h51c35.333 0 64.5 -3 87.5 -9s42.167 -19.667 57.5 -41v51c0 28 -6 46.833 -18 56.5s-32.333 14.5 -61 14.5l-80 2l-57 -2c-16.667 0 -29 -2.33301 -37 -7s-12 -14.667 -12 -30h-172c0 53.333 19.167 89.666 57.5 108.999
s87.5 29 147.5 29zM350 100l15 0.00195312c38 0 69.167 1.83301 93.5 5.5s40.166 9.16699 47.499 16.5s11 18.666 11 33.999c0 18.667 -7.5 31.167 -22.5 37.5s-33.167 9.5 -54.5 9.5l-99 2c-30.667 0 -56.667 -2.83301 -78 -8.5s-32 -19.834 -32 -42.501
c0 -22 8.33301 -36.5 25 -43.5s38.334 -10.5 65.001 -10.5h29z" />
    <glyph glyph-name="b" unicode="b" horiz-adv-x="803" 
d="M246 390c20.667 38 47.998 61.833 81.998 71.5s79.333 14.5 136 14.5c106.667 0 179.834 -14.167 219.501 -42.5s59.5 -93.833 59.5 -196.5c0 -102 -18.167 -168.667 -54.5 -200s-109.166 -47 -218.499 -47h-26c-54 0 -96 5.83301 -126 17.5s-54 38.5 -72 80.5v-88h-173
v666h173v-276zM412.998 118c30 0 56.333 1.5 79 4.5s39.5 9.16699 50.5 18.5s18 21 21 35s4.5 29.333 4.5 46c0 55.333 -7.83301 90.166 -23.5 104.499s-54.167 21.5 -115.5 21.5h-20c-16.667 0 -32.667 -0.166992 -48 -0.5s-34.333 -2.83301 -57 -7.5
s-38.167 -15 -46.5 -31s-12.5 -39.667 -12.5 -71c0 -49.333 10.333 -81.666 31 -96.999s56.667 -23 108 -23h29z" />
    <glyph glyph-name="c" unicode="c" horiz-adv-x="770" 
d="M656 40c-26 -21.333 -62.835 -35 -110.502 -41s-99.5 -9 -155.5 -9c-80 0 -142 4.66699 -186 14s-79 31.833 -105 67.5s-39 91.5 -39 167.5c0 76.667 14.5 132.667 43.5 168s80.5 56.333 154.5 63l164 7c98.667 0 170.667 -10.667 216 -32s68 -75 68 -161h-174
c-2 12 -4.33301 21.5 -7 28.5s-8 13.5 -16 19.5s-21.167 10.167 -39.5 12.5s-37.833 3.5 -58.5 3.5h-28c-28 0 -51.833 -1.33301 -71.5 -4s-35.167 -8.33398 -46.5 -17.001s-19.166 -19.667 -23.499 -33s-6.5 -33 -6.5 -59c0 -52 11.667 -84.333 35 -97s64.333 -19 123 -19
c38 0 66.833 2 86.5 6s32.834 9.83301 39.501 17.5s10.834 14.834 12.501 21.501s2.5 15.667 2.5 27h176c0 -36 -3.33301 -65.5 -10 -88.5s-21.334 -43.833 -44.001 -62.5z" />
    <glyph glyph-name="d" unicode="d" horiz-adv-x="804" 
d="M567 0l0.00195312 101.002c-11.333 -44 -35.5 -73.5 -72.5 -88.5s-82.5 -22.5 -136.5 -22.5c-56 0 -105 3.16699 -147 9.5s-74 19.833 -96 40.5s-35.833 45 -41.5 73s-8.5 60.667 -8.5 98v34c0 44.667 3.16699 82.167 9.5 112.5s22.166 54.666 47.499 72.999
s57.833 30.666 97.5 36.999s81.5 9.5 125.5 9.5c69.333 0 118.666 -6.83301 147.999 -20.5s54 -35.167 74 -64.5v275h169v-667h-169zM423.002 119.002c54.667 0 92.166 6 112.499 18s30.5 42.333 30.5 91c0 52.667 -8.66699 85.834 -26 99.501s-55 20.5 -113 20.5h-38
c-25.333 0 -48.166 -1.33301 -68.499 -4s-36.5 -8.33398 -48.5 -17.001s-19.667 -20 -23 -34s-5 -31.667 -5 -53c0 -50.667 7.66699 -83.667 23 -99s48.333 -23 99 -23z" />
    <glyph glyph-name="e" unicode="e" horiz-adv-x="753" 
d="M434 -10l-167 5.99902c-80 0 -134.5 20.333 -163.5 61s-43.5 104 -43.5 190c0 78.667 15.333 136.167 46 172.5s84 54.5 160 54.5l164 3c49.333 0 90.333 -2.66699 123 -8s60.667 -17.666 84 -36.999s38.833 -43.333 46.5 -72s11.5 -61.334 11.5 -98.001
c0 -8 -0.166992 -17 -0.5 -27s-0.5 -21.333 -0.5 -34h-458c0 -36.667 6.66699 -62.5 20 -77.5s38 -22.5 74 -22.5l98 -2c22 0 40.333 1.33301 55 4s24.5 7.33398 29.5 14.001s8.16699 18.667 9.5 36h172c0 -70 -22.5 -114.667 -67.5 -134s-109.167 -29 -192.5 -29z
M352 372.999c-36.667 0 -65.333 -3.83203 -86 -11.499s-31 -26.834 -31 -57.501l1 -13h287c0 34 -8.33301 56.167 -25 66.5s-43.667 15.5 -81 15.5h-65z" />
    <glyph glyph-name="f" unicode="f" horiz-adv-x="517" 
d="M312 352v-352.003h-174v352h-91v115h91c0 84.667 16.5 141.834 49.5 171.501s92.167 44.5 177.5 44.5c15.333 0 36.333 -0.833008 63 -2.5s42.667 -2.5 48 -2.5v-113l-68 2c-22 0 -38.5 -1.66699 -49.5 -5s-20.167 -8.16602 -27.5 -14.499s-12.5 -14.166 -15.5 -23.499
s-4.5 -24.333 -4.5 -45l1 -12h175v-115h-175z" />
    <glyph glyph-name="g" unicode="g" horiz-adv-x="807" 
d="M735 -20c0 -59.333 -18.668 -106.169 -56.001 -140.502s-85.333 -51.5 -144 -51.5c-21.333 -2.66699 -46.5 -4.66699 -75.5 -6s-57.167 -2 -84.5 -2c-91.333 0 -163.166 10 -215.499 30s-78.5 67 -78.5 141h176c0 -14 6.16699 -25 18.5 -33s31.5 -12.833 57.5 -14.5
s42 -2.5 48 -2.5h21c33.333 0 63 2.33301 89 7s43.333 13.334 52 26.001s13.834 24.667 15.501 36s2.5 24.333 2.5 39v90c-14.667 -31.333 -35.667 -55 -63 -71s-75 -24 -143 -24c-112.667 0 -189.834 13.833 -231.501 41.5s-62.5 95.167 -62.5 202.5
c0 64 9.66699 114.5 29 151.5s50.833 58.833 94.5 65.5s84.167 10.334 121.5 11.001s63.666 1 78.999 1c51.333 0 89.333 -5.5 114 -16.5s45.334 -37.5 62.001 -79.5v86h174v-458v-29zM396.999 131.997h14.999c34 0 59 1.5 75 4.5s30 8.33301 42 16s19.833 18.167 23.5 31.5
s5.5 28.333 5.5 45v23c0 34 -5.16699 58.167 -15.5 72.5s-32.833 21.5 -67.5 21.5l-92 2h-30c-22.667 0 -41.667 -1.33301 -57 -4s-27.666 -8 -36.999 -16s-15.5 -18.167 -18.5 -30.5s-4.5 -24.833 -4.5 -37.5v-17c0 -35.333 4.66699 -61 14 -77s29.166 -25.5 59.499 -28.5
s49.833 -4.66699 58.5 -5s18.334 -0.5 29.001 -0.5z" />
    <glyph glyph-name="h" unicode="h" horiz-adv-x="783" 
d="M444 477c89.333 0 156 -14.668 200 -44.001s66 -86.666 66 -171.999v-261h-173v233c0 46.667 -6.16699 77.5 -18.5 92.5s-48.833 22.5 -109.5 22.5h-11c-54.667 0 -93.5 -7.33301 -116.5 -22s-34.5 -46.334 -34.5 -95.001v-37v-194h-173v667h173v-280
c17.333 38.667 41.5 63.334 72.5 74.001s72.5 16 124.5 16z" />
    <glyph glyph-name="i" unicode="i" horiz-adv-x="320" 
d="M73 541v126h173v-126h-173zM73 0v467h173v-467h-173z" />
    <glyph glyph-name="j" unicode="j" horiz-adv-x="361" 
d="M115 541v126h173v-126h-173zM287 -31c0 -55.333 -15.5 -93.833 -46.5 -115.5s-75.833 -32.5 -134.5 -32.5c-22 0 -46.333 1.66699 -73 5v113c8 -2 15.667 -3 23 -3c20.667 0 35.5 5.33301 44.5 16s13.5 26.667 13.5 48v467h174v-443z" />
    <glyph glyph-name="k" unicode="k" horiz-adv-x="746" 
d="M284 316l165 151h232l-243 -213l281 -254h-233l-193 193h-47v-193h-173v667h173v-351h38z" />
    <glyph glyph-name="l" unicode="l" horiz-adv-x="320" 
d="M73 0v667h173v-667h-173z" />
    <glyph glyph-name="m" unicode="m" horiz-adv-x="1188" 
d="M246 380c17.333 38 41.667 63.668 73 77.001s70.666 20 117.999 20c52 0 97.167 -7.33301 135.5 -22s66.833 -42 85.5 -82c12 40.667 35.833 68.167 71.5 82.5s79.167 21.5 130.5 21.5c79.333 0 141.5 -16 186.5 -48s67.5 -86 67.5 -162v-267h-173v232v15
c0 37.333 -7.33301 62.666 -22 75.999s-44.667 20 -90 20h-18c-29.333 0 -54.166 -3 -74.499 -9s-34 -15.667 -41 -29s-11.333 -25.833 -13 -37.5s-2.5 -23.5 -2.5 -35.5v-9v-223h-173v244c0 38.667 -7.83301 64.834 -23.5 78.501s-44.167 20.5 -85.5 20.5h-15
c-45.333 0 -79.5 -6.33301 -102.5 -19s-34.5 -39.334 -34.5 -80.001v-244h-173v467h173v-87z" />
    <glyph glyph-name="n" unicode="n" horiz-adv-x="781" 
d="M246 371c14.667 42.667 38.666 71 71.999 85s76.333 21 129 21c94.667 0 161.834 -15.5 201.501 -46.5s59.5 -92.833 59.5 -185.5v-245h-174v245c0 41.333 -8.5 68 -25.5 80s-48.5 18 -94.5 18h-20c-51.333 0 -88.833 -7.5 -112.5 -22.5s-35.5 -48.5 -35.5 -100.5v-11
v-209h-173v467h173v-96z" />
    <glyph glyph-name="o" unicode="o" horiz-adv-x="789" 
d="M386 476l180.998 -6.99805c62.667 -7.33301 106.167 -26.5 130.5 -57.5s36.5 -79.167 36.5 -144.5v-20c0 -94.667 -10.667 -158.334 -32 -191.001s-79.333 -53.334 -174 -62.001l-190 -4c-101.333 0 -172.166 13 -212.499 39s-60.5 86.333 -60.5 181v28
c0 59.333 5.33301 106 16 140s34.167 57.833 70.5 71.5s78.333 21.5 126 23.5s83.834 3 108.501 3zM388.998 118.002l19.002 0.000976562c32 0 57.833 1 77.5 3s34.667 6.83301 45 14.5s17.666 17.334 21.999 29.001s6.5 29.5 6.5 53.5v35c0 21.333 -2 37.166 -6 47.499
s-11.667 19.5 -23 27.5s-29 13.333 -53 16s-51.333 4 -82 4s-56.667 -1.5 -78 -4.5s-38.5 -9.83301 -51.5 -20.5s-20.5 -25.834 -22.5 -45.501s-3 -35.167 -3 -46.5c0 -20 1.66699 -38.5 5 -55.5s10.666 -29.833 21.999 -38.5s31.5 -14 60.5 -16s49.5 -3 61.5 -3z" />
    <glyph glyph-name="p" unicode="p" horiz-adv-x="803" 
d="M246 392c6.66699 15.333 14.334 28.666 23.001 39.999s21.667 20.333 39 27s38.166 11.334 62.499 14.001s52.833 4 85.5 4c101.333 0 174.333 -11.5 219 -34.5s67 -79.833 67 -170.5v-57c0 -38 -2.33301 -70 -7 -96s-17.5 -50.5 -38.5 -73.5s-51.667 -38 -92 -45
s-89.166 -10.5 -146.499 -10.5c-52.667 0 -96.834 5.5 -132.501 16.5s-62.167 35.167 -79.5 72.5v-286h-173v674h173v-75zM429 119c58 0 95.666 7.16895 112.999 21.502s26 48.833 26 103.5c0 38 -6.33301 64.5 -19 79.5s-38.667 22.5 -78 22.5l-114 2
c-24.667 0 -43 -1.33301 -55 -4s-22.5 -7.33398 -31.5 -14.001s-15.167 -16.667 -18.5 -30s-5 -29 -5 -47v-18c0 -40.667 6.33301 -69.834 19 -87.501s38.334 -26.5 77.001 -26.5z" />
    <glyph glyph-name="q" unicode="q" horiz-adv-x="797" 
d="M732 -207l-173.001 -0.000976562v284c-15.333 -28 -37.166 -49.5 -65.499 -64.5s-75.5 -22.5 -141.5 -22.5c-122.667 0 -200.667 16.667 -234 50s-50 85.333 -50 156c0 115.333 16.167 190.833 48.5 226.5s104.5 53.5 216.5 53.5h38c50.667 0 89.5 -4.66699 116.5 -14
s50.833 -31.666 71.5 -66.999v71h173v-673zM263.999 142.999c13.333 -10.667 32.498 -17.498 57.498 -20.498s54.167 -4.5 87.5 -4.5h16c55.333 0 92 6.5 110 19.5s27 44.833 27 95.5v7c0 20 -1.33301 37.167 -4 51.5s-8.5 25.166 -17.5 32.499s-24.333 13.166 -46 17.499
s-49.5 6.5 -83.5 6.5h-27c-25.333 0 -48.166 -1.33301 -68.499 -4s-35.833 -8.16699 -46.5 -16.5s-17.667 -19.5 -21 -33.5s-5 -30.333 -5 -49v-7v-27c0 -16 1.33301 -29.667 4 -41s8.33398 -20.333 17.001 -27z" />
    <glyph glyph-name="r" unicode="r" horiz-adv-x="659" 
d="M246 374c12.667 40 34.502 67.167 65.502 81.5s70.167 21.5 117.5 21.5c72 0 121.667 -12.667 149 -38s41 -73.333 41 -144v-30h-161c-0.666992 2 -1 5.66699 -1 11c-2.66699 31.333 -10.834 51.166 -24.501 59.499s-38.834 12.5 -75.501 12.5
c-42 0 -71 -11.167 -87 -33.5s-24 -56.166 -24 -101.499v-213h-173v467h173v-93z" />
    <glyph glyph-name="s" unicode="s" horiz-adv-x="771" 
d="M479 366c-9.33301 2.66699 -18.999 4.33496 -28.999 5.00195s-22 1 -36 1h-75c-11.333 0 -22 -0.166992 -32 -0.5s-20.5 -1.33301 -31.5 -3s-20 -5.83398 -27 -12.501s-10.5 -15 -10.5 -25c0 -13.333 5.33301 -22 16 -26s24.667 -6 42 -6l191 -1
c74.667 0 130.667 -7.5 168 -22.5s56 -53.5 56 -115.5c0 -39.333 -5.33301 -70 -16 -92s-31.167 -38.833 -61.5 -50.5s-66.333 -19.167 -108 -22.5s-86.834 -5 -135.501 -5h-73c-82.667 0 -146.167 8.66699 -190.5 26s-66.5 60 -66.5 128h181
c0 -21.333 7.83301 -34.166 23.5 -38.499s29.334 -6.83301 41.001 -7.5s25.5 -1 41.5 -1l82 -1c18 0 34.333 0.666992 49 2s28.167 4.5 40.5 9.5s18.5 16.833 18.5 35.5c0 14.667 -5.66699 24.167 -17 28.5s-26 6.5 -44 6.5h-130l-148 4c-90 8 -135 55.333 -135 142
c0 54.667 16.333 91.667 49 111s79.667 31.666 141 36.999l169 4c38.667 0 67.667 -0.5 87 -1.5s45.666 -4.33301 78.999 -10s58.333 -18.334 75 -38.001s25 -48.5 25 -86.5h-182c-2 14 -11 22.667 -27 26z" />
    <glyph glyph-name="t" unicode="t" horiz-adv-x="652" 
d="M307 352l-0.000976562 -148.998c0 -30.667 4.83301 -52.334 14.5 -65.001s29.167 -19 58.5 -19c26 0 44.833 4.33301 56.5 13s17.5 25.334 17.5 50.001v21h135c0 -82.667 -13.167 -138.834 -39.5 -168.501s-82.166 -44.5 -167.499 -44.5
c-104.667 0 -173 13.167 -205 39.5s-48 67.166 -48 122.499v200h-89v115h89v114h178v-114h282v-115h-282z" />
    <glyph glyph-name="u" unicode="u" horiz-adv-x="787" 
d="M541 0v95.999c-10.667 -42 -35.5 -70.167 -74.5 -84.5s-85.167 -21.5 -138.5 -21.5c-86.667 0 -150.667 15.167 -192 45.5s-62 87.5 -62 171.5v260h173v-244c0 -44.667 11 -73.167 33 -85.5s57.667 -18.5 107 -18.5c54 0 93.167 8.83301 117.5 26.5
s36.5 51.834 36.5 102.501v14v205h173v-467h-173z" />
    <glyph glyph-name="v" unicode="v" horiz-adv-x="748" 
d="M261 0l-231 467h195l150 -335l149 335h194l-230 -467h-227z" />
    <glyph glyph-name="w" unicode="w" horiz-adv-x="1105" 
d="M642 0l-91 276l-97 -276h-238l-170 467h183l109 -349l130 349h165l127 -349l113 349h185l-173 -467h-243z" />
    <glyph glyph-name="x" unicode="x" horiz-adv-x="743" 
d="M713 0h-223l-121 168l-122 -168h-217l207 246l-194 221h231l92 -126l100 126h225l-188 -215z" />
    <glyph glyph-name="y" unicode="y" horiz-adv-x="742" 
d="M242 -212l-65 4v118l38 -1c32.667 0 55 6.16699 67 18.5s25.333 36.5 40 72.5h-71l-214 467h192l137 -344l151 344h192l-274 -583c-20 -42 -43.5 -68.5 -70.5 -79.5s-67.833 -16.5 -122.5 -16.5z" />
    <glyph glyph-name="z" unicode="z" horiz-adv-x="680" 
d="M318 117h308v-117h-573v120l309 231h-289v116h543v-130z" />
    <glyph glyph-name="braceleft" unicode="{" 
d="M316 45c0.666992 -12.667 2 -25.666 4 -38.999s7.33301 -21.5 16 -24.5s17.667 -5.16699 27 -6.5s22 -2 38 -2l14 1v-166l-116 -3c-56 0 -98.333 9.66699 -127 29s-43 58.333 -43 117v131c0 24.667 -3.83301 44.167 -11.5 58.5s-22.167 23.833 -43.5 28.5v153
c20 4 34.167 12.333 42.5 25s12.5 30 12.5 52v133c0 58 14.167 96.5 42.5 115.5s70.5 28.5 126.5 28.5l117 -3v-175h-14c-42 0 -65.833 -2.83301 -71.5 -8.5s-10.167 -26.5 -13.5 -62.5v-61c0 -31.333 -3.66699 -55.833 -11 -73.5s-23.333 -34.834 -48 -51.501
c23.333 -15.333 39 -32.5 47 -51.5s12 -43.833 12 -74.5v-70z" />
    <glyph glyph-name="bar" unicode="|" 
d="M345 -167h-191v833h191v-833z" />
    <glyph glyph-name="braceright" unicode="}" 
d="M184 436c0 31.333 -5.66699 51.167 -17 59.5s-33.666 12.5 -66.999 12.5h-15v165l118 3c55.333 0 97.166 -9.66699 125.499 -29s42.5 -58.333 42.5 -117v-131c0 -24 3.83301 -43.333 11.5 -58s22.167 -24.334 43.5 -29.001v-153c-20 -4 -34.167 -12.333 -42.5 -25
s-12.5 -30 -12.5 -52v-133c0 -58 -14.167 -96.5 -42.5 -115.5s-70.166 -28.5 -125.499 -28.5l-118 3v175h15c31.333 0 53.166 3 65.499 9s18.5 22.667 18.5 50v73c0 32 3.83301 56.833 11.5 74.5s23.5 34.834 47.5 51.501c-23.333 14.667 -39 31.5 -47 50.5
s-12 43.833 -12 74.5v70z" />
    <glyph glyph-name="asciitilde" unicode="~" horiz-adv-x="667" 
d="M250 763c20.667 0 51.832 -8.66699 93.499 -26s70.167 -26 85.5 -26c12.667 0 23.5 5.16699 32.5 15.5s17.833 23.5 26.5 39.5l90 -76c-23.333 -59.333 -47.333 -99 -72 -119s-52.667 -30 -84 -30c-17.333 0 -47.166 8.5 -89.499 25.5s-72.833 25.5 -91.5 25.5
c-12.667 0 -23.5 -5.16699 -32.5 -15.5s-17.833 -23.5 -26.5 -39.5l-90 76c22.667 58 47 97.5 73 118.5s54.333 31.5 85 31.5z" />
    <glyph glyph-name="asciitilde" unicode="&#x2dc;" horiz-adv-x="667" 
d="M250 763c20.667 0 51.832 -8.66699 93.499 -26s70.167 -26 85.5 -26c12.667 0 23.5 5.16699 32.5 15.5s17.833 23.5 26.5 39.5l90 -76c-23.333 -59.333 -47.333 -99 -72 -119s-52.667 -30 -84 -30c-17.333 0 -47.166 8.5 -89.499 25.5s-72.833 25.5 -91.5 25.5
c-12.667 0 -23.5 -5.16699 -32.5 -15.5s-17.833 -23.5 -26.5 -39.5l-90 76c22.667 58 47 97.5 73 118.5s54.333 31.5 85 31.5z" />
    <glyph glyph-name="nonbreakingspace" unicode="&#xa0;" horiz-adv-x="250" 
 />
    <glyph glyph-name="exclamdown" unicode="&#xa1;" horiz-adv-x="327" 
d="M65 467h199v-186h-199v186zM78 194h177l11 -394h-197z" />
    <glyph glyph-name="cent" unicode="&#xa2;" horiz-adv-x="953" 
d="M622 314l177.999 0.000976562c0 -82 -20.833 -135.167 -62.5 -159.5s-108.834 -36.5 -201.501 -36.5h-9v-79h-91v79c-109.333 0 -183.666 15.167 -222.999 45.5s-59 98.833 -59 205.5c0 90 20.5 152 61.5 186s107.167 51 198.5 51l22 -1v69h91v-69
c88 0 155.833 -10.167 203.5 -30.5s71.5 -68.166 71.5 -143.499v-25h-173c-4 27.333 -14.167 44.666 -30.5 51.999s-40.166 11 -71.499 11v-218c26 0 48.333 4.66699 67 14s28 25.666 28 48.999zM435.999 251.001v218.001c-39.333 0 -66.666 -7.33301 -81.999 -22
s-23 -42.334 -23 -83.001c0 -44 6.16699 -72.5 18.5 -85.5s41.166 -22.167 86.499 -27.5z" />
    <glyph glyph-name="sterling" unicode="&#xa3;" horiz-adv-x="953" 
d="M78 0v145.001c30.667 0 50.667 9.16699 60 27.5s14 44.166 14 77.499h-105v113h103c0 117.333 13.667 197.5 41 240.5s94 64.5 200 64.5l129 2h52c51.333 0 95 -1.33301 131 -4s70.5 -9.5 103.5 -20.5s55.833 -31.5 68.5 -61.5s19 -69 19 -117l-1 -28h-188
c0 34 -8.16699 56.167 -24.5 66.5s-43.166 15.5 -80.499 15.5l-108 2c-22.667 0 -41 -0.333008 -55 -1s-29.833 -3 -47.5 -7s-30.334 -11.5 -38.001 -22.5s-11.5 -25.833 -11.5 -44.5l1 -56l-1 -29h278v-113h-276c0 -30.667 -5 -52 -15 -64s-30.667 -25 -62 -39h641v-147
h-828z" />
    <glyph glyph-name="currency" unicode="&#xa4;" horiz-adv-x="729" 
d="M103 340c0 21.333 3.16797 42.668 9.50098 64.001s15.166 42.666 26.499 63.999l-107 107l97 97l109 -109c20.667 10 42.5 17.833 65.5 23.5s45.5 8.5 67.5 8.5c20.667 0 40 -2.5 58 -7.5s38 -12.833 60 -23.5l108 107l96 -97l-104 -104
c11.333 -20 20.333 -41.167 27 -63.5s10 -44.833 10 -67.5s-2.66699 -44 -8 -64s-13.333 -41 -24 -63l104 -104l-96 -97l-103 103c-43.333 -24.667 -89 -37 -137 -37c-22.667 0 -44.167 3 -64.5 9s-42.5 15.333 -66.5 28l-104 -102l-96 95l104 105
c-21.333 41.333 -32 84 -32 128zM365.001 241.002c27.333 0 50.333 9.66699 69 29s28 42.333 28 69s-9.33301 49.667 -28 69s-41.667 29 -69 29c-26 0 -48.667 -9.66699 -68 -29s-29 -42.333 -29 -69s9.33301 -49.667 28 -69s41.667 -29 69 -29z" />
    <glyph glyph-name="yen" unicode="&#xa5;" horiz-adv-x="1000" 
d="M980 667l-190 -221h141v-70h-201l-78 -90h279v-72h-326v-214h-204v214h-330v72h283l-78 90h-205v70h144l-195 221h256l226 -275l224 275h254z" />
    <glyph glyph-name="brokenbar" unicode="&#xa6;" 
d="M345 305h-191v361h191v-361zM345 -167h-191v320h191v-320z" />
    <glyph glyph-name="section" unicode="&#xa7;" horiz-adv-x="953" 
d="M555 545l-84 0.996094l-76 -1c-32.667 0 -58.167 -3.16699 -76.5 -9.5s-27.5 -22.833 -27.5 -49.5c0 -23.333 8.33301 -39 25 -47s38 -12 64 -12l323 -37c54.667 -7.33301 94.667 -21 120 -41s38 -55.333 38 -106c0 -29.333 -5.33301 -55.666 -16 -78.999
s-28.334 -40.333 -53.001 -51c27.333 -9.33301 45.333 -24.166 54 -44.499s13 -47.166 13 -80.499c0 -82 -16.167 -136.833 -48.5 -164.5s-91.5 -41.5 -177.5 -41.5l-231 -5l-137 4c-53.333 0 -95.5 9.83301 -126.5 29.5s-46.5 55.167 -46.5 106.5v57h181
c0 -28 6.66699 -45.833 20 -53.5s35 -11.5 65 -11.5l113 -3l105 2c31.333 0 56.333 4.5 75 13.5s28 27.5 28 55.5c0 34 -20.667 53.667 -62 59l-389 50c-84 11.333 -126 61 -126 149c0 31.333 5.33301 55.333 16 72s30.334 31 59.001 43c-30 11.333 -49 28 -57 50
s-12 52.667 -12 92c0 68.667 16.833 115.334 50.5 140.001s85.5 37 155.5 37l164 4h137c80.667 0 137.5 -12.167 170.5 -36.5s49.5 -74.833 49.5 -151.5h-179c0 26 -8.83301 42.5 -26.5 49.5s-42.5 10.5 -74.5 10.5zM381 180.996l274.001 -34.998c14 16.667 23.667 31 29 43
s8 23.667 8 35c0 20.667 -7.83301 35.167 -23.5 43.5s-36.167 14.166 -61.5 17.499l-279 34c-10.667 -11.333 -18.834 -22.833 -24.501 -34.5s-8.5 -24.834 -8.5 -39.501c0 -23.333 7.33301 -38.833 22 -46.5s36 -13.5 64 -17.5z" />
    <glyph glyph-name="dieresis" unicode="&#xa8;" 
d="M74 533v101h139v-101h-139zM287 533v101h139v-101h-139z" />
    <glyph glyph-name="copyright" unicode="&#xa9;" horiz-adv-x="762" 
d="M192 335c0 56.667 17.667 104.334 53 143.001s81.333 58 138 58c45.333 0 85.333 -13.5 120 -40.5s52 -62.167 52 -105.5h-83c-5.33301 18 -16.333 31 -33 39s-35.667 12 -57 12c-26 0 -45.833 -10.667 -59.5 -32s-20.5 -45.666 -20.5 -72.999
c0 -28.667 6.66699 -53.334 20 -74.001s33.333 -31 60 -31c24.667 0 45.167 5.16699 61.5 15.5s26.5 26.833 30.5 49.5h84c0 -48 -16.833 -86.5 -50.5 -115.5s-75.5 -43.5 -125.5 -43.5c-57.333 0 -103.333 18.667 -138 56s-52 84.666 -52 141.999zM383 -15
c-95.333 0 -177.333 34 -246 102s-103 150 -103 246s34 178 102 246s150.333 102 247 102c94.667 0 175.667 -34.333 243 -103s101 -150.334 101 -245.001c0 -95.333 -33.5 -177.166 -100.5 -245.499s-148.167 -102.5 -243.5 -102.5zM382 63
c72.667 0 134.167 26.8311 184.5 80.498s75.5 116.834 75.5 189.501s-25.167 135.834 -75.5 189.501s-111.833 80.5 -184.5 80.5c-73.333 0 -135.5 -26.5 -186.5 -79.5s-76.5 -116.5 -76.5 -190.5s25.5 -137.5 76.5 -190.5s113.167 -79.5 186.5 -79.5z" />
    <glyph glyph-name="ordfeminine" unicode="&#xaa;" horiz-adv-x="415" 
d="M157 665l110.999 2c42.667 0 75.5 -6.33301 98.5 -19s34.5 -38.667 34.5 -78v-189h-105v46c-7.33301 -22.667 -21.833 -37 -43.5 -43s-48.5 -9 -80.5 -9c-51.333 0 -89.166 5.16699 -113.499 15.5s-36.5 36.833 -36.5 79.5c0 28.667 8.33301 50.667 25 66
s39.334 23 68.001 23l64 2h32c20.667 0 37.667 -1.66699 51 -5s24.666 -11.666 33.999 -24.999v31c0 10.667 -1.33301 19.167 -4 25.5s-7.33398 10.666 -14.001 12.999s-20.167 3.83301 -40.5 4.5s-32.5 1 -36.5 1l-34 -2c-10 0 -17.5 -1.33301 -22.5 -4
s-7.5 -8.66699 -7.5 -18h-103c0 30.667 11.833 52.167 35.5 64.5s52.834 18.5 87.501 18.5zM267.999 445c18.667 2.66699 28.002 12.666 28.002 29.999c0 10.667 -4.66699 18 -14 22s-20 6 -32 6l-58 1c-16 0 -28.333 -0.833008 -37 -2.5s-15.834 -4.5 -21.501 -8.5
s-8.5 -10.333 -8.5 -19c0 -13.333 4.66699 -22.166 14 -26.499s22.333 -6.5 39 -6.5h24h41c11.333 2 19.666 3.33301 24.999 4zM422.001 331.999v-82h-406v82h406z" />
    <glyph glyph-name="guillemotleft" unicode="&#xab;" horiz-adv-x="633" 
d="M300 70l-123 -68l-144 241l144 247l124 -70l-104 -177zM573 70l-123 -68l-144 241l144 247l123 -70l-104 -177z" />
    <glyph glyph-name="logicalnot" unicode="&#xac;" 
d="M33 132v166h433v-298h-184v132h-249z" />
    <glyph glyph-name="registered" unicode="&#xae;" horiz-adv-x="762" 
d="M538 424c0 -45.333 -20.001 -76.999 -60.001 -94.999c29.333 -12 46.333 -36.667 51 -74l13 -107h-104c-6 13.333 -9.83301 41.666 -11.5 84.999s-29.167 65 -82.5 65v-150h-109v381h162c40.667 0 74.334 -8 101.001 -24s40 -43 40 -81zM374.999 360.001
c36.667 0 55 18.333 55 55c0 32 -17 48 -51 48h-35v-103h31zM382.999 -14.999c-95.333 0 -177.333 34 -246 102s-103 150 -103 246s34 178 102 246s150.333 102 247 102c94.667 0 175.667 -34.333 243 -103s101 -150.334 101 -245.001
c0 -95.333 -33.5 -177.166 -100.5 -245.499s-148.167 -102.5 -243.5 -102.5zM381.999 63.001c72.667 0 134.167 26.8311 184.5 80.498s75.5 116.834 75.5 189.501s-25.167 135.834 -75.5 189.501s-111.833 80.5 -184.5 80.5c-73.333 0 -135.5 -26.5 -186.5 -79.5
s-76.5 -116.5 -76.5 -190.5s25.5 -137.5 76.5 -190.5s113.167 -79.5 186.5 -79.5z" />
    <glyph glyph-name="degree" unicode="&#xb0;" 
d="M85 503c0 48.667 15.332 89.668 45.999 123.001s70.334 50 119.001 50c46 0 85 -16.333 117 -49s48 -72.334 48 -119.001c0 -45.333 -16.5 -83.833 -49.5 -115.5s-72.167 -47.5 -117.5 -47.5c-42.667 0 -80.5 15.5 -113.5 46.5s-49.5 68.167 -49.5 111.5z
M155.999 509.001c0 -24.667 9.16797 -46.5 27.501 -65.5s39.833 -28.5 64.5 -28.5c25.333 0 47.666 9.33301 66.999 28s29 40.667 29 66c0 26 -9 48.667 -27 68s-40.333 29 -67 29c-25.333 0 -47.333 -9.66699 -66 -29s-28 -42 -28 -68z" />
    <glyph glyph-name="plusminus" unicode="&#xb1;" 
d="M204 615h90v-203h202v-86h-202v-194h-90v194h-201v86h201v203zM496 6h-493v86h493v-86z" />
    <glyph glyph-name="twosuperior" unicode="&#xb2;" horiz-adv-x="598" 
d="M59 267l-0.000976562 103.002c0 22.667 2 41.167 6 55.5s15 27.666 33 39.999s55.667 20.333 113 24s102.333 6.66699 135 9s53.334 5 62.001 8s13 13.833 13 32.5c0 16.667 -2.33301 27.667 -7 33s-12.834 8.83301 -24.501 10.5s-25.5 2.5 -41.5 2.5
c-19.333 0 -38.666 -0.333008 -57.999 -1l-58 -2c-21.333 0 -36 -3.66699 -44 -11s-12 -21 -12 -41v-11h-116l-1 30c0 52.667 11.333 85.5 34 98.5s62 19.5 118 19.5l148 2l57 -1c45.333 0 77.5 -8.83301 96.5 -26.5s28.5 -49.167 28.5 -94.5
c0 -50 -9.16699 -84.833 -27.5 -104.5s-52.833 -29.5 -103.5 -29.5l-100 -7l-86 -6c-18 0 -30.667 -2.33301 -38 -7s-11 -15.334 -11 -32.001v-10h366v-84h-482z" />
    <glyph glyph-name="threesuperior" unicode="&#xb3;" horiz-adv-x="598" 
d="M354 507c19.333 0 34.335 1.99805 45.002 5.99805s16 14 16 30c0 15.333 -2.5 25 -7.5 29s-11.333 6.66699 -19 8s-14.5 2 -20.5 2l-83 2l-59 -2c-17.333 0 -30.333 -2.66699 -39 -8s-13 -16.333 -13 -33l1 -13h-120c0 48.667 8.33301 82.334 25 101.001s49 30.667 97 36
l129 4h36c15.333 0 30.333 -0.166992 45 -0.5s35.5 -2.33301 62.5 -6s48 -13.5 63 -29.5s22.5 -42.333 22.5 -79c0 -28 -4.66699 -47.667 -14 -59s-29.333 -20.333 -60 -27c31.333 -5.33301 53.166 -14.166 65.499 -26.499s18.5 -34.833 18.5 -67.5
c0 -44.667 -14.167 -74 -42.5 -88s-67.833 -21 -118.5 -21h-175c-54 0 -93.5 7.33301 -118.5 22s-37.5 47 -37.5 97l1 24h116c0 -22.667 3 -37.834 9 -45.501s20.333 -11.5 43 -11.5l152 -1c15.333 0 27.666 2.33301 36.999 7s14 14.334 14 29.001
c0 15.333 -3.66699 26 -11 32s-19 9 -35 9h-131v80h106z" />
    <glyph glyph-name="acute" unicode="&#xb4;" 
d="M144 521l-25 67l224 110l39 -110z" />
    <glyph glyph-name="mu" unicode="&#xb5;" horiz-adv-x="608" 
d="M228 479l-0.000976562 -240c0 -44.667 7 -75 21 -91s33.333 -24 58 -24c29.333 0 48.833 11.167 58.5 33.5s14.5 49.833 14.5 82.5v239h173v-479h-173v53c-8.66699 -19.333 -18.5 -34.5 -29.5 -45.5s-25.5 -16.5 -43.5 -16.5c-16.667 0 -31.667 4.83301 -45 14.5
s-24.666 22.5 -33.999 38.5v-217h-173v652h173z" />
    <glyph glyph-name="paragraph" unicode="&#xb6;" horiz-adv-x="655" 
d="M245 322c-53.333 0 -96.667 15.333 -130 46s-50 72.334 -50 125.001c0 65.333 21 110.666 63 135.999s97.333 38 166 38h266v-68h-48v-712h-88v712h-80v-712h-88v436z" />
    <glyph glyph-name="periodcentered" unicode="&#xb7;" horiz-adv-x="273" 
d="M47 156v185h179v-185h-179z" />
    <glyph glyph-name="periodcentered" unicode="&#x2219;" horiz-adv-x="273" 
d="M47 156v185h179v-185h-179z" />
    <glyph glyph-name="cedilla" unicode="&#xb8;" 
d="M178 -209l-33 64l160 105l51 -112z" />
    <glyph glyph-name="onesuperior" unicode="&#xb9;" horiz-adv-x="598" 
d="M290 267v301l-146 -97l-57 84l176 112h153v-400h-126z" />
    <glyph glyph-name="ordmasculine" unicode="&#xba;" horiz-adv-x="435" 
d="M206 668c12 0 32.498 -0.665039 61.498 -1.99805s44.833 -2 47.5 -2c36.667 -4.66699 62.5 -16.5 77.5 -35.5s22.5 -48.167 22.5 -87.5v-26c0 -30.667 -2.66699 -55.667 -8 -75s-15.666 -32.833 -30.999 -40.5s-29.833 -13 -43.5 -16s-27.5 -4.5 -41.5 -4.5
c-18.667 0 -37.5 -0.333008 -56.5 -1l-56.5 -2c-59.333 0 -101.666 8.16699 -126.999 24.5s-38 52.166 -38 107.499v17v5c0 63.333 13.333 102.166 40 116.499s77.667 21.5 153 21.5zM212.998 453.002c21.333 0 38.334 0.669922 51.001 2.00293s22.667 4.66602 30 9.99902
s11.833 11.5 13.5 18.5s2.5 16.5 2.5 28.5v22c0 10.667 -0.833008 19.5 -2.5 26.5s-6.16699 13 -13.5 18s-18.5 8.33301 -33.5 10s-31.5 2.5 -49.5 2.5c-16.667 0 -32 -1 -46 -3s-24.5 -5.83301 -31.5 -11.5s-11.333 -13.167 -13 -22.5s-2.5 -20.333 -2.5 -33
s0.833008 -23.834 2.5 -33.501s5.66699 -16.834 12 -21.501s15.666 -8 27.999 -10s29.833 -3 52.5 -3zM421.999 332.005v-82h-406v82h406z" />
    <glyph glyph-name="guillemotright" unicode="&#xbb;" horiz-adv-x="633" 
d="M600 243l-144 -241l-123 68l104 173l-104 177l123 70zM328 243l-145 -241l-123 68l104 173l-104 177l123 70z" />
    <glyph glyph-name="onequarter" unicode="&#xbc;" horiz-adv-x="1422" 
d="M290 267v301l-146 -98l-57 85l176 112h153v-400h-126zM484 0h-101l555 667h100zM1378 163v-84h-66v-79h-117v79h-324v141l295 180h146v-237h66zM964 163h231v142z" />
    <glyph glyph-name="onehalf" unicode="&#xbd;" horiz-adv-x="1422" 
d="M290 267v301l-146 -98l-57 85l176 112h153v-400h-126zM484 0h-101l555 667h100zM882 0l-0.00292969 103.001c0 22 2 40.333 6 55s15.167 28.334 33.5 41.001s56 20.834 113 24.501l136 9c33.667 2.33301 54.334 5.66602 62.001 9.99902s11.5 14.166 11.5 29.499v7
c-1.33301 12.667 -3.66602 21.5 -6.99902 26.5s-11.166 8.33301 -23.499 10s-26.5 2.5 -42.5 2.5c-19.333 0 -38.833 -0.333008 -58.5 -1l-58.5 -2c-20.667 0 -35 -3.33301 -43 -10s-12 -19.334 -12 -38.001l-1 -15h-116v30c0 54 11.333 87.167 34 99.5
s61.667 18.5 117 18.5l149 2c79.333 0 129.333 -9.66699 150 -29s31 -50.333 31 -93c0 -50 -9.16699 -84.833 -27.5 -104.5s-52.833 -29.5 -103.5 -29.5l-100 -7l-85 -6c-17.333 0 -29.833 -2.33301 -37.5 -7s-11.5 -14.667 -11.5 -30v-12h365v-84h-481z" />
    <glyph glyph-name="threequarters" unicode="&#xbe;" horiz-adv-x="1422" 
d="M354 507c19.333 0 34.333 1.99805 45 5.99805s16 13.667 16 29c0 8 -0.5 14.333 -1.5 19s-4.16699 8.83398 -9.5 12.501s-16.333 6.33398 -33 8.00098s-35 2.5 -55 2.5h-31l-59 -2c-17.333 0 -30.333 -2.66699 -39 -8s-13 -16.666 -13 -33.999l1 -12h-120
c0 48.667 8.66699 83.5 26 104.5s49.333 31.5 96 31.5c16 2 36 3.33301 60 4s47 1 69 1h32c16 0 31.333 -0.166992 46 -0.5s36 -2.33301 64 -6s49.5 -13.5 64.5 -29.5s22.5 -42.333 22.5 -79c0 -24.667 -4 -43 -12 -55s-23.667 -21.333 -47 -28l-15 -4
c30.667 -3.33301 52.334 -11.833 65.001 -25.5s19 -36.167 19 -67.5c0 -44.667 -14.167 -74 -42.5 -88s-67.833 -21 -118.5 -21h-175c-54 0 -93.5 7.33301 -118.5 22s-37.5 47 -37.5 97l1 24h116c0 -22.667 3 -37.834 9 -45.501s20.333 -11.5 43 -11.5l152 -1
c19.333 0 32.666 3.16699 39.999 9.5s11 14.833 11 25.5c0 16 -3.66699 27 -11 33s-19 9 -35 9l-31 -1h-100v81h106zM484 -0.00195312h-101l555 667h100zM1378 162.998v-84h-66v-79h-117v79h-324v141l295 180h146v-237h66zM964 162.998h231v142z" />
    <glyph glyph-name="questiondown" unicode="&#xbf;" horiz-adv-x="796" 
d="M517 466v-186h-199v186h199zM288 48c-22 -3.33301 -40.667 -9.83301 -56 -19.5s-23 -24.5 -23 -44.5c0 -21.333 9.33301 -36.833 28 -46.5s39.667 -14.5 63 -14.5l66 -2l88 2c31.333 0 54 5.66699 68 17s21 31.333 21 60c0 12.667 -0.666992 22 -2 28h175v-31
c0 -44 -5 -80.833 -15 -110.5s-30.333 -51 -61 -64s-68 -21.167 -112 -24.5s-93 -5 -147 -5c-36.667 0 -71 0.666992 -103 2s-69 4.66602 -111 9.99902s-73.5 22.833 -94.5 52.5s-31.5 71.167 -31.5 124.5v21c0 28.667 1.83301 52.334 5.5 71.001s14 37.167 31 55.5
s63.5 34 139.5 47s114 31.167 114 54.5h171c0 -76.667 -12.667 -123.167 -38 -139.5s-84 -30.833 -176 -43.5z" />
    <glyph glyph-name="Agrave" unicode="&#xc0;" horiz-adv-x="1077" 
d="M260 0h-226l372 667h274l364 -667h-224l-63 121h-431zM397 259h286l-143 264zM646 727l-238 67l39 110l224 -110z" />
    <glyph glyph-name="Aacute" unicode="&#xc1;" horiz-adv-x="1077" 
d="M260 0h-226l372 667h274l364 -667h-224l-63 121h-431zM397 259h286l-143 264zM433 727l-25 67l224 110l39 -110z" />
    <glyph glyph-name="Acircumflex" unicode="&#xc2;" horiz-adv-x="1077" 
d="M260 0h-226l372 667h274l364 -667h-224l-63 121h-431zM397 259h286l-143 264zM713 724l-176 63l-175 -63l-23 60l200 114l201 -114z" />
    <glyph glyph-name="Atilde" unicode="&#xc3;" horiz-adv-x="1077" 
d="M260 0h-226l372 667h274l364 -667h-224l-63 121h-431zM397 259h286l-143 264zM620 721c-15.333 0 -41 7.16797 -77 21.501s-62.333 21.5 -79 21.5c-14 0 -24.5 -3.66699 -31.5 -11s-12.167 -18.333 -15.5 -33h-89c7.33301 43.333 20 78.166 38 104.499s46 39.5 84 39.5
c19.333 0 46.333 -6.83301 81 -20.5s61 -20.5 79 -20.5c14 0 26 3.83301 36 11.5s15 18.167 15 31.5h90c-4.66699 -39.333 -18.167 -73.333 -40.5 -102s-52.5 -43 -90.5 -43z" />
    <glyph glyph-name="Adieresis" unicode="&#xc4;" horiz-adv-x="1077" 
d="M260 0h-226l372 667h274l364 -667h-224l-63 121h-431zM397 259h286l-143 264zM363 729v101h139v-101h-139zM576 729v101h139v-101h-139z" />
    <glyph glyph-name="Aring" unicode="&#xc5;" horiz-adv-x="1077" 
d="M260 0h-226l372 667h274l364 -667h-224l-63 121h-431zM397 259h286l-143 264zM678 789c0 -30 -13.834 -50.668 -41.501 -62.001s-59.5 -17 -95.5 -17c-36.667 0 -69.167 5.33301 -97.5 16s-42.5 31.334 -42.5 62.001c0 27.333 14.833 46.5 44.5 57.5
s60.834 16.5 93.501 16.5c36 0 68.167 -5 96.5 -15s42.5 -29.333 42.5 -58zM540.999 753.999c22.667 0 41.666 2 56.999 6s23 12.667 23 26c0 16 -9.5 25.5 -28.5 28.5s-34.167 4.5 -45.5 4.5h-8c-19.333 0 -37.666 -2.16699 -54.999 -6.5s-26 -13.833 -26 -28.5
c0 -12 7.16699 -20 21.5 -24s30.5 -6 48.5 -6h13z" />
    <glyph glyph-name="AE" unicode="&#xc6;" horiz-adv-x="1494" 
d="M1397 401v-132h-505v-118h539v-151h-729v121h-361l-81 -121h-240l446 667h965v-152h-539v-114h505zM597 515l-170 -258h275v258h-105z" />
    <glyph glyph-name="Ccedilla" unicode="&#xc7;" horiz-adv-x="999" 
d="M928 225c0 -92 -16.833 -153.167 -50.5 -183.5s-100.167 -45.5 -199.5 -45.5l-155 -3l-126 2c-134 0 -220.167 17.5 -258.5 52.5s-57.5 89.5 -57.5 163.5l-6 140c0 109.333 16 189.5 48 240.5s97.333 76.5 196 76.5l190 5c55.333 0 101 -0.5 137 -1.5
s79.667 -4.5 131 -10.5s88 -28.5 110 -67.5s33 -92.833 33 -161.5h-197c0 30.667 -7.5 51.167 -22.5 61.5s-38.833 15.5 -71.5 15.5l-57 1h-56l-103 -1c-61.333 0 -98.833 -11.333 -112.5 -34s-20.5 -69.667 -20.5 -141c0 -67.333 7.16699 -113.5 21.5 -138.5
s52.5 -37.5 114.5 -37.5l95 -2l104 1c40.667 0 69.667 5.66699 87 17s26 38 26 80h199zM429 -209l-33 64l161 105l50 -112z" />
    <glyph glyph-name="Egrave" unicode="&#xc8;" horiz-adv-x="894" 
d="M831 667v-152h-541v-114h505v-132h-505v-118h541v-151h-744v667h744zM554 727l-238 67l39 110l224 -110z" />
    <glyph glyph-name="Eacute" unicode="&#xc9;" horiz-adv-x="894" 
d="M831 667v-152h-541v-114h505v-132h-505v-118h541v-151h-744v667h744zM341 727l-25 67l224 110l39 -110z" />
    <glyph glyph-name="Ecircumflex" unicode="&#xca;" horiz-adv-x="894" 
d="M831 667v-152h-541v-114h505v-132h-505v-118h541v-151h-744v667h744zM621 724l-176 63l-175 -63l-23 60l200 114l201 -114z" />
    <glyph glyph-name="Edieresis" unicode="&#xcb;" horiz-adv-x="894" 
d="M831 667v-152h-541v-114h505v-132h-505v-118h541v-151h-744v667h744zM271 729v101h139v-101h-139zM484 729v101h139v-101h-139z" />
    <glyph glyph-name="Igrave" unicode="&#xcc;" horiz-adv-x="377" 
d="M87 0v667h203v-667h-203zM296 727l-238 67l39 110l224 -110z" />
    <glyph glyph-name="Iacute" unicode="&#xcd;" horiz-adv-x="377" 
d="M87 0v667h203v-667h-203zM83 727l-25 67l224 110l39 -110z" />
    <glyph glyph-name="Icircumflex" unicode="&#xce;" horiz-adv-x="377" 
d="M87 0v667h203v-667h-203zM363 724l-176 63l-175 -63l-23 60l200 114l201 -114z" />
    <glyph glyph-name="Idieresis" unicode="&#xcf;" horiz-adv-x="377" 
d="M87 0v667h203v-667h-203zM13 729v101h139v-101h-139zM226 729v101h139v-101h-139z" />
    <glyph glyph-name="Eth" unicode="&#xd0;" horiz-adv-x="1055" 
d="M0 283l-0.00195312 120.002h87v264h589c97.333 0 172 -14.5 224 -43.5s78 -86.833 78 -173.5l3 -121v-29v-15c0 -30.667 -0.5 -51.834 -1.5 -63.501s-4.66699 -36.834 -11 -75.501s-29.166 -72.667 -68.499 -102s-88.666 -44 -147.999 -44h-665v283h-87zM776.998 331.002
v6c0 64.667 -7.66699 108.5 -23 131.5s-54.333 34.5 -117 34.5h-347v-100h182v-120h-182v-121h344c62.667 0 102.167 12 118.5 36s24.5 68.333 24.5 133z" />
    <glyph glyph-name="Ntilde" unicode="&#xd1;" horiz-adv-x="1089" 
d="M679 0l-402 501v-501h-191v667h323l402 -500v500h191v-667h-323zM625 721c-15.333 0 -41 7.16797 -77 21.501s-62.333 21.5 -79 21.5c-14 0 -24.5 -3.66699 -31.5 -11s-12.167 -18.333 -15.5 -33h-89c7.33301 43.333 20 78.166 38 104.499s46 39.5 84 39.5
c19.333 0 46.333 -6.83301 81 -20.5s61 -20.5 79 -20.5c14 0 26 3.83301 36 11.5s15 18.167 15 31.5h90c-4.66699 -39.333 -18.167 -73.333 -40.5 -102s-52.5 -43 -90.5 -43z" />
    <glyph glyph-name="Ograve" unicode="&#xd2;" horiz-adv-x="1061" 
d="M517 674l162 -1c118.667 0 199.834 -19.667 243.501 -59s65.5 -118 65.5 -236v-32c0 -138.667 -17.333 -231.5 -52 -278.5s-122.334 -70.5 -263.001 -70.5l-153 -3l-64 -1l-138 5c-77.333 0 -137 17.5 -179 52.5s-63 91.5 -63 169.5l-2 123
c0 135.333 17.333 223.833 52 265.5s117 62.5 247 62.5zM407 159l108.998 -2.00195l104 1c57.333 0 98.5 6.16699 123.5 18.5s37.5 42.833 37.5 91.5l2 90c0 30.667 -1.83301 56.834 -5.5 78.501s-11.167 37.667 -22.5 48s-28.166 17.166 -50.499 20.499
s-46.166 5 -71.499 5l-202 -1c-46 0 -81 -4.66699 -105 -14s-37.833 -29.166 -41.5 -59.499s-5.5 -55.5 -5.5 -75.5v-18v-27c0 -61.333 7.16699 -102.666 21.5 -123.999s49.833 -32 106.5 -32zM637.998 726.998l-238 67l39 110l224 -110z" />
    <glyph glyph-name="Oacute" unicode="&#xd3;" horiz-adv-x="1061" 
d="M517 674l162 -1c118.667 0 199.834 -19.667 243.501 -59s65.5 -118 65.5 -236v-32c0 -138.667 -17.333 -231.5 -52 -278.5s-122.334 -70.5 -263.001 -70.5l-153 -3l-64 -1l-138 5c-77.333 0 -137 17.5 -179 52.5s-63 91.5 -63 169.5l-2 123
c0 135.333 17.333 223.833 52 265.5s117 62.5 247 62.5zM407 159l108.998 -2.00195l104 1c57.333 0 98.5 6.16699 123.5 18.5s37.5 42.833 37.5 91.5l2 90c0 30.667 -1.83301 56.834 -5.5 78.501s-11.167 37.667 -22.5 48s-28.166 17.166 -50.499 20.499
s-46.166 5 -71.499 5l-202 -1c-46 0 -81 -4.66699 -105 -14s-37.833 -29.166 -41.5 -59.499s-5.5 -55.5 -5.5 -75.5v-18v-27c0 -61.333 7.16699 -102.666 21.5 -123.999s49.833 -32 106.5 -32zM424.998 726.998l-25 67l224 110l39 -110z" />
    <glyph glyph-name="Ocircumflex" unicode="&#xd4;" horiz-adv-x="1061" 
d="M517 674l162 -1c118.667 0 199.834 -19.667 243.501 -59s65.5 -118 65.5 -236v-32c0 -138.667 -17.333 -231.5 -52 -278.5s-122.334 -70.5 -263.001 -70.5l-153 -3l-64 -1l-138 5c-77.333 0 -137 17.5 -179 52.5s-63 91.5 -63 169.5l-2 123
c0 135.333 17.333 223.833 52 265.5s117 62.5 247 62.5zM407 159l108.998 -2.00195l104 1c57.333 0 98.5 6.16699 123.5 18.5s37.5 42.833 37.5 91.5l2 90c0 30.667 -1.83301 56.834 -5.5 78.501s-11.167 37.667 -22.5 48s-28.166 17.166 -50.499 20.499
s-46.166 5 -71.499 5l-202 -1c-46 0 -81 -4.66699 -105 -14s-37.833 -29.166 -41.5 -59.499s-5.5 -55.5 -5.5 -75.5v-18v-27c0 -61.333 7.16699 -102.666 21.5 -123.999s49.833 -32 106.5 -32zM704.998 723.998l-176 63l-175 -63l-23 60l200 114l201 -114z" />
    <glyph glyph-name="Otilde" unicode="&#xd5;" horiz-adv-x="1061" 
d="M517 674l162 -1c118.667 0 199.834 -19.667 243.501 -59s65.5 -118 65.5 -236v-32c0 -138.667 -17.333 -231.5 -52 -278.5s-122.334 -70.5 -263.001 -70.5l-153 -3l-64 -1l-138 5c-77.333 0 -137 17.5 -179 52.5s-63 91.5 -63 169.5l-2 123
c0 135.333 17.333 223.833 52 265.5s117 62.5 247 62.5zM407 159l108.998 -2.00195l104 1c57.333 0 98.5 6.16699 123.5 18.5s37.5 42.833 37.5 91.5l2 90c0 30.667 -1.83301 56.834 -5.5 78.501s-11.167 37.667 -22.5 48s-28.166 17.166 -50.499 20.499
s-46.166 5 -71.499 5l-202 -1c-46 0 -81 -4.66699 -105 -14s-37.833 -29.166 -41.5 -59.499s-5.5 -55.5 -5.5 -75.5v-18v-27c0 -61.333 7.16699 -102.666 21.5 -123.999s49.833 -32 106.5 -32zM611.998 720.998c-15.333 0 -41 7.16797 -77 21.501s-62.333 21.5 -79 21.5
c-14 0 -24.5 -3.66699 -31.5 -11s-12.167 -18.333 -15.5 -33h-89c7.33301 43.333 20 78.166 38 104.499s46 39.5 84 39.5c19.333 0 46.333 -6.83301 81 -20.5s61 -20.5 79 -20.5c14 0 26 3.83301 36 11.5s15 18.167 15 31.5h90c-4.66699 -39.333 -18.167 -73.333 -40.5 -102
s-52.5 -43 -90.5 -43z" />
    <glyph glyph-name="Odieresis" unicode="&#xd6;" horiz-adv-x="1061" 
d="M517 674l162 -1c118.667 0 199.834 -19.667 243.501 -59s65.5 -118 65.5 -236v-32c0 -138.667 -17.333 -231.5 -52 -278.5s-122.334 -70.5 -263.001 -70.5l-153 -3l-64 -1l-138 5c-77.333 0 -137 17.5 -179 52.5s-63 91.5 -63 169.5l-2 123
c0 135.333 17.333 223.833 52 265.5s117 62.5 247 62.5zM407 159l108.998 -2.00195l104 1c57.333 0 98.5 6.16699 123.5 18.5s37.5 42.833 37.5 91.5l2 90c0 30.667 -1.83301 56.834 -5.5 78.501s-11.167 37.667 -22.5 48s-28.166 17.166 -50.499 20.499
s-46.166 5 -71.499 5l-202 -1c-46 0 -81 -4.66699 -105 -14s-37.833 -29.166 -41.5 -59.499s-5.5 -55.5 -5.5 -75.5v-18v-27c0 -61.333 7.16699 -102.666 21.5 -123.999s49.833 -32 106.5 -32zM354.998 728.998v101h139v-101h-139zM567.998 728.998v101h139v-101h-139z" />
    <glyph glyph-name="multiply" unicode="&#xd7;" 
d="M395 575l63 -63l-147 -146l146 -144l-61 -61l-145 145l-146 -147l-63 63l147 146l-144 144l61 61l143 -145z" />
    <glyph glyph-name="Oslash" unicode="&#xd8;" horiz-adv-x="1061" 
d="M1036 559l-62 -36.001l7 -30c2 -15.333 3.66699 -34.333 5 -57s2 -52.667 2 -90c0 -137.333 -17.667 -229.833 -53 -277.5s-122.666 -71.5 -261.999 -71.5l-154 -4l-178 3c-39.333 0 -75.666 3.83301 -108.999 11.5s-62 21.834 -86 42.501l-121 -70v122l64 37
c-5.33301 13.333 -9 28.5 -11 45.5s-3 33.833 -3 50.5v15l-1 92c0 136.667 17.167 225.667 51.5 267s116.833 62 247.5 62l143 2l163 -1c45.333 0 72.666 -0.333008 81.999 -1s31.166 -3.16699 65.499 -7.5s65.833 -19.833 94.5 -46.5l115 67v-125zM431 507.999
c-27.333 0 -51.001 -1.33301 -71.001 -4s-36.667 -10 -50 -22s-22 -27.333 -26 -46s-6 -41.667 -6 -69c0 -19.333 0.166992 -37.833 0.5 -55.5s1.5 -37.167 3.5 -58.5l1 -4l434 253c-15.333 3.33301 -31.166 5.5 -47.499 6.5s-36.833 1.5 -61.5 1.5zM383.999 158.999
l132.001 -3l90 1c75.333 0 123.666 8.66699 144.999 26s32 61.333 32 132l-3 99l-431 -250z" />
    <glyph glyph-name="Ugrave" unicode="&#xd9;" horiz-adv-x="1030" 
d="M943 286v-39c0 -104 -27.167 -172.5 -81.5 -205.5s-138.166 -49.5 -251.499 -49.5l-166 1c-88 0 -155.333 4.66699 -202 14s-84.334 33 -113.001 71s-43 97.667 -43 179v409h203v-349c0 -66.667 8 -110 24 -130s56.333 -30 121 -30l91 -1l84 1
c55.333 0 90.833 8.66699 106.5 26s23.5 52.333 23.5 105v25v353h204v-380zM621 727l-238 67l39 110l224 -110z" />
    <glyph glyph-name="Uacute" unicode="&#xda;" horiz-adv-x="1030" 
d="M943 286v-39c0 -104 -27.167 -172.5 -81.5 -205.5s-138.166 -49.5 -251.499 -49.5l-166 1c-88 0 -155.333 4.66699 -202 14s-84.334 33 -113.001 71s-43 97.667 -43 179v409h203v-349c0 -66.667 8 -110 24 -130s56.333 -30 121 -30l91 -1l84 1
c55.333 0 90.833 8.66699 106.5 26s23.5 52.333 23.5 105v25v353h204v-380zM408 727l-25 67l224 110l39 -110z" />
    <glyph glyph-name="Ucircumflex" unicode="&#xdb;" horiz-adv-x="1030" 
d="M943 286v-39c0 -104 -27.167 -172.5 -81.5 -205.5s-138.166 -49.5 -251.499 -49.5l-166 1c-88 0 -155.333 4.66699 -202 14s-84.334 33 -113.001 71s-43 97.667 -43 179v409h203v-349c0 -66.667 8 -110 24 -130s56.333 -30 121 -30l91 -1l84 1
c55.333 0 90.833 8.66699 106.5 26s23.5 52.333 23.5 105v25v353h204v-380zM688 723l-176 63l-175 -63l-23 60l200 114l201 -114z" />
    <glyph glyph-name="Udieresis" unicode="&#xdc;" horiz-adv-x="1030" 
d="M943 286v-39c0 -104 -27.167 -172.5 -81.5 -205.5s-138.166 -49.5 -251.499 -49.5l-166 1c-88 0 -155.333 4.66699 -202 14s-84.334 33 -113.001 71s-43 97.667 -43 179v409h203v-349c0 -66.667 8 -110 24 -130s56.333 -30 121 -30l91 -1l84 1
c55.333 0 90.833 8.66699 106.5 26s23.5 52.333 23.5 105v25v353h204v-380zM338 729v101h139v-101h-139zM551 729v101h139v-101h-139z" />
    <glyph glyph-name="Yacute" unicode="&#xdd;" horiz-adv-x="1000" 
d="M980 667l-375 -435v-232h-204v232l-381 435h256l226 -275l224 275h254zM394 727l-25 67l224 110l39 -110z" />
    <glyph glyph-name="Thorn" unicode="&#xde;" horiz-adv-x="951" 
d="M289 586l357 -0.000976562c70 0 128.833 -21.167 176.5 -63.5s71.5 -98.166 71.5 -167.499c0 -70 -22.5 -125 -67.5 -165s-103.167 -60 -174.5 -60h-363v-131h-203v667h203v-80zM619 275.999c24.667 0 45.167 7.16699 61.5 21.5s24.5 33.833 24.5 58.5c0 26 -8 45 -24 57
s-37.667 18 -65 18h-327v-155h330z" />
    <glyph glyph-name="germandbls" unicode="&#xdf;" horiz-adv-x="809" 
d="M250 674c24 3.33301 54.166 5.66797 90.499 7.00098s70.833 2 103.5 2c76 0 138 -8.83301 186 -26.5s72 -57.834 72 -120.501c0 -40.667 -7 -70 -21 -88s-40.667 -32.667 -80 -44c52 -7.33301 89.667 -24.833 113 -52.5s35 -68.167 35 -121.5
c0 -82 -18.833 -142.5 -56.5 -181.5s-98.167 -58.5 -181.5 -58.5c-44 0 -82.667 4.66699 -116 14s-57.166 25 -71.499 47s-23.166 43.333 -26.499 64s-5 44 -5 70h149c0 -24.667 3.83301 -41.167 11.5 -49.5s21.834 -12.5 42.501 -12.5c33.333 0 54.166 9 62.499 27
s12.5 46.333 12.5 85c0 42 -6.5 71.333 -19.5 88s-39.5 25 -79.5 25h-144v119h139c20 0 35.333 2.83301 46 8.5s16 18.5 16 38.5c0 16.667 -5.33301 27.834 -16 33.501s-22.834 9.16699 -36.501 10.5s-27.5 2 -41.5 2h-57c-47.333 0 -80.333 -6.33301 -99 -19
s-28 -42.334 -28 -89.001v-452h-177v481c0 60 14.5 105.5 43.5 136.5s73.5 49.833 133.5 56.5z" />
    <glyph glyph-name="agrave" unicode="&#xe0;" horiz-adv-x="764" 
d="M285 473l181 4c72 0 127.5 -10.667 166.5 -32s58.5 -64.666 58.5 -129.999v-315h-174v76c-13.333 -37.333 -37.5 -61 -72.5 -71s-80.167 -15 -135.5 -15h-32c-74.667 0 -129.5 9.33301 -164.5 28s-52.5 62 -52.5 130c0 49.333 13.5 86.5 40.5 111.5
s65.167 37.5 114.5 37.5c26 2 52.333 3 79 3h27h51c35.333 0 64.5 -3 87.5 -9s42.167 -19.667 57.5 -41v51c0 28 -6 46.833 -18 56.5s-32.333 14.5 -61 14.5l-80 2l-57 -2c-16.667 0 -29 -2.33301 -37 -7s-12 -14.667 -12 -30h-172c0 53.333 19.167 89.666 57.5 108.999
s87.5 29 147.5 29zM350 100l15 0.00195312c38 0 69.167 1.83301 93.5 5.5s40.166 9.16699 47.499 16.5s11 18.666 11 33.999c0 18.667 -7.5 31.167 -22.5 37.5s-33.167 9.5 -54.5 9.5l-99 2c-30.667 0 -56.667 -2.83301 -78 -8.5s-32 -19.834 -32 -42.501
c0 -22 8.33301 -36.5 25 -43.5s38.334 -10.5 65.001 -10.5h29zM489 521.002l-238 67l39 110l224 -110z" />
    <glyph glyph-name="aacute" unicode="&#xe1;" horiz-adv-x="764" 
d="M285 473l181 4c72 0 127.5 -10.667 166.5 -32s58.5 -64.666 58.5 -129.999v-315h-174v76c-13.333 -37.333 -37.5 -61 -72.5 -71s-80.167 -15 -135.5 -15h-32c-74.667 0 -129.5 9.33301 -164.5 28s-52.5 62 -52.5 130c0 49.333 13.5 86.5 40.5 111.5
s65.167 37.5 114.5 37.5c26 2 52.333 3 79 3h27h51c35.333 0 64.5 -3 87.5 -9s42.167 -19.667 57.5 -41v51c0 28 -6 46.833 -18 56.5s-32.333 14.5 -61 14.5l-80 2l-57 -2c-16.667 0 -29 -2.33301 -37 -7s-12 -14.667 -12 -30h-172c0 53.333 19.167 89.666 57.5 108.999
s87.5 29 147.5 29zM350 100l15 0.00195312c38 0 69.167 1.83301 93.5 5.5s40.166 9.16699 47.499 16.5s11 18.666 11 33.999c0 18.667 -7.5 31.167 -22.5 37.5s-33.167 9.5 -54.5 9.5l-99 2c-30.667 0 -56.667 -2.83301 -78 -8.5s-32 -19.834 -32 -42.501
c0 -22 8.33301 -36.5 25 -43.5s38.334 -10.5 65.001 -10.5h29zM276 521.002l-25 67l224 110l39 -110z" />
    <glyph glyph-name="acircumflex" unicode="&#xe2;" horiz-adv-x="764" 
d="M285 473l181 4c72 0 127.5 -10.667 166.5 -32s58.5 -64.666 58.5 -129.999v-315h-174v76c-13.333 -37.333 -37.5 -61 -72.5 -71s-80.167 -15 -135.5 -15h-32c-74.667 0 -129.5 9.33301 -164.5 28s-52.5 62 -52.5 130c0 49.333 13.5 86.5 40.5 111.5
s65.167 37.5 114.5 37.5c26 2 52.333 3 79 3h27h51c35.333 0 64.5 -3 87.5 -9s42.167 -19.667 57.5 -41v51c0 28 -6 46.833 -18 56.5s-32.333 14.5 -61 14.5l-80 2l-57 -2c-16.667 0 -29 -2.33301 -37 -7s-12 -14.667 -12 -30h-172c0 53.333 19.167 89.666 57.5 108.999
s87.5 29 147.5 29zM350 100l15 0.00195312c38 0 69.167 1.83301 93.5 5.5s40.166 9.16699 47.499 16.5s11 18.666 11 33.999c0 18.667 -7.5 31.167 -22.5 37.5s-33.167 9.5 -54.5 9.5l-99 2c-30.667 0 -56.667 -2.83301 -78 -8.5s-32 -19.834 -32 -42.501
c0 -22 8.33301 -36.5 25 -43.5s38.334 -10.5 65.001 -10.5h29zM556 532.002l-176 63l-175 -63l-23 60l200 114l201 -114z" />
    <glyph glyph-name="atilde" unicode="&#xe3;" horiz-adv-x="764" 
d="M285 473l181 4c72 0 127.5 -10.667 166.5 -32s58.5 -64.666 58.5 -129.999v-315h-174v76c-13.333 -37.333 -37.5 -61 -72.5 -71s-80.167 -15 -135.5 -15h-32c-74.667 0 -129.5 9.33301 -164.5 28s-52.5 62 -52.5 130c0 49.333 13.5 86.5 40.5 111.5
s65.167 37.5 114.5 37.5c26 2 52.333 3 79 3h27h51c35.333 0 64.5 -3 87.5 -9s42.167 -19.667 57.5 -41v51c0 28 -6 46.833 -18 56.5s-32.333 14.5 -61 14.5l-80 2l-57 -2c-16.667 0 -29 -2.33301 -37 -7s-12 -14.667 -12 -30h-172c0 53.333 19.167 89.666 57.5 108.999
s87.5 29 147.5 29zM350 100l15 0.00195312c38 0 69.167 1.83301 93.5 5.5s40.166 9.16699 47.499 16.5s11 18.666 11 33.999c0 18.667 -7.5 31.167 -22.5 37.5s-33.167 9.5 -54.5 9.5l-99 2c-30.667 0 -56.667 -2.83301 -78 -8.5s-32 -19.834 -32 -42.501
c0 -22 8.33301 -36.5 25 -43.5s38.334 -10.5 65.001 -10.5h29zM463 526.002c-15.333 0 -41 7.16797 -77 21.501s-62.333 21.5 -79 21.5c-14 0 -24.5 -3.66699 -31.5 -11s-12.167 -18.333 -15.5 -33h-89c7.33301 43.333 20 78.166 38 104.499s46 39.5 84 39.5
c19.333 0 46.333 -6.83301 81 -20.5s61 -20.5 79 -20.5c14 0 26 3.83301 36 11.5s15 18.167 15 31.5h90c-4.66699 -39.333 -18.167 -73.333 -40.5 -102s-52.5 -43 -90.5 -43z" />
    <glyph glyph-name="adieresis" unicode="&#xe4;" horiz-adv-x="764" 
d="M285 473l181 4c72 0 127.5 -10.667 166.5 -32s58.5 -64.666 58.5 -129.999v-315h-174v76c-13.333 -37.333 -37.5 -61 -72.5 -71s-80.167 -15 -135.5 -15h-32c-74.667 0 -129.5 9.33301 -164.5 28s-52.5 62 -52.5 130c0 49.333 13.5 86.5 40.5 111.5
s65.167 37.5 114.5 37.5c26 2 52.333 3 79 3h27h51c35.333 0 64.5 -3 87.5 -9s42.167 -19.667 57.5 -41v51c0 28 -6 46.833 -18 56.5s-32.333 14.5 -61 14.5l-80 2l-57 -2c-16.667 0 -29 -2.33301 -37 -7s-12 -14.667 -12 -30h-172c0 53.333 19.167 89.666 57.5 108.999
s87.5 29 147.5 29zM350 100l15 0.00195312c38 0 69.167 1.83301 93.5 5.5s40.166 9.16699 47.499 16.5s11 18.666 11 33.999c0 18.667 -7.5 31.167 -22.5 37.5s-33.167 9.5 -54.5 9.5l-99 2c-30.667 0 -56.667 -2.83301 -78 -8.5s-32 -19.834 -32 -42.501
c0 -22 8.33301 -36.5 25 -43.5s38.334 -10.5 65.001 -10.5h29zM206 534.002v101h139v-101h-139zM419 534.002v101h139v-101h-139z" />
    <glyph glyph-name="aring" unicode="&#xe5;" horiz-adv-x="764" 
d="M285 473l181 4c72 0 127.5 -10.667 166.5 -32s58.5 -64.666 58.5 -129.999v-315h-174v76c-13.333 -37.333 -37.5 -61 -72.5 -71s-80.167 -15 -135.5 -15h-32c-74.667 0 -129.5 9.33301 -164.5 28s-52.5 62 -52.5 130c0 49.333 13.5 86.5 40.5 111.5
s65.167 37.5 114.5 37.5c26 2 52.333 3 79 3h27h51c35.333 0 64.5 -3 87.5 -9s42.167 -19.667 57.5 -41v51c0 28 -6 46.833 -18 56.5s-32.333 14.5 -61 14.5l-80 2l-57 -2c-16.667 0 -29 -2.33301 -37 -7s-12 -14.667 -12 -30h-172c0 53.333 19.167 89.666 57.5 108.999
s87.5 29 147.5 29zM350 100l15 0.00195312c38 0 69.167 1.83301 93.5 5.5s40.166 9.16699 47.499 16.5s11 18.666 11 33.999c0 18.667 -7.5 31.167 -22.5 37.5s-33.167 9.5 -54.5 9.5l-99 2c-30.667 0 -56.667 -2.83301 -78 -8.5s-32 -19.834 -32 -42.501
c0 -22 8.33301 -36.5 25 -43.5s38.334 -10.5 65.001 -10.5h29zM521 613.002c0 -30 -13.834 -50.668 -41.501 -62.001s-59.5 -17 -95.5 -17c-36.667 0 -69.167 5.33301 -97.5 16s-42.5 31.334 -42.5 62.001c0 27.333 14.833 46.5 44.5 57.5s60.834 16.5 93.501 16.5
c36 0 68.167 -5 96.5 -15s42.5 -29.333 42.5 -58zM383.999 578.001c22.667 0 41.666 2 56.999 6s23 12.667 23 26c0 16 -9.5 25.5 -28.5 28.5s-34.167 4.5 -45.5 4.5h-8c-19.333 0 -37.666 -2.16699 -54.999 -6.5s-26 -13.833 -26 -28.5c0 -12 7.16699 -20 21.5 -24
s30.5 -6 48.5 -6h13z" />
    <glyph glyph-name="ae" unicode="&#xe6;" horiz-adv-x="1207" 
d="M795 96l87.9961 -1.99707c28 0 50.667 3.16699 68 9.5s26 21.166 26 44.499h174c-6 -68.667 -32.667 -112.167 -80 -130.5s-113.333 -27.5 -198 -27.5h-51c-44.667 0 -79.167 1.5 -103.5 4.5s-48.5 8.5 -72.5 16.5s-43 27 -57 57
c-8.66699 -16 -18.834 -28.833 -30.501 -38.5s-28 -17.667 -49 -24s-44.167 -10.5 -69.5 -12.5s-58.333 -3 -99 -3h-18h-15c-39.333 0 -78.666 2.83301 -117.999 8.5s-70 19.834 -92 42.501s-33 55.667 -33 99c0 52.667 11.833 91.5 35.5 116.5s60.834 37.5 111.501 37.5
l96 3l82 -1c38 0 65.5 -2.16699 82.5 -6.5s34.5 -17.833 52.5 -40.5v54c0 26.667 -7.33301 44.167 -22 52.5s-36.667 12.5 -66 12.5l-89 2c-21.333 0 -37.333 -0.5 -48 -1.5s-18.5 -3.16699 -23.5 -6.5s-8.33301 -6.83301 -10 -10.5s-3.16699 -8.83398 -4.5 -15.501h-177
c0 56 18.667 93.5 56 112.5s88 28.5 152 28.5h101c18 0 35.833 -0.166992 53.5 -0.5s38.834 -1.66602 63.501 -3.99902s45.834 -8.33301 63.501 -18s31.167 -26.834 40.5 -51.501c20 32 45.5 52.333 76.5 61s71.5 13 121.5 13h39c128 0 210 -16.333 246 -49
s54 -84.334 54 -155.001l-1 -75h-458c0 -40.667 6.83301 -67.834 20.5 -81.501s40.834 -20.5 81.501 -20.5zM864.996 366.003l-27 0.00195312c-68 0 -108.667 -5.33301 -122 -16s-22 -31.334 -26 -62.001h288c0 15.333 -1.33301 27.833 -4 37.5s-8.66699 17.667 -18 24
s-22 10.666 -38 12.999s-33.667 3.5 -53 3.5zM368.996 98.0049l27.001 -0.000976562c13.333 0 27 0.333008 41 1s27.833 2 41.5 4s24.667 6.33301 33 13s12.5 16.334 12.5 29.001c0 16 -5.83301 28.833 -17.5 38.5s-32.834 14.5 -63.501 14.5h-123
c-29.333 0 -50 -4.16699 -62 -12.5s-18 -19.5 -18 -33.5c0 -21.333 7.5 -35.5 22.5 -42.5s34.833 -10.5 59.5 -10.5z" />
    <glyph glyph-name="ccedilla" unicode="&#xe7;" horiz-adv-x="764" 
d="M663 40c-26 -21.333 -62.832 -34.9971 -110.499 -40.9971s-99.5 -9 -155.5 -9c-80 0 -142 4.66699 -186 14s-79 31.833 -105 67.5s-39 91.5 -39 167.5c0 77.333 14.833 135.166 44.5 173.499s80.834 57.5 153.501 57.5l164 7c98.667 0 170.667 -10.667 216 -32
s68 -75 68 -161h-174c-2 12 -4.33301 21.5 -7 28.5s-8 13.5 -16 19.5s-21.167 10.167 -39.5 12.5s-37.833 3.5 -58.5 3.5h-28c-28 0 -51.833 -1.33301 -71.5 -4s-35.167 -8.33398 -46.5 -17.001s-19.166 -19.667 -23.499 -33s-6.5 -33 -6.5 -59c0 -52 11.667 -84.333 35 -97
s64.333 -19 123 -19c25.333 0 50.666 1.66699 75.999 5s41.666 9.16602 48.999 17.499s11.833 16 13.5 23s2.5 15.833 2.5 26.5h176c0 -36 -3.33301 -65.5 -10 -88.5s-21.334 -43.833 -44.001 -62.5zM295.001 -123.997l139 87l54 -80l-158 -55z" />
    <glyph glyph-name="egrave" unicode="&#xe8;" horiz-adv-x="753" 
d="M434 -10l-167 5.99902c-80 0 -134.5 20.333 -163.5 61s-43.5 104 -43.5 190c0 78.667 15.333 136.167 46 172.5s84 54.5 160 54.5l164 3c49.333 0 90.333 -2.66699 123 -8s60.667 -17.666 84 -36.999s38.833 -43.333 46.5 -72s11.5 -61.334 11.5 -98.001
c0 -8 -0.166992 -17 -0.5 -27s-0.5 -21.333 -0.5 -34h-458c0 -36.667 6.66699 -62.5 20 -77.5s38 -22.5 74 -22.5l98 -2c22 0 40.333 1.33301 55 4s24.5 7.33398 29.5 14.001s8.16699 18.667 9.5 36h172c0 -70 -22.5 -114.667 -67.5 -134s-109.167 -29 -192.5 -29z
M352 372.999c-36.667 0 -65.333 -3.83203 -86 -11.499s-31 -26.834 -31 -57.501l1 -13h287c0 34 -8.33301 56.167 -25 66.5s-43.667 15.5 -81 15.5h-65zM484.001 521l-238 67l39 110l224 -110z" />
    <glyph glyph-name="eacute" unicode="&#xe9;" horiz-adv-x="753" 
d="M434 -10l-167 5.99902c-80 0 -134.5 20.333 -163.5 61s-43.5 104 -43.5 190c0 78.667 15.333 136.167 46 172.5s84 54.5 160 54.5l164 3c49.333 0 90.333 -2.66699 123 -8s60.667 -17.666 84 -36.999s38.833 -43.333 46.5 -72s11.5 -61.334 11.5 -98.001
c0 -8 -0.166992 -17 -0.5 -27s-0.5 -21.333 -0.5 -34h-458c0 -36.667 6.66699 -62.5 20 -77.5s38 -22.5 74 -22.5l98 -2c22 0 40.333 1.33301 55 4s24.5 7.33398 29.5 14.001s8.16699 18.667 9.5 36h172c0 -70 -22.5 -114.667 -67.5 -134s-109.167 -29 -192.5 -29z
M352 372.999c-36.667 0 -65.333 -3.83203 -86 -11.499s-31 -26.834 -31 -57.501l1 -13h287c0 34 -8.33301 56.167 -25 66.5s-43.667 15.5 -81 15.5h-65zM271.001 521l-25 67l224 110l39 -110z" />
    <glyph glyph-name="ecircumflex" unicode="&#xea;" horiz-adv-x="753" 
d="M434 -10l-167 5.99902c-80 0 -134.5 20.333 -163.5 61s-43.5 104 -43.5 190c0 78.667 15.333 136.167 46 172.5s84 54.5 160 54.5l164 3c49.333 0 90.333 -2.66699 123 -8s60.667 -17.666 84 -36.999s38.833 -43.333 46.5 -72s11.5 -61.334 11.5 -98.001
c0 -8 -0.166992 -17 -0.5 -27s-0.5 -21.333 -0.5 -34h-458c0 -36.667 6.66699 -62.5 20 -77.5s38 -22.5 74 -22.5l98 -2c22 0 40.333 1.33301 55 4s24.5 7.33398 29.5 14.001s8.16699 18.667 9.5 36h172c0 -70 -22.5 -114.667 -67.5 -134s-109.167 -29 -192.5 -29z
M352 372.999c-36.667 0 -65.333 -3.83203 -86 -11.499s-31 -26.834 -31 -57.501l1 -13h287c0 34 -8.33301 56.167 -25 66.5s-43.667 15.5 -81 15.5h-65zM551.001 532l-176 63l-175 -63l-23 60l200 114l201 -114z" />
    <glyph glyph-name="edieresis" unicode="&#xeb;" horiz-adv-x="753" 
d="M434 -10l-167 5.99902c-80 0 -134.5 20.333 -163.5 61s-43.5 104 -43.5 190c0 78.667 15.333 136.167 46 172.5s84 54.5 160 54.5l164 3c49.333 0 90.333 -2.66699 123 -8s60.667 -17.666 84 -36.999s38.833 -43.333 46.5 -72s11.5 -61.334 11.5 -98.001
c0 -8 -0.166992 -17 -0.5 -27s-0.5 -21.333 -0.5 -34h-458c0 -36.667 6.66699 -62.5 20 -77.5s38 -22.5 74 -22.5l98 -2c22 0 40.333 1.33301 55 4s24.5 7.33398 29.5 14.001s8.16699 18.667 9.5 36h172c0 -70 -22.5 -114.667 -67.5 -134s-109.167 -29 -192.5 -29z
M352 372.999c-36.667 0 -65.333 -3.83203 -86 -11.499s-31 -26.834 -31 -57.501l1 -13h287c0 34 -8.33301 56.167 -25 66.5s-43.667 15.5 -81 15.5h-65zM201.001 534v101h139v-101h-139zM414.001 534v101h139v-101h-139z" />
    <glyph glyph-name="igrave" unicode="&#xec;" horiz-adv-x="320" 
d="M73 0v467h173v-467h-173zM266 521l-238 67l39 110l224 -110z" />
    <glyph glyph-name="iacute" unicode="&#xed;" horiz-adv-x="320" 
d="M73 0v467h173v-467h-173zM53 521l-25 67l224 110l39 -110z" />
    <glyph glyph-name="icircumflex" unicode="&#xee;" horiz-adv-x="320" 
d="M73 0v467h173v-467h-173zM333 531l-176 63l-175 -63l-23 60l200 114l201 -114z" />
    <glyph glyph-name="idieresis" unicode="&#xef;" horiz-adv-x="320" 
d="M73 0v467h173v-467h-173zM-17 533v101h139v-101h-139zM196 533v101h139v-101h-139z" />
    <glyph glyph-name="eth" unicode="&#xf0;" horiz-adv-x="573" 
d="M224 642l123.998 82.001l33 -53l-88 -55c85.333 -44 149.333 -95.167 192 -153.5s64 -132.833 64 -223.5c0 -74 -25.667 -135 -77 -183s-114.666 -72 -189.999 -72s-137.166 25.167 -185.499 75.5s-72.5 113.166 -72.5 188.499c0 72 24.167 130.333 72.5 175
s108.5 67 180.5 67c-14.667 16 -27 28.667 -37 38s-22.667 19 -38 29l-113 -74l-34 52l89 55c-32.667 16 -70 27.667 -112 35l23 57c32 -4.66699 61.833 -10 89.5 -16s54.167 -14 79.5 -24zM284.998 103.001c34.667 0 58.334 13.333 71.001 40s19 60 19 100
c0 38.667 -4.5 72 -13.5 100s-28.833 42 -59.5 42c-36 0 -62.333 -13.333 -79 -40s-25 -59.667 -25 -99c0 -50.667 8.16699 -87.167 24.5 -109.5s37.166 -33.5 62.499 -33.5z" />
    <glyph glyph-name="ntilde" unicode="&#xf1;" horiz-adv-x="781" 
d="M246 371c14.667 42.667 38.666 71 71.999 85s76.333 21 129 21c94.667 0 161.834 -15.5 201.501 -46.5s59.5 -92.833 59.5 -185.5v-245h-174v245c0 41.333 -8.5 68 -25.5 80s-48.5 18 -94.5 18h-20c-51.333 0 -88.833 -7.5 -112.5 -22.5s-35.5 -48.5 -35.5 -100.5v-11
v-209h-173v467h173v-96zM470.999 526c-15.333 0 -41 7.16797 -77 21.501s-62.333 21.5 -79 21.5c-14 0 -24.5 -3.66699 -31.5 -11s-12.167 -18.333 -15.5 -33h-89c7.33301 43.333 20 78.166 38 104.499s46 39.5 84 39.5c19.333 0 46.333 -6.83301 81 -20.5
s61 -20.5 79 -20.5c14 0 26 3.83301 36 11.5s15 18.167 15 31.5h90c-4.66699 -39.333 -18.167 -73.333 -40.5 -102s-52.5 -43 -90.5 -43z" />
    <glyph glyph-name="ograve" unicode="&#xf2;" horiz-adv-x="789" 
d="M386 476l180.998 -6.99805c62.667 -7.33301 106.167 -26.5 130.5 -57.5s36.5 -79.167 36.5 -144.5v-20c0 -94.667 -10.667 -158.334 -32 -191.001s-79.333 -53.334 -174 -62.001l-190 -4c-101.333 0 -172.166 13 -212.499 39s-60.5 86.333 -60.5 181v28
c0 59.333 5.33301 106 16 140s34.167 57.833 70.5 71.5s78.333 21.5 126 23.5s83.834 3 108.501 3zM388.998 118.002l19.002 0.000976562c32 0 57.833 1 77.5 3s34.667 6.83301 45 14.5s17.666 17.334 21.999 29.001s6.5 29.5 6.5 53.5v35c0 21.333 -2 37.166 -6 47.499
s-11.667 19.5 -23 27.5s-29 13.333 -53 16s-51.333 4 -82 4s-56.667 -1.5 -78 -4.5s-38.5 -9.83301 -51.5 -20.5s-20.5 -25.834 -22.5 -45.501s-3 -35.167 -3 -46.5c0 -20 1.66699 -38.5 5 -55.5s10.666 -29.833 21.999 -38.5s31.5 -14 60.5 -16s49.5 -3 61.5 -3z
M506 521.003l-238 67l39 110l224 -110z" />
    <glyph glyph-name="oacute" unicode="&#xf3;" horiz-adv-x="789" 
d="M386 476l180.998 -6.99805c62.667 -7.33301 106.167 -26.5 130.5 -57.5s36.5 -79.167 36.5 -144.5v-20c0 -94.667 -10.667 -158.334 -32 -191.001s-79.333 -53.334 -174 -62.001l-190 -4c-101.333 0 -172.166 13 -212.499 39s-60.5 86.333 -60.5 181v28
c0 59.333 5.33301 106 16 140s34.167 57.833 70.5 71.5s78.333 21.5 126 23.5s83.834 3 108.501 3zM388.998 118.002l19.002 0.000976562c32 0 57.833 1 77.5 3s34.667 6.83301 45 14.5s17.666 17.334 21.999 29.001s6.5 29.5 6.5 53.5v35c0 21.333 -2 37.166 -6 47.499
s-11.667 19.5 -23 27.5s-29 13.333 -53 16s-51.333 4 -82 4s-56.667 -1.5 -78 -4.5s-38.5 -9.83301 -51.5 -20.5s-20.5 -25.834 -22.5 -45.501s-3 -35.167 -3 -46.5c0 -20 1.66699 -38.5 5 -55.5s10.666 -29.833 21.999 -38.5s31.5 -14 60.5 -16s49.5 -3 61.5 -3z
M293 521.003l-25 67l224 110l39 -110z" />
    <glyph glyph-name="ocircumflex" unicode="&#xf4;" horiz-adv-x="789" 
d="M386 476l180.998 -6.99805c62.667 -7.33301 106.167 -26.5 130.5 -57.5s36.5 -79.167 36.5 -144.5v-20c0 -94.667 -10.667 -158.334 -32 -191.001s-79.333 -53.334 -174 -62.001l-190 -4c-101.333 0 -172.166 13 -212.499 39s-60.5 86.333 -60.5 181v28
c0 59.333 5.33301 106 16 140s34.167 57.833 70.5 71.5s78.333 21.5 126 23.5s83.834 3 108.501 3zM388.998 118.002l19.002 0.000976562c32 0 57.833 1 77.5 3s34.667 6.83301 45 14.5s17.666 17.334 21.999 29.001s6.5 29.5 6.5 53.5v35c0 21.333 -2 37.166 -6 47.499
s-11.667 19.5 -23 27.5s-29 13.333 -53 16s-51.333 4 -82 4s-56.667 -1.5 -78 -4.5s-38.5 -9.83301 -51.5 -20.5s-20.5 -25.834 -22.5 -45.501s-3 -35.167 -3 -46.5c0 -20 1.66699 -38.5 5 -55.5s10.666 -29.833 21.999 -38.5s31.5 -14 60.5 -16s49.5 -3 61.5 -3z
M573 531.003l-176 63l-175 -63l-23 60l200 114l201 -114z" />
    <glyph glyph-name="otilde" unicode="&#xf5;" horiz-adv-x="789" 
d="M386 476l180.998 -6.99805c62.667 -7.33301 106.167 -26.5 130.5 -57.5s36.5 -79.167 36.5 -144.5v-20c0 -94.667 -10.667 -158.334 -32 -191.001s-79.333 -53.334 -174 -62.001l-190 -4c-101.333 0 -172.166 13 -212.499 39s-60.5 86.333 -60.5 181v28
c0 59.333 5.33301 106 16 140s34.167 57.833 70.5 71.5s78.333 21.5 126 23.5s83.834 3 108.501 3zM388.998 118.002l19.002 0.000976562c32 0 57.833 1 77.5 3s34.667 6.83301 45 14.5s17.666 17.334 21.999 29.001s6.5 29.5 6.5 53.5v35c0 21.333 -2 37.166 -6 47.499
s-11.667 19.5 -23 27.5s-29 13.333 -53 16s-51.333 4 -82 4s-56.667 -1.5 -78 -4.5s-38.5 -9.83301 -51.5 -20.5s-20.5 -25.834 -22.5 -45.501s-3 -35.167 -3 -46.5c0 -20 1.66699 -38.5 5 -55.5s10.666 -29.833 21.999 -38.5s31.5 -14 60.5 -16s49.5 -3 61.5 -3z
M480 526.003c-15.333 0 -41 7.16797 -77 21.501s-62.333 21.5 -79 21.5c-14 0 -24.5 -3.66699 -31.5 -11s-12.167 -18.333 -15.5 -33h-89c7.33301 43.333 20 78.166 38 104.499s46 39.5 84 39.5c19.333 0 46.333 -6.83301 81 -20.5s61 -20.5 79 -20.5
c14 0 26 3.83301 36 11.5s15 18.167 15 31.5h90c-4.66699 -39.333 -18.167 -73.333 -40.5 -102s-52.5 -43 -90.5 -43z" />
    <glyph glyph-name="odieresis" unicode="&#xf6;" horiz-adv-x="789" 
d="M386 476l180.998 -6.99805c62.667 -7.33301 106.167 -26.5 130.5 -57.5s36.5 -79.167 36.5 -144.5v-20c0 -94.667 -10.667 -158.334 -32 -191.001s-79.333 -53.334 -174 -62.001l-190 -4c-101.333 0 -172.166 13 -212.499 39s-60.5 86.333 -60.5 181v28
c0 59.333 5.33301 106 16 140s34.167 57.833 70.5 71.5s78.333 21.5 126 23.5s83.834 3 108.501 3zM388.998 118.002l19.002 0.000976562c32 0 57.833 1 77.5 3s34.667 6.83301 45 14.5s17.666 17.334 21.999 29.001s6.5 29.5 6.5 53.5v35c0 21.333 -2 37.166 -6 47.499
s-11.667 19.5 -23 27.5s-29 13.333 -53 16s-51.333 4 -82 4s-56.667 -1.5 -78 -4.5s-38.5 -9.83301 -51.5 -20.5s-20.5 -25.834 -22.5 -45.501s-3 -35.167 -3 -46.5c0 -20 1.66699 -38.5 5 -55.5s10.666 -29.833 21.999 -38.5s31.5 -14 60.5 -16s49.5 -3 61.5 -3z
M223 533.003v101h139v-101h-139zM436 533.003v101h139v-101h-139z" />
    <glyph glyph-name="divide" unicode="&#xf7;" 
d="M496 324h-493v86h493v-86zM250 470c-17.333 0 -32.333 6.33301 -45 19s-19 27.667 -19 45s6.33301 32.333 19 45s27.667 19 45 19s32.333 -6.33301 45 -19s19 -27.667 19 -45s-6.33301 -32.333 -19 -45s-27.667 -19 -45 -19zM249 135c-17.333 0 -32.333 6.33301 -45 19
s-19 27.667 -19 45s6.33301 32.333 19 45s27.667 19 45 19c18 0 33.333 -6.33301 46 -19s19 -27.667 19 -45s-6.33301 -32.333 -19 -45s-28 -19 -46 -19z" />
    <glyph glyph-name="oslash" unicode="&#xf8;" horiz-adv-x="789" 
d="M765 395l-48.001 -26.9971c4.66699 -14.667 7.83398 -30.334 9.50098 -47.001s2.5 -36 2.5 -58v-16c0 -96 -11.167 -162.167 -33.5 -198.5s-79.833 -54.5 -172.5 -54.5l-143 -4h-50c-51.333 0 -94 2.66699 -128 8s-62.667 17 -86 35l-92 -52v94l47 26
c-4.66699 13.333 -7.66699 28.166 -9 44.499s-2 33.5 -2 51.5v57c0 53.333 5.5 95.833 16.5 127.5s34.5 54.334 70.5 68.001s77.833 21.5 125.5 23.5s83.5 3 107.5 3c44.667 0 84.667 -0.833008 120 -2.5s67.833 -4.83398 97.5 -9.50098s53.5 -14.334 71.5 -29.001l96 54
v-94zM259.999 322.003c-11.333 -8.66699 -18.334 -20.5 -21.001 -35.5s-4 -33.5 -4 -55.5c0 -15.333 1 -30 3 -44l265 150c-16 4 -33.5 6.83301 -52.5 8.5s-39.167 2.5 -60.5 2.5c-38.667 0 -67.167 -2 -85.5 -6s-33.166 -10.667 -44.499 -20zM392.998 118.003
l12.001 -0.000976562c31.333 0 59.666 2.16699 84.999 6.5s42.333 14.5 51 30.5s13 37.333 13 64v17v18v15c-1.33301 6.66699 -2 11.334 -2 14.001l-274 -154c16 -4 33.833 -6.83301 53.5 -8.5s40.167 -2.5 61.5 -2.5z" />
    <glyph glyph-name="ugrave" unicode="&#xf9;" horiz-adv-x="787" 
d="M541 0v95.999c-10.667 -42 -35.5 -70.167 -74.5 -84.5s-85.167 -21.5 -138.5 -21.5c-86.667 0 -150.667 15.167 -192 45.5s-62 87.5 -62 171.5v260h173v-244c0 -44.667 11 -73.167 33 -85.5s57.667 -18.5 107 -18.5c54 0 93.167 8.83301 117.5 26.5
s36.5 51.834 36.5 102.501v14v205h173v-467h-173zM501 520.999l-238 67l39 110l224 -110z" />
    <glyph glyph-name="uacute" unicode="&#xfa;" horiz-adv-x="787" 
d="M541 0v95.999c-10.667 -42 -35.5 -70.167 -74.5 -84.5s-85.167 -21.5 -138.5 -21.5c-86.667 0 -150.667 15.167 -192 45.5s-62 87.5 -62 171.5v260h173v-244c0 -44.667 11 -73.167 33 -85.5s57.667 -18.5 107 -18.5c54 0 93.167 8.83301 117.5 26.5
s36.5 51.834 36.5 102.501v14v205h173v-467h-173zM288 520.999l-25 67l224 110l39 -110z" />
    <glyph glyph-name="ucircumflex" unicode="&#xfb;" horiz-adv-x="787" 
d="M541 0v95.999c-10.667 -42 -35.5 -70.167 -74.5 -84.5s-85.167 -21.5 -138.5 -21.5c-86.667 0 -150.667 15.167 -192 45.5s-62 87.5 -62 171.5v260h173v-244c0 -44.667 11 -73.167 33 -85.5s57.667 -18.5 107 -18.5c54 0 93.167 8.83301 117.5 26.5
s36.5 51.834 36.5 102.501v14v205h173v-467h-173zM568 530.999l-176 63l-175 -63l-23 60l200 114l201 -114z" />
    <glyph glyph-name="udieresis" unicode="&#xfc;" horiz-adv-x="787" 
d="M541 0v95.999c-10.667 -42 -35.5 -70.167 -74.5 -84.5s-85.167 -21.5 -138.5 -21.5c-86.667 0 -150.667 15.167 -192 45.5s-62 87.5 -62 171.5v260h173v-244c0 -44.667 11 -73.167 33 -85.5s57.667 -18.5 107 -18.5c54 0 93.167 8.83301 117.5 26.5
s36.5 51.834 36.5 102.501v14v205h173v-467h-173zM218 532.999v101h139v-101h-139zM431 532.999v101h139v-101h-139z" />
    <glyph glyph-name="yacute" unicode="&#xfd;" horiz-adv-x="742" 
d="M242 -212l-65 4v118l38 -1c32.667 0 55 6.16699 67 18.5s25.333 36.5 40 72.5h-71l-214 467h192l137 -344l151 344h192l-274 -583c-20 -42 -43.5 -68.5 -70.5 -79.5s-67.833 -16.5 -122.5 -16.5zM265 521l-25 67l224 110l39 -110z" />
    <glyph glyph-name="thorn" unicode="&#xfe;" horiz-adv-x="803" 
d="M246 392c6.66699 15.333 14.334 28.666 23.001 39.999s21.667 20.333 39 27s38.166 11.334 62.499 14.001s52.833 4 85.5 4c101.333 0 174.333 -11.5 219 -34.5s67 -79.833 67 -170.5v-57c0 -38 -2.33301 -70 -7 -96s-17.5 -50.5 -38.5 -73.5s-51.667 -38 -92 -45
s-89.166 -10.5 -146.499 -10.5c-52.667 0 -96.834 5.5 -132.501 16.5s-62.167 35.167 -79.5 72.5v-286h-173v874h173v-275zM429 119c58 0 95.666 7.16895 112.999 21.502s26 48.833 26 103.5c0 38 -6.33301 64.5 -19 79.5s-38.667 22.5 -78 22.5l-114 2
c-24.667 0 -43 -1.33301 -55 -4s-22.5 -7.33398 -31.5 -14.001s-15.167 -16.667 -18.5 -30s-5 -29 -5 -47v-18c0 -40.667 6.33301 -69.834 19 -87.501s38.334 -26.5 77.001 -26.5z" />
    <glyph glyph-name="ydieresis" unicode="&#xff;" horiz-adv-x="742" 
d="M242 -212l-65 4v118l38 -1c32.667 0 55 6.16699 67 18.5s25.333 36.5 40 72.5h-71l-214 467h192l137 -344l151 344h192l-274 -583c-20 -42 -43.5 -68.5 -70.5 -79.5s-67.833 -16.5 -122.5 -16.5zM195 534v101h139v-101h-139zM408 534v101h139v-101h-139z" />
    <glyph glyph-name="OE" unicode="&#x152;" horiz-adv-x="1565" 
d="M1469 401v-131.999h-506v-118h539v-151h-728v74c-18 -30.667 -41.833 -51.5 -71.5 -62.5s-65.167 -16.5 -106.5 -16.5l-148 -2h-21c-45.333 0 -98.166 3 -158.499 9s-107.333 26 -141 60s-50.5 87.667 -50.5 161c0 12.667 -0.666992 34 -2 64s-2 46.333 -2 49
c0 123.333 17.333 210.166 52 260.499s109.667 75.5 225 75.5l172 1h49c16 0 38.333 -1.33301 67 -4s53.667 -9.16699 75 -19.5s41.666 -29.833 60.999 -58.5v75h728v-151h-539v-114h506zM366 163.001l144 -7.00195l99 1c74.667 0 120.667 10 138 30s26 68 26 144v12
c0 17.333 -0.333008 32.666 -1 45.999s-2.5 28.333 -5.5 45s-8.5 30 -16.5 40s-19 16.833 -33 20.5s-27.5 5.83398 -40.5 6.50098s-27.5 1 -43.5 1l-115 2l-137 -2c-44 -4 -72.167 -15.333 -84.5 -34s-18.5 -53.667 -18.5 -105v-28v-20c0 -47.333 5 -83.166 15 -107.499
s34.333 -39.166 73 -44.499z" />
    <glyph glyph-name="oe" unicode="&#x153;" horiz-adv-x="1238" 
d="M815 99l88.9971 -3.00195c16 0 31.5 0.833008 46.5 2.5s28.5 5.33398 40.5 11.001s18 18.167 18 37.5h171c0 -48 -17.5 -86.167 -52.5 -114.5s-98.5 -42.5 -190.5 -42.5l-169 4c-34.667 3.33301 -61.834 9.66602 -81.501 18.999s-36.5 27 -50.5 53
c-17.333 -28 -39.166 -47.5 -65.499 -58.5s-58.833 -16.5 -97.5 -16.5l-140 -1c-64.667 0 -118.167 6.5 -160.5 19.5s-70 34.667 -83 65s-20.667 56.5 -23 78.5s-3.5 45.333 -3.5 70c0 84 10.333 144.333 31 181s56.834 57.667 108.501 63s89.334 8.33301 113.001 9
s51.834 1 84.501 1h24c30.667 0 57 -0.833008 79 -2.5s46.167 -6.16699 72.5 -13.5s46.5 -25.666 60.5 -54.999c16 28.667 40 47.834 72 57.501s69.333 14.5 112 14.5l58 -1c74 0 131 -3.83301 171 -11.5s72 -27 96 -58s36 -80.167 36 -147.5l-1 -58h-458
c0 -38.667 6.5 -65.5 19.5 -80.5s37.5 -22.5 73.5 -22.5zM899.997 373.998l-33.002 0.000976562c-15.333 0 -30.166 -0.166992 -44.499 -0.5s-34.166 -3 -59.499 -8s-40 -25.167 -44 -60.5l-1 -13h291c0 15.333 -1.5 28.5 -4.5 39.5s-9 19.667 -18 26
s-21.167 10.666 -36.5 12.999s-32 3.5 -50 3.5zM402.995 118.999c60.667 0 101.667 6 123 18s32 44.333 32 97c0 48 -8.5 79.833 -25.5 95.5s-51.5 23.5 -103.5 23.5h-62c-26 0 -47.833 -1.33301 -65.5 -4s-32 -8.16699 -43 -16.5s-18 -19.833 -21 -34.5
s-4.5 -30.667 -4.5 -48v-7c0 -55.333 10.667 -89.833 32 -103.5s61.333 -20.5 120 -20.5h18z" />
    <glyph glyph-name="Scaron" unicode="&#x160;" horiz-adv-x="983" 
d="M279 202c0 -27.333 9.16895 -44.498 27.502 -51.498s43.833 -10.5 76.5 -10.5l96 -1l136 4c37.333 0 61.666 4.66699 72.999 14s17 24 17 44c0 18 -6.5 32.333 -19.5 43s-37.833 16 -74.5 16h-33l-334 7c-62.667 0 -106.834 15.833 -132.501 47.5
s-38.5 80.167 -38.5 145.5c0 55.333 8.16699 98.333 24.5 129s46 51.5 89 62.5s99.333 17.5 169 19.5s116.5 3 140.5 3l142 -2c56.667 0 102.334 -4.5 137.001 -13.5s59.167 -25.5 73.5 -49.5s23.5 -45.667 27.5 -65s6 -46 6 -80h-199
c0 23.333 -6.83301 39.666 -20.5 48.999s-32.834 14 -57.501 14l-98 1l-155 -5c-20.667 0 -38.167 -3.83301 -52.5 -11.5s-21.5 -20.5 -21.5 -38.5c0 -24.667 8.5 -40.834 25.5 -48.501s40.167 -11.5 69.5 -11.5h21l136 -2l134 -1c86 0 148.5 -13.5 187.5 -40.5
s58.5 -81.167 58.5 -162.5c0 -78.667 -17.5 -132.667 -52.5 -162s-92.833 -44 -173.5 -44l-260 -7l-136 3c-72 0 -125 11.667 -159 35s-51 70.333 -51 141v40h200zM318.002 898.002l176 -63l175 63l23 -60l-200 -114l-201 114z" />
    <glyph glyph-name="scaron" unicode="&#x161;" horiz-adv-x="771" 
d="M479 366c-9.33301 2.66699 -18.999 4.33496 -28.999 5.00195s-22 1 -36 1h-75c-11.333 0 -22 -0.166992 -32 -0.5s-20.5 -1.33301 -31.5 -3s-20 -5.83398 -27 -12.501s-10.5 -15 -10.5 -25c0 -13.333 5.33301 -22 16 -26s24.667 -6 42 -6l191 -1
c74.667 0 130.667 -7.5 168 -22.5s56 -53.5 56 -115.5c0 -39.333 -5.33301 -70 -16 -92s-31.167 -38.833 -61.5 -50.5s-66.333 -19.167 -108 -22.5s-86.834 -5 -135.501 -5h-73c-82.667 0 -146.167 8.66699 -190.5 26s-66.5 60 -66.5 128h181
c0 -21.333 7.83301 -34.166 23.5 -38.499s29.334 -6.83301 41.001 -7.5s25.5 -1 41.5 -1l82 -1c18 0 34.333 0.666992 49 2s28.167 4.5 40.5 9.5s18.5 16.833 18.5 35.5c0 14.667 -5.66699 24.167 -17 28.5s-26 6.5 -44 6.5h-130l-148 4c-90 8 -135 55.333 -135 142
c0 54.667 16.333 91.667 49 111s79.667 31.666 141 36.999l169 4c38.667 0 67.667 -0.5 87 -1.5s45.666 -4.33301 78.999 -10s58.333 -18.334 75 -38.001s25 -48.5 25 -86.5h-182c-2 14 -11 22.667 -27 26zM212.001 705.001l176 -63l175 63l23 -60l-200 -114l-201 114z" />
    <glyph glyph-name="Ydieresis" unicode="&#x178;" horiz-adv-x="1000" 
d="M980 667l-375 -435v-232h-204v232l-381 435h256l226 -275l224 275h254zM324 729v101h139v-101h-139zM537 729v101h139v-101h-139z" />
    <glyph glyph-name="florin" unicode="&#x192;" horiz-adv-x="953" 
d="M260 -137l-110.001 4l20 113l67 -1c42 0 69.667 6.33301 83 19s23.666 39.667 30.999 81l52 295h-111l19 110h112l14 91c6.66699 34 18.334 65 35.001 93s44.334 46.333 83.001 55s85 13 139 13l110 -4l-20 -113l-67 1c-34.667 0 -60.5 -4.66699 -77.5 -14
s-27.833 -29.333 -32.5 -60l-11 -62h164l-19 -110h-164l-56 -318c-14.667 -80.667 -40 -133 -76 -157s-97.667 -36 -185 -36z" />
    <glyph glyph-name="circumflex" unicode="&#x2c6;" 
d="M424 532l-176 63l-175 -63l-23 60l200 114l201 -114z" />
    <glyph glyph-name="endash" unicode="&#x2013;" horiz-adv-x="953" 
d="M157 156v170h638v-170h-638z" />
    <glyph glyph-name="emdash" unicode="&#x2014;" horiz-adv-x="1038" 
d="M20 156v170h998v-170h-998z" />
    <glyph glyph-name="quoteleft" unicode="&#x2018;" horiz-adv-x="318" 
d="M228 668h27.499c9 0 18.5 -1 28.5 -3v-105l-21 2c-23.333 0 -39.666 -6.16699 -48.999 -18.5s-14 -30.5 -14 -54.5h56v-185h-201v185c0 66.667 12.5 113.167 37.5 139.5s70.167 39.5 135.5 39.5z" />
    <glyph glyph-name="quoteright" unicode="&#x2019;" horiz-adv-x="322" 
d="M93 303h-14.999c-15.333 0 -30 1 -44 3v104l21 -2c23.333 0 39.666 6.16699 48.999 18.5s14 30.5 14 54.5h-56v186h201v-186c0 -64 -12 -109.667 -36 -137s-68.667 -41 -134 -41z" />
    <glyph glyph-name="quotesinglbase" unicode="&#x201a;" horiz-adv-x="322" 
d="M93 -178h-14.999c-15.333 0 -30 1 -44 3v104l21 -2c23.333 0 39.666 6.16699 48.999 18.5s14 30.5 14 54.5h-56v186h201v-186c0 -64.667 -12.167 -110.5 -36.5 -137.5s-68.833 -40.5 -133.5 -40.5z" />
    <glyph glyph-name="quotedblleft" unicode="&#x201c;" horiz-adv-x="588" 
d="M498 668h27.499c9 0 18.5 -1 28.5 -3v-105l-21 2c-23.333 0 -39.666 -6.16699 -48.999 -18.5s-14 -30.5 -14 -54.5h56v-185h-201v185c0 66.667 12.5 113.167 37.5 139.5s70.167 39.5 135.5 39.5zM227.999 668h27.499c9 0 18.5 -1 28.5 -3v-105l-21 2
c-23.333 0 -39.666 -6.16699 -48.999 -18.5s-14 -30.5 -14 -54.5h56v-185h-201v185c0 66.667 12.5 113.167 37.5 139.5s70.167 39.5 135.5 39.5z" />
    <glyph glyph-name="quotedblright" unicode="&#x201d;" horiz-adv-x="592" 
d="M93 303h-14.999c-15.333 0 -30 1 -44 3v104l21 -2c23.333 0 39.666 6.16699 48.999 18.5s14 30.5 14 54.5h-56v186h201v-186c0 -64 -12 -109.667 -36 -137s-68.667 -41 -134 -41zM363.001 303h-14.999c-15.333 0 -30 1 -44 3v104l21 -2
c23.333 0 39.666 6.16699 48.999 18.5s14 30.5 14 54.5h-56v186h201v-186c0 -66 -10.5 -112.167 -31.5 -138.5s-67.167 -39.5 -138.5 -39.5z" />
    <glyph glyph-name="quotedblbase" unicode="&#x201e;" horiz-adv-x="592" 
d="M93 -178h-14.999c-15.333 0 -30 1 -44 3v104l21 -2c23.333 0 39.666 6.16699 48.999 18.5s14 30.5 14 54.5h-56v186h201v-186c0 -64.667 -12.167 -110.5 -36.5 -137.5s-68.833 -40.5 -133.5 -40.5zM363.001 -178h-14.999c-15.333 0 -30 1 -44 3v104l21 -2
c23.333 0 39.666 6.16699 48.999 18.5s14 30.5 14 54.5h-56v186h201v-186c0 -65.333 -11.833 -111.333 -35.5 -138s-68.5 -40 -134.5 -40z" />
    <glyph glyph-name="dagger" unicode="&#x2020;" horiz-adv-x="953" 
d="M858 470v-128h-291v-558h-181v558h-291v128h291v197h181v-197h291z" />
    <glyph glyph-name="daggerdbl" unicode="&#x2021;" horiz-adv-x="953" 
d="M858 470v-128h-291v-223h291v-128h-291v-207h-181v207h-291v128h291v223h-291v128h291v197h181v-197h291z" />
    <glyph glyph-name="bullet" unicode="&#x2022;" horiz-adv-x="600" 
d="M392 286c0 -26.667 -9.33301 -49.334 -28 -68.001s-42 -28 -70 -28c-26.667 0 -49.334 9.33301 -68.001 28s-28 41.334 -28 68.001s9.33301 49.334 28 68.001s41.334 28 68.001 28s49.667 -9.33301 69 -28s29 -41.334 29 -68.001z" />
    <glyph glyph-name="ellipsis" unicode="&#x2026;" horiz-adv-x="996" 
d="M66 0v186h199v-186h-199zM398 0v186h199v-186h-199zM730 0v186h199v-186h-199z" />
    <glyph glyph-name="perthousand" unicode="&#x2030;" horiz-adv-x="1573" 
d="M304 669c65.333 0 109.5 -9.66797 132.5 -29.001s34.5 -61.666 34.5 -126.999v-30c0 -59.333 -8.66699 -99.333 -26 -120s-63 -31 -137 -31l-113 -1c-58.667 0 -98.834 9.5 -120.501 28.5s-32.5 57.167 -32.5 114.5v27c0 66.667 8.83301 111 26.5 133
s58.834 33 123.501 33zM258 416.999c49.333 0 79.668 3.66699 91.001 11s17 31.333 17 72c0 34 -4.5 57 -13.5 69s-29.833 18 -62.5 18l-65 -1c-17.333 0 -29.833 -0.5 -37.5 -1.5s-14.834 -3.66699 -21.501 -8s-11.5 -11.333 -14.5 -21s-4.5 -24.167 -4.5 -43.5v-12
c0 -34.667 3.66699 -57.167 11 -67.5s27 -15.5 59 -15.5h41zM316.002 -0.000976562h-92l555 667h92zM886.002 335.999c66.667 0 111.165 -10.168 133.498 -30.501s33.5 -62.166 33.5 -125.499v-34c0 -31.333 -2.66699 -57.833 -8 -79.5s-15 -36.667 -29 -45
s-30.833 -14.333 -50.5 -18s-47.5 -5.5 -83.5 -5.5l-99 -1c-57.333 0 -98.166 8 -122.499 24s-36.5 56 -36.5 120v27c0 66.667 8.83301 111 26.5 133s58.834 33 123.501 33zM840 82.998l46 1.99902c28.667 0 46.167 5.33301 52.5 16s9.5 31 9.5 61v29
c0 12.667 -1.16699 23.334 -3.5 32.001s-7.16602 15.167 -14.499 19.5s-15.5 7.33301 -24.5 9s-20.167 2.5 -33.5 2.5l-65 -1c-17.333 0 -29.833 -0.5 -37.5 -1.5s-14.834 -3.66699 -21.501 -8s-11.5 -11.333 -14.5 -21s-4.5 -24.167 -4.5 -43.5v-12
c0 -35.333 3.5 -58 10.5 -68s27.167 -15 60.5 -15zM1373 335.997c66.667 0 111.166 -10.1689 133.499 -30.502s33.5 -62.166 33.5 -125.499v-34c0 -31.333 -2.66699 -57.833 -8 -79.5s-15 -36.667 -29 -45s-30.833 -14.333 -50.5 -18s-47.5 -5.5 -83.5 -5.5l-99 -1
c-34 0 -59.167 1.83301 -75.5 5.5s-31.833 9.83398 -46.5 18.501s-24.5 23.167 -29.5 43.5s-7.5 45.833 -7.5 76.5v27c0 66.667 8.83301 111 26.5 133s58.834 33 123.501 33zM1327 82.9951l46.001 2c28.667 0 46.167 5.33301 52.5 16s9.5 31 9.5 61v28
c0 12.667 -1.16699 23.5 -3.5 32.5s-7.33301 15.667 -15 20s-16 7.33301 -25 9s-19.833 2.5 -32.5 2.5l-65 -1c-17.333 0 -29.833 -0.5 -37.5 -1.5s-14.834 -3.66699 -21.501 -8s-11.5 -11.333 -14.5 -21s-4.5 -24.167 -4.5 -43.5v-12c0 -35.333 3.5 -58 10.5 -68
s27.167 -15 60.5 -15z" />
    <glyph glyph-name="guilsinglleft" unicode="&#x2039;" horiz-adv-x="361" 
d="M300 70l-123 -68l-144 241l144 247l124 -70l-104 -177z" />
    <glyph glyph-name="guilsinglright" unicode="&#x203a;" horiz-adv-x="361" 
d="M328 243l-145 -241l-123 68l104 173l-104 177l123 70z" />
    <glyph glyph-name="trademark" unicode="&#x2122;" horiz-adv-x="1371" 
d="M206 267v295h-185v105h503v-105h-184v-295h-134zM1186 267v289l-176 -289h-106l-174 289v-289h-127v400h207l149 -256l148 256h205v-400h-126z" />
    <glyph glyph-name="glyph1" horiz-adv-x="0" 
 />
    <glyph glyph-name="glyph2" horiz-adv-x="250" 
 />
    <glyph glyph-name="fraction" horiz-adv-x="225" 
d="M-114 0h-101l555 667h100z" />
    <glyph glyph-name="fi" horiz-adv-x="837" 
d="M312 352v-352.003h-174v352h-91v115h91c0 84.667 16.5 141.834 49.5 171.501s92.167 44.5 177.5 44.5c15.333 0 36.333 -0.833008 63 -2.5s42.667 -2.5 48 -2.5v-113l-68 2c-22 0 -38.5 -1.66699 -49.5 -5s-20.167 -8.16602 -27.5 -14.499s-12.5 -14.166 -15.5 -23.499
s-4.5 -24.333 -4.5 -45l1 -12h175v-115h-175zM590 540.997v126h174v-126h-174zM590 -0.00292969v467h174v-467h-174z" />
    <glyph glyph-name="fl" horiz-adv-x="837" 
d="M312 352v-352.003h-174v352h-91v115h91c0 84.667 16.5 141.834 49.5 171.501s92.167 44.5 177.5 44.5c15.333 0 36.333 -0.833008 63 -2.5s42.667 -2.5 48 -2.5v-113l-68 2c-22 0 -38.5 -1.66699 -49.5 -5s-20.167 -8.16602 -27.5 -14.499s-12.5 -14.166 -15.5 -23.499
s-4.5 -24.333 -4.5 -45l1 -12h175v-115h-175zM590 -0.00292969v667h174v-667h-174z" />
    <glyph glyph-name="dotlessi" horiz-adv-x="320" 
d="M73 0v467h173v-467h-173z" />
    <glyph glyph-name="tilde" 
d="M331 526c-15.333 0 -41 7.16797 -77 21.501s-62.333 21.5 -79 21.5c-14 0 -24.5 -3.66699 -31.5 -11s-12.167 -18.333 -15.5 -33h-89c7.33301 43.333 20 78.166 38 104.499s46 39.5 84 39.5c19.333 0 46.333 -6.83301 81 -20.5s61 -20.5 79 -20.5
c14 0 26 3.83301 36 11.5s15 18.167 15 31.5h90c-4.66699 -39.333 -18.167 -73.333 -40.5 -102s-52.5 -43 -90.5 -43z" />
    <glyph glyph-name="macron" 
d="M74 533v101h352v-101h-352z" />
    <glyph glyph-name="breve" 
d="M42 706h90c10 -24 25.667 -43.833 47 -59.5s45 -23.5 71 -23.5s49.333 7.5 70 22.5s36.334 35.167 47.001 60.5h90c-8.66699 -50.667 -32.334 -92.667 -71.001 -126s-84 -50 -136 -50c-51.333 0 -96.333 16.667 -135 50s-63 75.333 -73 126z" />
    <glyph glyph-name="dotaccent" 
d="M180 533v101h139v-101h-139z" />
    <glyph glyph-name="ring" 
d="M388 612c0 -30 -13.834 -50.668 -41.501 -62.001s-59.5 -17 -95.5 -17c-36.667 0 -69.167 5.33301 -97.5 16s-42.5 31.334 -42.5 62.001c0 27.333 14.833 46.5 44.5 57.5s60.834 16.5 93.501 16.5c36 0 68.167 -5 96.5 -15s42.5 -29.333 42.5 -58zM250.999 576.999
c22.667 0 41.666 2 56.999 6s23 12.667 23 26c0 16 -9.5 25.5 -28.5 28.5s-34.167 4.5 -45.5 4.5h-8c-19.333 0 -37.666 -2.16699 -54.999 -6.5s-26 -13.833 -26 -28.5c0 -12 7.16699 -20 21.5 -24s30.5 -6 48.5 -6h13z" />
    <glyph glyph-name="hungarumlaut" 
d="M49 492l-46 55l173 179l74 -90zM296 492l-46 55l172 179l74 -90z" />
    <glyph glyph-name="ogonek" 
d="M450 -82c0 -13.333 6.00098 -23.5 18.001 -30.5s25 -10.5 39 -10.5c10 0 20.667 1.66699 32 5v-63c-10 -2.66699 -20.667 -5 -32 -7s-22.333 -3 -33 -3c-28 0 -53 8.16699 -75 24.5s-33 37.833 -33 64.5c0 19.333 5.5 37.166 16.5 53.499s26.167 32.5 45.5 48.5h76
c-16.667 -12.667 -29.834 -25.167 -39.501 -37.5s-14.5 -27.166 -14.5 -44.499z" />
    <glyph glyph-name="caron" 
d="M77 706l176 -63l175 63l23 -60l-200 -114l-201 114z" />
    <glyph glyph-name="Lslash" horiz-adv-x="777" 
d="M452 478l-162 -93v-218h461v-167h-664v283l-87 -51v123l87 50v262h203v-159l162 94v-124z" />
    <glyph glyph-name="lslash" horiz-adv-x="387" 
d="M107 0v284l-73 -42v94l73 42v289h174v-207l73 41v-94l-73 -42v-365h-174z" />
    <glyph glyph-name="Zcaron" horiz-adv-x="925" 
d="M868 151v-151h-811v151l503 364h-490v152h788v-152l-507 -364h517zM290 898l176 -63l175 63l23 -60l-200 -114l-201 114z" />
    <glyph glyph-name="zcaron" horiz-adv-x="680" 
d="M318 117h308v-117h-573v120l309 231h-289v116h543v-130zM166 705l176 -63l175 63l23 -60l-200 -114l-201 114z" />
    <glyph glyph-name="minus" 
d="M496 324h-493v86h493v-86z" />
  </font>
</defs>
</svg>
