<svg width="345" height="140" viewBox="0 0 345 140" fill="none" xmlns="http://www.w3.org/2000/svg">
<g clip-path="url(#clip0_17_24)">
<path d="M307.716 94.9188H316.655C316.745 104.431 316.97 106.706 318.048 108.567C318.722 109.808 321.282 110.635 324.157 110.635C334.713 110.635 335.971 109.188 335.971 97.8139C335.971 92.2304 335.387 88.0945 334.444 86.647C333.455 85.1994 333.455 85.1994 328.739 84.9926H320.473C314.948 84.9926 312.657 83.5451 310.726 78.9956C308.57 73.8257 307.581 62.8656 307.581 44.0473C307.581 19.2319 309.109 8.68538 313.421 3.9291C315.847 1.03397 319.35 0 325.909 0C336.42 0 338.846 1.24078 341.002 7.6514C343.068 14.062 343.742 22.5406 343.742 43.2201H334.848C334.848 31.226 333.95 29.5716 328.065 29.5716C325.145 29.5716 321.237 29.9852 319.8 30.3988C317.374 31.226 316.565 34.1211 316.565 41.9793C316.565 47.7696 317.194 51.4919 318.497 52.9394C319.036 53.5598 319.216 53.7666 322.18 53.9734H330.67C331.479 53.9734 335.522 54.5938 337.049 55.0074C342.754 56.2482 345 67.8287 345 95.5392C345 120.975 343.383 132.142 338.981 136.484C336.735 138.759 332.288 140 325.774 140C315.397 140 313.107 138.966 310.456 132.762C308.614 128.626 307.671 118.08 307.671 101.743C307.671 100.502 307.671 97.8139 307.716 94.9188Z" fill="#FF8522"/>
<path d="M262.233 0H271.352V60.3269C271.352 90.0743 271.352 90.0743 271.935 96.315C272.699 104.22 274.676 106.716 280.246 106.716C287.074 106.716 288.96 105.884 290.083 101.932C290.982 98.8113 291.431 92.7786 291.476 82.1694C291.521 79.049 291.521 79.049 291.521 63.6553V0H300.64V72.8083C300.64 97.9792 300.46 106.092 299.741 113.997C298.483 127.519 295.878 135.84 291.925 138.544C290.667 139.584 286.759 140 281.279 140C273.822 140 270.902 139.168 268.971 136.672C265.692 132.511 263.715 124.19 262.906 111.085C262.412 103.18 262.233 94.2348 262.233 74.6805V0Z" fill="#FF8522"/>
<path d="M201.203 140V34.6327H187.862V0H223.664V34.6327H210.322V140H201.203Z" fill="#FF8522"/>
<path d="M143.702 0H152.821V60.3269C152.821 90.0743 152.821 90.0743 153.405 96.315C154.169 104.22 156.145 106.716 161.715 106.716C168.543 106.716 170.43 105.884 171.553 101.932C172.451 98.8113 172.901 92.7786 172.946 82.1694C172.991 79.049 172.991 79.049 172.991 63.6553V0H182.109V72.8083C182.109 97.9792 181.93 106.092 181.211 113.997C179.953 127.519 177.348 135.84 173.395 138.544C172.137 139.584 168.229 140 162.749 140C155.292 140 152.372 139.168 150.44 136.672C147.161 132.511 145.185 124.19 144.376 111.085C143.882 103.18 143.702 94.2348 143.702 74.6805V0Z" fill="#FF8522"/>
<path d="M115.554 0C124.178 0 126.829 0.411154 128.94 2.0558C133.567 5.96182 135.813 16.8576 136.442 38.8546C136.621 44.4053 136.711 55.5066 136.711 72.1586C136.711 105.257 135.947 118.62 133.387 128.282C131.59 135.272 129.075 138.561 124.717 139.383C123.1 139.794 119.102 140 116.182 140C109.04 140 105.402 139.383 103.605 137.739C100.281 135.066 98.349 129.31 97.226 119.236C96.0581 109.163 95.7886 99.0896 95.7886 69.0749C95.7886 46.0499 95.8784 40.2937 96.4175 31.0426C97.2709 16.4464 99.0228 8.63436 102.392 4.11159C104.907 0.82232 107.648 0 115.554 0ZM116.272 33.5095C109.579 33.5095 107.737 34.5374 106.569 38.4435C105.357 42.7606 104.997 49.5448 104.997 69.2805C104.997 89.4273 105.357 96.8282 106.48 101.145C107.692 105.668 109.175 106.49 116.048 106.49C123.909 106.49 125.526 105.257 126.559 98.6784C127.413 93.7445 127.637 86.7548 127.637 68.4582C127.637 33.9207 127.502 33.5095 116.272 33.5095Z" fill="#FF8522"/>
<path d="M50.7512 140V0H77.7933C81.2971 0 83.1388 1.46927 84.7111 5.03749C87.0918 10.7046 88.125 20.3598 88.125 36.7316C88.125 49.1154 87.4961 57.7211 86.1934 62.5487C85.295 65.907 84.3966 67.3763 82.2404 69.0555C84.9357 70.1049 86.1485 71.7841 87.2266 75.1424C88.6641 79.97 89.3379 88.5757 89.3379 101.589C89.3379 118.171 88.1699 129.295 85.879 135.172C84.4865 138.531 82.51 140 79.0511 140H50.7512ZM59.6455 55.8321H74.9633C76.7152 55.8321 77.3441 55.4123 77.9281 54.1529C78.6468 52.2639 79.096 48.4858 79.096 43.6582C79.096 37.991 78.512 33.7931 77.5238 32.1139C76.9398 31.2744 76.4906 31.0645 74.7387 31.0645H59.6455V55.8321ZM59.6455 108.936H75.9516C77.7933 108.936 78.1527 108.726 78.7366 107.886C79.6351 106.417 80.1741 102.219 80.1741 96.3418C80.1741 90.2549 79.635 86.057 78.6468 84.3778C78.1078 83.5382 77.7484 83.3283 75.727 83.3283H59.6455V108.936Z" fill="#FF8522"/>
<path d="M0 140L16.8452 0H29.0635L45.4595 140H35.4871L32.5224 115.022H13.2066L10.3317 140H0ZM16.4858 85.8471H29.333L22.8645 30.015L16.4858 85.8471Z" fill="#FF8522"/>
</g>
<defs>
<clipPath id="clip0_17_24">
<rect width="345" height="140" fill="white"/>
</clipPath>
</defs>
</svg>
