<svg width="1440" height="606" viewBox="0 0 1440 606" fill="none" xmlns="http://www.w3.org/2000/svg">
<path d="M0 0H183V123.473H52.2399V232.27H176.27V355.743H52.2399V545H0V0Z" fill="#FF8522"/>
<path d="M464.988 7.94174C491.769 23.3288 504.837 65.5193 508.387 151.389C509.355 173.229 510 216.412 510 280.938C510 409.991 505.644 462.108 490.801 499.335C480.314 526.635 465.794 539.54 440.626 542.518C431.269 544.007 408.037 545 391.258 545C349.956 545 328.822 542.518 318.335 536.066C299.136 525.642 287.843 503.306 281.389 464.094C274.613 424.882 273 385.669 273 268.529C273 178.689 273.484 156.353 276.711 120.615C281.712 63.5338 291.876 33.256 311.398 15.8835C325.918 2.9782 341.89 0 387.709 0C437.4 0 452.888 1.4891 464.988 7.94174ZM335.436 149.403C328.338 166.28 326.402 192.587 326.402 269.522C326.402 347.946 328.499 376.735 334.952 393.611C342.051 410.984 350.602 414.458 390.451 414.458C435.948 414.458 445.305 409.494 451.274 384.18C456.276 364.822 457.566 337.523 457.566 266.544C457.566 132.031 456.76 130.542 391.742 130.542C352.86 130.542 342.212 134.513 335.436 149.403Z" fill="#FF8522"/>
<path d="M821 338.878C820.677 416.735 820.032 443.686 816.322 467.642C809.547 513.558 795.512 535.018 768.412 541.007C757.765 544.002 736.955 545 702.273 545C652.266 545 636.134 537.514 622.1 509.565C605.001 475.627 600 419.231 600 260.023C600 118.283 605.162 67.3762 623.391 35.4349C639.038 7.48614 655.653 0 704.37 0C769.218 0 783.253 3.99261 798.093 26.4514C812.128 48.4111 818.58 95.8242 818.58 174.679V192.147H768.089C767.121 133.755 763.25 128.764 717.436 128.764C674.204 128.764 666.461 131.758 660.009 149.725C653.717 167.193 652.427 189.153 652.427 275.993C652.427 404.757 656.298 414.24 707.112 414.24C746.473 414.24 752.119 413.242 759.378 403.759C766.96 394.276 769.863 377.308 769.863 338.379H821V338.878Z" fill="#FF8522"/>
<path d="M963.917 0V234.646V267.235C963.917 326.398 963.917 327.902 964.721 342.442C967.292 403.109 975.808 415.142 1015.34 415.142C1054.7 415.142 1065.63 412.134 1072.06 396.591C1077.2 384.558 1079.77 360.993 1080.09 319.88C1080.41 307.847 1080.41 307.847 1080.41 247.682V0H1132.96V283.28C1133.44 416.647 1129.91 456.256 1114.48 499.374C1102.11 529.457 1086.52 541.992 1063.86 542.994C1055.83 543.997 1051.17 543.997 1040.72 543.997L1020.96 545C972.273 543.997 962.632 542.493 949.938 531.964C918.604 501.881 910.248 451.242 911.052 290.8V0H963.917Z" fill="#FF8522"/>
<path d="M1275.55 371C1276.04 408 1277.33 417 1283.64 424C1287.52 429 1302.39 432 1319.05 432C1380.33 432 1387.61 426.5 1387.61 382C1387.61 360 1384.21 344 1378.72 338.5C1373.06 333 1373.06 333 1345.57 332H1297.87C1265.85 332 1252.43 326.5 1241.27 308.5C1228.82 288.5 1223 245.5 1223 172C1223 75.0001 1231.89 34 1256.96 15.5C1271.02 4.00003 1291.4 0 1329.4 0C1390.36 0 1404.59 5 1417.04 30C1429 55 1432.89 88.0001 1432.89 168.5H1381.3C1381.3 121.5 1376.13 115.5 1341.85 115.5C1324.87 115.5 1302.23 117 1293.82 118.5C1279.76 121.5 1275.07 133 1275.07 163.5C1275.07 186 1278.79 200.5 1286.22 206C1289.3 208.5 1290.43 209 1307.57 210H1356.89C1361.58 210 1385.02 212.5 1393.92 214C1427.06 219 1440 264 1440 372C1440 471 1430.62 514.5 1405.07 531.5C1391.98 540.5 1366.27 545 1328.43 545C1268.11 545 1254.85 541 1239.49 517C1228.82 501 1223.32 459.5 1223.32 396C1223.32 391 1223.32 380.5 1223.65 369.5H1275.55V371Z" fill="#FF8522"/>
<path d="M3.096 599V574.052H18.144V577.04H6.588V584.564H16.848V587.516H6.588V599H3.096ZM20.9669 586.508C20.9669 584.372 21.2789 582.488 21.9029 580.856C22.5509 579.224 23.4149 577.868 24.4949 576.788C25.5989 575.684 26.8709 574.856 28.3109 574.304C29.7749 573.752 31.3229 573.476 32.9549 573.476C34.5629 573.476 36.0749 573.752 37.4909 574.304C38.9309 574.856 40.1909 575.684 41.2709 576.788C42.3509 577.868 43.2029 579.224 43.8269 580.856C44.4749 582.488 44.7989 584.372 44.7989 586.508C44.7989 588.644 44.4749 590.528 43.8269 592.16C43.2029 593.792 42.3509 595.16 41.2709 596.264C40.1909 597.344 38.9309 598.16 37.4909 598.712C36.0749 599.264 34.5629 599.54 32.9549 599.54C31.3229 599.54 29.7749 599.264 28.3109 598.712C26.8709 598.16 25.5989 597.344 24.4949 596.264C23.4149 595.16 22.5509 593.792 21.9029 592.16C21.2789 590.528 20.9669 588.644 20.9669 586.508ZM24.6389 586.508C24.6389 588.02 24.8309 589.4 25.2149 590.648C25.5989 591.872 26.1389 592.916 26.8349 593.78C27.5549 594.644 28.4189 595.316 29.4269 595.796C30.4589 596.252 31.6109 596.48 32.8829 596.48C34.1549 596.48 35.2949 596.252 36.3029 595.796C37.3109 595.316 38.1629 594.644 38.8589 593.78C39.5789 592.916 40.1309 591.872 40.5149 590.648C40.8989 589.4 41.0909 588.02 41.0909 586.508C41.0909 584.996 40.8989 583.628 40.5149 582.404C40.1309 581.156 39.5789 580.1 38.8589 579.236C38.1629 578.372 37.3109 577.712 36.3029 577.256C35.2949 576.776 34.1549 576.536 32.8829 576.536C31.6109 576.536 30.4589 576.776 29.4269 577.256C28.4189 577.712 27.5549 578.372 26.8349 579.236C26.1389 580.1 25.5989 581.156 25.2149 582.404C24.8309 583.628 24.6389 584.996 24.6389 586.508ZM62.1984 588.56C62.5824 589.04 63.0624 589.676 63.6384 590.468C64.2384 591.236 64.8504 592.1 65.4744 593.06C66.0984 593.996 66.7104 594.98 67.3104 596.012C67.9344 597.044 68.4624 598.04 68.8944 599H65.0784C64.5984 598.088 64.0704 597.164 63.4944 596.228C62.9424 595.292 62.3784 594.404 61.8024 593.564C61.2264 592.7 60.6504 591.896 60.0744 591.152C59.5224 590.408 59.0184 589.76 58.5624 589.208C58.2504 589.232 57.9264 589.244 57.5904 589.244C57.2784 589.244 56.9544 589.244 56.6184 589.244H53.4864V599H49.9944V574.412C50.9784 574.172 52.0704 574.016 53.2704 573.944C54.4944 573.848 55.6104 573.8 56.6184 573.8C60.1224 573.8 62.7864 574.46 64.6104 575.78C66.4584 577.1 67.3824 579.068 67.3824 581.684C67.3824 583.34 66.9384 584.756 66.0504 585.932C65.1864 587.108 63.9024 587.984 62.1984 588.56ZM56.9064 576.86C55.4184 576.86 54.2784 576.896 53.4864 576.968V586.364H55.9704C57.1704 586.364 58.2504 586.304 59.2104 586.184C60.1704 586.064 60.9744 585.836 61.6224 585.5C62.2944 585.164 62.8104 584.696 63.1704 584.096C63.5304 583.472 63.7104 582.656 63.7104 581.648C63.7104 580.712 63.5304 579.932 63.1704 579.308C62.8104 578.684 62.3184 578.192 61.6944 577.832C61.0944 577.472 60.3744 577.22 59.5344 577.076C58.7184 576.932 57.8424 576.86 56.9064 576.86Z" fill="#434343"/>
<path d="M613.824 599.54C612.072 599.54 610.476 599.252 609.036 598.676C607.596 598.1 606.36 597.26 605.328 596.156C604.296 595.052 603.492 593.696 602.916 592.088C602.364 590.456 602.088 588.596 602.088 586.508C602.088 584.42 602.4 582.572 603.024 580.964C603.672 579.332 604.536 577.964 605.616 576.86C606.696 575.756 607.956 574.916 609.396 574.34C610.836 573.764 612.372 573.476 614.004 573.476C615.036 573.476 615.96 573.548 616.776 573.692C617.616 573.836 618.336 574.004 618.936 574.196C619.56 574.388 620.064 574.58 620.448 574.772C620.832 574.964 621.096 575.108 621.24 575.204L620.232 578.084C620.016 577.94 619.704 577.784 619.296 577.616C618.888 577.448 618.42 577.28 617.892 577.112C617.388 576.944 616.824 576.812 616.2 576.716C615.6 576.596 614.988 576.536 614.364 576.536C613.044 576.536 611.856 576.764 610.8 577.22C609.744 577.676 608.844 578.336 608.1 579.2C607.356 580.064 606.78 581.12 606.372 582.368C605.988 583.592 605.796 584.972 605.796 586.508C605.796 587.996 605.964 589.352 606.3 590.576C606.66 591.8 607.188 592.856 607.884 593.744C608.58 594.608 609.444 595.28 610.476 595.76C611.532 596.24 612.756 596.48 614.148 596.48C615.756 596.48 617.088 596.312 618.144 595.976C619.2 595.64 619.992 595.34 620.52 595.076L621.42 597.956C621.252 598.076 620.952 598.232 620.52 598.424C620.088 598.592 619.548 598.76 618.9 598.928C618.252 599.096 617.496 599.24 616.632 599.36C615.768 599.48 614.832 599.54 613.824 599.54ZM640.432 595.976V599H625.42V574.052H628.912V595.976H640.432ZM644.088 574.052H647.58V599H644.088V574.052ZM653.756 599V574.052H668.984V577.04H657.248V584.456H667.688V587.372H657.248V596.012H669.884V599H653.756ZM691.423 599C690.895 598.112 690.283 597.116 689.587 596.012C688.915 594.908 688.183 593.768 687.391 592.592C686.599 591.392 685.771 590.18 684.907 588.956C684.067 587.732 683.227 586.556 682.387 585.428C681.547 584.276 680.731 583.196 679.939 582.188C679.147 581.18 678.415 580.292 677.743 579.524V599H674.323V574.052H677.095C678.223 575.252 679.423 576.656 680.695 578.264C681.991 579.848 683.263 581.492 684.511 583.196C685.783 584.876 686.971 586.532 688.075 588.164C689.203 589.796 690.151 591.248 690.919 592.52V574.052H694.339V599H691.423ZM717.182 574.052V577.076H709.334V599H705.842V577.076H697.994V574.052H717.182ZM726.665 596.516C730.313 596.516 732.137 595.268 732.137 592.772C732.137 592.004 731.969 591.356 731.633 590.828C731.321 590.276 730.889 589.808 730.337 589.424C729.785 589.016 729.149 588.668 728.429 588.38C727.733 588.092 726.989 587.804 726.197 587.516C725.285 587.204 724.421 586.856 723.605 586.472C722.789 586.064 722.081 585.596 721.481 585.068C720.881 584.516 720.401 583.868 720.041 583.124C719.705 582.38 719.537 581.48 719.537 580.424C719.537 578.24 720.281 576.536 721.769 575.312C723.257 574.088 725.309 573.476 727.925 573.476C729.437 573.476 730.805 573.644 732.029 573.98C733.277 574.292 734.189 574.64 734.765 575.024L733.649 577.868C733.145 577.556 732.389 577.256 731.381 576.968C730.397 576.656 729.245 576.5 727.925 576.5C727.253 576.5 726.629 576.572 726.053 576.716C725.477 576.86 724.973 577.076 724.541 577.364C724.109 577.652 723.761 578.024 723.497 578.48C723.257 578.912 723.137 579.428 723.137 580.028C723.137 580.7 723.269 581.264 723.533 581.72C723.797 582.176 724.169 582.584 724.649 582.944C725.129 583.28 725.681 583.592 726.305 583.88C726.953 584.168 727.661 584.456 728.429 584.744C729.509 585.176 730.493 585.608 731.381 586.04C732.293 586.472 733.073 586.988 733.721 587.588C734.393 588.188 734.909 588.908 735.269 589.748C735.629 590.564 735.809 591.56 735.809 592.736C735.809 594.92 735.005 596.6 733.397 597.776C731.813 598.952 729.569 599.54 726.665 599.54C725.681 599.54 724.769 599.468 723.929 599.324C723.113 599.204 722.381 599.06 721.733 598.892C721.085 598.7 720.521 598.508 720.041 598.316C719.585 598.1 719.225 597.92 718.961 597.776L720.005 594.896C720.557 595.208 721.397 595.556 722.525 595.94C723.653 596.324 725.033 596.516 726.665 596.516Z" fill="#434343"/>
<path d="M275.088 586.508C275.088 584.372 275.4 582.488 276.024 580.856C276.672 579.224 277.536 577.868 278.616 576.788C279.72 575.684 280.992 574.856 282.432 574.304C283.896 573.752 285.444 573.476 287.076 573.476C288.684 573.476 290.196 573.752 291.612 574.304C293.052 574.856 294.312 575.684 295.392 576.788C296.472 577.868 297.324 579.224 297.948 580.856C298.596 582.488 298.92 584.372 298.92 586.508C298.92 588.644 298.596 590.528 297.948 592.16C297.324 593.792 296.472 595.16 295.392 596.264C294.312 597.344 293.052 598.16 291.612 598.712C290.196 599.264 288.684 599.54 287.076 599.54C285.444 599.54 283.896 599.264 282.432 598.712C280.992 598.16 279.72 597.344 278.616 596.264C277.536 595.16 276.672 593.792 276.024 592.16C275.4 590.528 275.088 588.644 275.088 586.508ZM278.76 586.508C278.76 588.02 278.952 589.4 279.336 590.648C279.72 591.872 280.26 592.916 280.956 593.78C281.676 594.644 282.54 595.316 283.548 595.796C284.58 596.252 285.732 596.48 287.004 596.48C288.276 596.48 289.416 596.252 290.424 595.796C291.432 595.316 292.284 594.644 292.98 593.78C293.7 592.916 294.252 591.872 294.636 590.648C295.02 589.4 295.212 588.02 295.212 586.508C295.212 584.996 295.02 583.628 294.636 582.404C294.252 581.156 293.7 580.1 292.98 579.236C292.284 578.372 291.432 577.712 290.424 577.256C289.416 576.776 288.276 576.536 287.004 576.536C285.732 576.536 284.58 576.776 283.548 577.256C282.54 577.712 281.676 578.372 280.956 579.236C280.26 580.1 279.72 581.156 279.336 582.404C278.952 583.628 278.76 584.996 278.76 586.508ZM313.404 599.54C311.772 599.54 310.356 599.288 309.156 598.784C307.956 598.28 306.972 597.596 306.204 596.732C305.436 595.844 304.86 594.8 304.476 593.6C304.116 592.4 303.936 591.104 303.936 589.712V574.052H307.428V589.316C307.428 591.812 307.98 593.624 309.084 594.752C310.188 595.88 311.628 596.444 313.404 596.444C314.292 596.444 315.096 596.312 315.816 596.048C316.56 595.76 317.196 595.328 317.724 594.752C318.252 594.176 318.66 593.444 318.948 592.556C319.236 591.644 319.38 590.564 319.38 589.316V574.052H322.872V589.712C322.872 591.104 322.68 592.4 322.296 593.6C321.936 594.8 321.36 595.844 320.568 596.732C319.8 597.596 318.816 598.28 317.616 598.784C316.44 599.288 315.036 599.54 313.404 599.54ZM341.105 588.56C341.489 589.04 341.969 589.676 342.545 590.468C343.145 591.236 343.757 592.1 344.381 593.06C345.005 593.996 345.617 594.98 346.217 596.012C346.841 597.044 347.369 598.04 347.801 599H343.985C343.505 598.088 342.977 597.164 342.401 596.228C341.849 595.292 341.285 594.404 340.709 593.564C340.133 592.7 339.557 591.896 338.981 591.152C338.429 590.408 337.925 589.76 337.469 589.208C337.157 589.232 336.833 589.244 336.497 589.244C336.185 589.244 335.861 589.244 335.525 589.244H332.393V599H328.901V574.412C329.885 574.172 330.977 574.016 332.177 573.944C333.401 573.848 334.517 573.8 335.525 573.8C339.029 573.8 341.693 574.46 343.517 575.78C345.365 577.1 346.289 579.068 346.289 581.684C346.289 583.34 345.845 584.756 344.957 585.932C344.093 587.108 342.809 587.984 341.105 588.56ZM335.813 576.86C334.325 576.86 333.185 576.896 332.393 576.968V586.364H334.877C336.077 586.364 337.157 586.304 338.117 586.184C339.077 586.064 339.881 585.836 340.529 585.5C341.201 585.164 341.717 584.696 342.077 584.096C342.437 583.472 342.617 582.656 342.617 581.648C342.617 580.712 342.437 579.932 342.077 579.308C341.717 578.684 341.225 578.192 340.601 577.832C340.001 577.472 339.281 577.22 338.441 577.076C337.625 576.932 336.749 576.86 335.813 576.86Z" fill="#434343"/>
</svg>
