        <svg xmlns="http://www.w3.org/2000/svg" width="210" height="40" viewBox="0 0 210 40" fill="none">
            <g clip-path="url(#clip0_1_97)">
            <path d="M0 12.3031H17.13V15.9113H4.89V19.0906H16.5V22.6987H4.89V28.2292H0V12.3031Z" fill="#DEDEDE"/>
            <path d="M38.1 12.3771C40.59 12.8355 41.805 14.0924 42.135 16.6507C42.225 17.3013 42.285 18.5878 42.285 20.5102C42.285 24.3549 41.88 25.9076 40.5 27.0166C39.525 27.83 38.175 28.2144 35.835 28.3032C34.965 28.3475 32.805 28.3771 31.245 28.3771C27.405 28.3771 25.44 28.3032 24.465 28.1109C22.68 27.8004 21.63 27.1349 21.03 25.9667C20.4 24.7985 20.25 23.6303 20.25 20.1405C20.25 17.464 20.295 16.7985 20.595 15.7338C21.06 14.0333 22.005 13.1312 23.82 12.6137C25.17 12.2292 26.655 12.1405 30.915 12.1405C35.535 12.1405 36.975 12.1849 38.1 12.3771ZM26.055 16.5915C25.395 17.0943 25.215 17.878 25.215 20.1701C25.215 22.5065 25.41 23.3642 26.01 23.8669C26.67 24.3845 27.465 24.488 31.17 24.488C35.4 24.488 36.27 24.3401 36.825 23.586C37.29 23.0092 37.41 22.1959 37.41 20.0813C37.41 16.0739 37.335 16.0296 31.29 16.0296C27.675 16.0296 26.685 16.1479 26.055 16.5915Z" fill="#DEDEDE"/>
            <path d="M66.3601 22.2255C66.3301 24.5323 66.2701 25.3309 65.9251 26.0407C65.2951 27.4011 63.9901 28.037 61.4701 28.2144C60.4801 28.3031 58.5451 28.3327 55.3201 28.3327C50.6701 28.3327 49.1701 28.1109 47.8651 27.2828C46.2751 26.2773 45.8101 24.6063 45.8101 19.8891C45.8101 15.6895 46.2901 14.1811 47.9851 13.2347C49.4401 12.4067 50.9851 12.1848 55.5151 12.1848C61.5451 12.1848 62.8501 12.3031 64.2301 12.9686C65.5351 13.6192 66.1351 15.024 66.1351 17.3604V17.878H61.4401C61.35 16.1479 60.9901 16 56.7301 16C52.7101 16 51.9901 16.0887 51.3901 16.6211C50.8051 17.1386 50.6851 17.7893 50.6851 20.3623C50.6851 24.1774 51.0451 24.4584 55.7701 24.4584C59.4301 24.4584 59.9551 24.4288 60.6301 24.1479C61.3351 23.8669 61.6051 23.3641 61.6051 22.2107H66.3601V22.2255Z" fill="#DEDEDE"/>
            <path d="M75.12 12.3031V19.2237V20.1848C75.12 21.9298 75.12 21.9741 75.195 22.403C75.435 24.1922 76.23 24.5471 79.92 24.5471C83.595 24.5471 84.615 24.4584 85.215 24C85.695 23.6451 85.935 22.9501 85.965 21.7375C85.995 21.3826 85.995 21.3826 85.995 19.6081V12.3031H90.9V20.658C90.945 24.5915 90.615 25.7597 89.175 27.0314C88.02 27.9187 86.565 28.2884 84.45 28.3179C83.7 28.3475 83.265 28.3475 82.29 28.3475L80.445 28.3771C75.9 28.3475 75 28.3031 73.815 27.9926C70.89 27.1054 70.11 25.6118 70.185 20.8799V12.3031H75.12Z" fill="#DEDEDE"/>
            <path d="M99.48 23.1275C99.525 24.2218 99.645 24.488 100.23 24.695C100.59 24.8429 101.97 24.9316 103.515 24.9316C109.2 24.9316 109.875 24.7689 109.875 23.4528C109.875 22.8022 109.56 22.329 109.05 22.1663C108.525 22.0037 108.525 22.0037 105.975 21.9741H101.55C98.58 21.9741 97.335 21.8114 96.3 21.2791C95.145 20.6876 94.605 19.4159 94.605 17.2421C94.605 14.3734 95.43 13.1608 97.755 12.6137C99.06 12.2735 100.95 12.1552 104.475 12.1552C110.13 12.1552 111.45 12.3031 112.605 13.0425C113.715 13.7819 114.075 14.7578 114.075 17.1386H109.29C109.29 15.7486 108.81 15.5711 105.63 15.5711C104.055 15.5711 101.955 15.6155 101.175 15.6599C99.87 15.7486 99.435 16.0887 99.435 16.9907C99.435 17.6562 99.78 18.085 100.47 18.2477C100.755 18.3216 100.86 18.3364 102.45 18.366H107.025C107.46 18.366 109.635 18.4399 110.46 18.4843C113.535 18.6321 114.735 19.963 114.735 23.1571C114.735 26.085 113.865 27.3715 111.495 27.8743C110.28 28.1405 107.895 28.2735 104.385 28.2735C98.79 28.2735 97.56 28.1552 96.135 27.4454C95.145 26.9723 94.635 25.7449 94.635 23.8669C94.635 23.719 94.635 23.4085 94.665 23.0832H99.48V23.1275Z" fill="#DEDEDE"/>
            <path d="M148.32 35.6969C148.275 35.6673 148.23 35.6377 148.185 35.6081C146.73 34.6174 144.975 34.0407 143.07 34.0407C142.02 34.0407 141.015 34.2181 140.085 34.5434C140.16 33.2569 140.505 32.0296 141.075 30.9501C143.79 31.2015 146.16 32.6359 147.645 34.7357C147.645 34.7505 147.66 34.7505 147.66 34.7505C147.765 34.9131 147.87 35.0758 147.975 35.2384C148.08 35.4011 148.2 35.549 148.32 35.6969Z" fill="#DEDEDE"/>
            <path d="M147.645 34.7357C146.16 32.6359 143.79 31.2015 141.075 30.9501C142.17 28.8651 144.075 27.268 146.37 26.5434C146.16 27.3715 146.055 28.2292 146.055 29.1017C146.07 31.1719 146.64 33.0943 147.645 34.7357Z" fill="#DEDEDE"/>
            <path d="M168.135 29.1165C168.135 35.1349 163.185 40 157.095 40C156.93 40 156.75 40 156.585 39.9852C157.545 38.5656 158.115 36.8651 158.115 35.0462C158.115 32.5767 157.095 30.329 155.43 28.7172C155.445 28.7172 155.445 28.7172 155.46 28.732C156.3 28.9834 157.185 29.1165 158.115 29.1165C161.94 29.1165 165.21 26.7653 166.515 23.4529C167.235 24.5915 167.73 25.878 167.97 27.2532C168.075 27.8447 168.135 28.4658 168.135 29.1165Z" fill="#FF8522"/>
            <path d="M158.115 35.0314C158.115 36.8651 157.56 38.5656 156.585 39.9704C154.275 39.8669 152.145 39.0684 150.42 37.7671C149.625 37.1756 148.92 36.4806 148.32 35.6969C148.2 35.549 148.08 35.3863 147.99 35.2384C147.885 35.0758 147.78 34.9131 147.675 34.7505C147.675 34.7357 147.66 34.7357 147.66 34.7357C146.655 33.0943 146.07 31.1719 146.07 29.1165C146.07 28.2292 146.175 27.3715 146.385 26.5582C147.24 26.2921 148.155 26.1442 149.1 26.1442C150.03 26.1442 150.93 26.2773 151.785 26.5434C153.165 26.9723 154.41 27.7264 155.43 28.7024C157.08 30.3142 158.115 32.5619 158.115 35.0314Z" fill="#FF8522"/>
            <path d="M148.32 35.6969C148.275 35.6673 148.23 35.6377 148.185 35.6081C146.73 34.6174 144.975 34.0407 143.07 34.0407C142.02 34.0407 141.015 34.2181 140.085 34.5434C140.16 33.2569 140.505 32.0296 141.075 30.9501C143.79 31.2015 146.16 32.6359 147.645 34.7357C147.645 34.7505 147.66 34.7505 147.66 34.7505C147.765 34.9131 147.87 35.0758 147.975 35.2384C148.08 35.4011 148.2 35.549 148.32 35.6969Z" fill="#AEAEAE"/>
            <path d="M167.97 27.2385C166.56 29.5157 164.025 31.024 161.13 31.024C158.91 31.024 156.915 30.1368 155.46 28.7172C156.3 28.9686 157.185 29.1017 158.115 29.1017C161.94 29.1017 165.21 26.7505 166.515 23.4381C167.235 24.5767 167.73 25.8632 167.97 27.2385Z" fill="#D55F00"/>
            <path d="M149.4 11.3124C149.385 11.3124 149.385 11.3271 149.37 11.3271C149.37 11.3124 149.37 11.3124 149.37 11.3124H149.4Z" fill="#FF8522"/>
            <path d="M165.135 8.3549C165.135 9.9963 163.785 11.3124 162.135 11.3124H158.13C157.815 11.3124 157.5 11.3272 157.185 11.3567C153.51 11.7264 150.495 14.2847 149.49 17.671C149.25 16.5767 149.115 15.4381 149.115 14.2699C149.115 13.2643 149.205 12.2736 149.385 11.3272C149.4 11.3124 149.4 11.3124 149.415 11.3124H149.4C149.595 10.2921 149.895 9.28651 150.285 8.3549C150.645 7.48244 151.08 6.63956 151.59 5.85582C153.21 3.32717 155.535 1.28651 158.295 0C158.19 0.473198 158.145 0.946398 158.145 1.44917C158.145 3.2976 158.88 4.98336 160.08 6.22551C161.325 7.5268 163.125 8.3549 165.135 8.3549Z" fill="#FF8522"/>
            <path d="M161.19 11.3124H158.115C157.8 11.3124 157.485 11.3272 157.17 11.3568C153.495 11.7264 150.48 14.2847 149.475 17.671C149.235 16.5767 149.1 15.4381 149.1 14.2699C149.1 13.2791 149.19 12.3031 149.37 11.3568C149.385 11.3272 149.4 11.3124 149.43 11.3124C150.915 10.0407 152.835 9.24215 154.95 9.16821C155.07 9.16821 155.19 9.15343 155.325 9.15343C157.05 9.15343 158.685 9.64141 160.05 10.4695C160.32 10.6322 160.575 10.8096 160.83 11.0019C160.935 11.1202 161.07 11.2089 161.19 11.3124Z" fill="#D55F00"/>
            <path d="M130.065 12.2736H125.55V28.1109H130.065V12.2736Z" fill="#FF8522"/>
            <path d="M141.09 19.1941H130.05V22.6544H141.09V19.1941Z" fill="#FF8522"/>
            <path d="M142.08 12.2736H130.05V15.7338H142.08V12.2736Z" fill="#FF8522"/>
            <path d="M185.205 20.2292L183.195 22.2107L182.19 23.2015L177.18 28.1405H173.19H171.195V28.0961L179.19 20.2292L171.195 12.3475H173.19L177.195 12.3327L182.205 17.2717L183.21 18.2773L185.205 20.2292Z" fill="#FF8522"/>
            <path d="M197.22 32.0739L193.26 32.0887H191.205L187.185 28.1257L182.22 23.2163L181.2 22.2107L183.21 20.2292L181.23 18.2773L182.235 17.2865L187.275 12.3179H193.23V12.3771L185.22 20.244L193.2 28.1109L193.245 28.1553L197.22 32.0739Z" fill="#FF8522"/>
            <path d="M202.005 20.1848L210 12.2588V28.1109L202.005 20.1848Z" fill="#FF8522"/>
            </g>
            <defs>
            <clipPath id="clip0_1_97">
            <rect width="210" height="40" fill="white"/>
            </clipPath>
            </defs>
            </svg>