<svg width="176" height="16" viewBox="0 0 176 16" fill="none" xmlns="http://www.w3.org/2000/svg">
<path d="M1.204 13V3.298H7.056V4.46H2.562V7.386H6.552V8.534H2.562V13H1.204ZM8.1538 8.142C8.1538 7.31133 8.27513 6.57867 8.5178 5.944C8.7698 5.30933 9.1058 4.782 9.5258 4.362C9.95513 3.93267 10.4498 3.61067 11.0098 3.396C11.5791 3.18133 12.1811 3.074 12.8158 3.074C13.4411 3.074 14.0291 3.18133 14.5798 3.396C15.1398 3.61067 15.6298 3.93267 16.0498 4.362C16.4698 4.782 16.8011 5.30933 17.0438 5.944C17.2958 6.57867 17.4218 7.31133 17.4218 8.142C17.4218 8.97267 17.2958 9.70533 17.0438 10.34C16.8011 10.9747 16.4698 11.5067 16.0498 11.936C15.6298 12.356 15.1398 12.6733 14.5798 12.888C14.0291 13.1027 13.4411 13.21 12.8158 13.21C12.1811 13.21 11.5791 13.1027 11.0098 12.888C10.4498 12.6733 9.95513 12.356 9.5258 11.936C9.1058 11.5067 8.7698 10.9747 8.5178 10.34C8.27513 9.70533 8.1538 8.97267 8.1538 8.142ZM9.5818 8.142C9.5818 8.73 9.65646 9.26667 9.8058 9.752C9.95513 10.228 10.1651 10.634 10.4358 10.97C10.7158 11.306 11.0518 11.5673 11.4438 11.754C11.8451 11.9313 12.2931 12.02 12.7878 12.02C13.2825 12.02 13.7258 11.9313 14.1178 11.754C14.5098 11.5673 14.8411 11.306 15.1118 10.97C15.3918 10.634 15.6065 10.228 15.7558 9.752C15.9051 9.26667 15.9798 8.73 15.9798 8.142C15.9798 7.554 15.9051 7.022 15.7558 6.546C15.6065 6.06067 15.3918 5.65 15.1118 5.314C14.8411 4.978 14.5098 4.72133 14.1178 4.544C13.7258 4.35733 13.2825 4.264 12.7878 4.264C12.2931 4.264 11.8451 4.35733 11.4438 4.544C11.0518 4.72133 10.7158 4.978 10.4358 5.314C10.1651 5.65 9.95513 6.06067 9.8058 6.546C9.65646 7.022 9.5818 7.554 9.5818 8.142ZM24.1883 8.94C24.3376 9.12667 24.5243 9.374 24.7483 9.682C24.9816 9.98067 25.2196 10.3167 25.4623 10.69C25.7049 11.054 25.9429 11.4367 26.1763 11.838C26.4189 12.2393 26.6243 12.6267 26.7923 13H25.3083C25.1216 12.6453 24.9163 12.286 24.6923 11.922C24.4776 11.558 24.2583 11.2127 24.0343 10.886C23.8103 10.55 23.5863 10.2373 23.3623 9.948C23.1476 9.65867 22.9516 9.40667 22.7743 9.192C22.6529 9.20133 22.5269 9.206 22.3963 9.206C22.2749 9.206 22.1489 9.206 22.0183 9.206H20.8003V13H19.4423V3.438C19.8249 3.34467 20.2496 3.284 20.7163 3.256C21.1923 3.21867 21.6263 3.2 22.0183 3.2C23.3809 3.2 24.4169 3.45667 25.1263 3.97C25.8449 4.48333 26.2043 5.24867 26.2043 6.266C26.2043 6.91 26.0316 7.46067 25.6863 7.918C25.3503 8.37533 24.8509 8.716 24.1883 8.94ZM22.1303 4.39C21.5516 4.39 21.1083 4.404 20.8003 4.432V8.086H21.7663C22.2329 8.086 22.6529 8.06267 23.0263 8.016C23.3996 7.96933 23.7123 7.88067 23.9643 7.75C24.2256 7.61933 24.4263 7.43733 24.5663 7.204C24.7063 6.96133 24.7763 6.644 24.7763 6.252C24.7763 5.888 24.7063 5.58467 24.5663 5.342C24.4263 5.09933 24.2349 4.908 23.9923 4.768C23.7589 4.628 23.4789 4.53 23.1523 4.474C22.8349 4.418 22.4943 4.39 22.1303 4.39Z" fill="#434343"/>
<path d="M55.812 8.142C55.812 7.31133 55.9333 6.57867 56.176 5.944C56.428 5.30933 56.764 4.782 57.184 4.362C57.6133 3.93267 58.108 3.61067 58.668 3.396C59.2373 3.18133 59.8393 3.074 60.474 3.074C61.0993 3.074 61.6873 3.18133 62.238 3.396C62.798 3.61067 63.288 3.93267 63.708 4.362C64.128 4.782 64.4593 5.30933 64.702 5.944C64.954 6.57867 65.08 7.31133 65.08 8.142C65.08 8.97267 64.954 9.70533 64.702 10.34C64.4593 10.9747 64.128 11.5067 63.708 11.936C63.288 12.356 62.798 12.6733 62.238 12.888C61.6873 13.1027 61.0993 13.21 60.474 13.21C59.8393 13.21 59.2373 13.1027 58.668 12.888C58.108 12.6733 57.6133 12.356 57.184 11.936C56.764 11.5067 56.428 10.9747 56.176 10.34C55.9333 9.70533 55.812 8.97267 55.812 8.142ZM57.24 8.142C57.24 8.73 57.3147 9.26667 57.464 9.752C57.6133 10.228 57.8233 10.634 58.094 10.97C58.374 11.306 58.71 11.5673 59.102 11.754C59.5033 11.9313 59.9513 12.02 60.446 12.02C60.9407 12.02 61.384 11.9313 61.776 11.754C62.168 11.5673 62.4993 11.306 62.77 10.97C63.05 10.634 63.2647 10.228 63.414 9.752C63.5633 9.26667 63.638 8.73 63.638 8.142C63.638 7.554 63.5633 7.022 63.414 6.546C63.2647 6.06067 63.05 5.65 62.77 5.314C62.4993 4.978 62.168 4.72133 61.776 4.544C61.384 4.35733 60.9407 4.264 60.446 4.264C59.9513 4.264 59.5033 4.35733 59.102 4.544C58.71 4.72133 58.374 4.978 58.094 5.314C57.8233 5.65 57.6133 6.06067 57.464 6.546C57.3147 7.022 57.24 7.554 57.24 8.142ZM70.7125 13.21C70.0778 13.21 69.5272 13.112 69.0605 12.916C68.5938 12.72 68.2112 12.454 67.9125 12.118C67.6138 11.7727 67.3898 11.3667 67.2405 10.9C67.1005 10.4333 67.0305 9.92933 67.0305 9.388V3.298H68.3885V9.234C68.3885 10.2047 68.6032 10.9093 69.0325 11.348C69.4618 11.7867 70.0218 12.006 70.7125 12.006C71.0578 12.006 71.3705 11.9547 71.6505 11.852C71.9398 11.74 72.1872 11.572 72.3925 11.348C72.5978 11.124 72.7565 10.8393 72.8685 10.494C72.9805 10.1393 73.0365 9.71933 73.0365 9.234V3.298H74.3945V9.388C74.3945 9.92933 74.3198 10.4333 74.1705 10.9C74.0305 11.3667 73.8065 11.7727 73.4985 12.118C73.1998 12.454 72.8172 12.72 72.3505 12.916C71.8932 13.112 71.3472 13.21 70.7125 13.21ZM81.4852 8.94C81.6345 9.12667 81.8212 9.374 82.0452 9.682C82.2785 9.98067 82.5165 10.3167 82.7592 10.69C83.0018 11.054 83.2398 11.4367 83.4732 11.838C83.7158 12.2393 83.9212 12.6267 84.0892 13H82.6052C82.4185 12.6453 82.2132 12.286 81.9892 11.922C81.7745 11.558 81.5552 11.2127 81.3312 10.886C81.1072 10.55 80.8832 10.2373 80.6592 9.948C80.4445 9.65867 80.2485 9.40667 80.0712 9.192C79.9498 9.20133 79.8238 9.206 79.6932 9.206C79.5718 9.206 79.4458 9.206 79.3152 9.206H78.0972V13H76.7392V3.438C77.1218 3.34467 77.5465 3.284 78.0132 3.256C78.4892 3.21867 78.9232 3.2 79.3152 3.2C80.6778 3.2 81.7138 3.45667 82.4232 3.97C83.1418 4.48333 83.5012 5.24867 83.5012 6.266C83.5012 6.91 83.3285 7.46067 82.9832 7.918C82.6472 8.37533 82.1478 8.716 81.4852 8.94ZM79.4272 4.39C78.8485 4.39 78.4052 4.404 78.0972 4.432V8.086H79.0632C79.5298 8.086 79.9498 8.06267 80.3232 8.016C80.6965 7.96933 81.0092 7.88067 81.2612 7.75C81.5225 7.61933 81.7232 7.43733 81.8632 7.204C82.0032 6.96133 82.0732 6.644 82.0732 6.252C82.0732 5.888 82.0032 5.58467 81.8632 5.342C81.7232 5.09933 81.5318 4.908 81.2892 4.768C81.0558 4.628 80.7758 4.53 80.4492 4.474C80.1318 4.418 79.7912 4.39 79.4272 4.39Z" fill="#434343"/>
<path d="M127.376 13.21C126.695 13.21 126.074 13.098 125.514 12.874C124.954 12.65 124.473 12.3233 124.072 11.894C123.671 11.4647 123.358 10.9373 123.134 10.312C122.919 9.67733 122.812 8.954 122.812 8.142C122.812 7.33 122.933 6.61133 123.176 5.986C123.428 5.35133 123.764 4.81933 124.184 4.39C124.604 3.96067 125.094 3.634 125.654 3.41C126.214 3.186 126.811 3.074 127.446 3.074C127.847 3.074 128.207 3.102 128.524 3.158C128.851 3.214 129.131 3.27933 129.364 3.354C129.607 3.42867 129.803 3.50333 129.952 3.578C130.101 3.65267 130.204 3.70867 130.26 3.746L129.868 4.866C129.784 4.81 129.663 4.74933 129.504 4.684C129.345 4.61867 129.163 4.55333 128.958 4.488C128.762 4.42267 128.543 4.37133 128.3 4.334C128.067 4.28733 127.829 4.264 127.586 4.264C127.073 4.264 126.611 4.35267 126.2 4.53C125.789 4.70733 125.439 4.964 125.15 5.3C124.861 5.636 124.637 6.04667 124.478 6.532C124.329 7.008 124.254 7.54467 124.254 8.142C124.254 8.72067 124.319 9.248 124.45 9.724C124.59 10.2 124.795 10.6107 125.066 10.956C125.337 11.292 125.673 11.5533 126.074 11.74C126.485 11.9267 126.961 12.02 127.502 12.02C128.127 12.02 128.645 11.9547 129.056 11.824C129.467 11.6933 129.775 11.5767 129.98 11.474L130.33 12.594C130.265 12.6407 130.148 12.7013 129.98 12.776C129.812 12.8413 129.602 12.9067 129.35 12.972C129.098 13.0373 128.804 13.0933 128.468 13.14C128.132 13.1867 127.768 13.21 127.376 13.21ZM137.724 11.824V13H131.886V3.298H133.244V11.824H137.724ZM139.145 3.298H140.503V13H139.145V3.298ZM142.905 13V3.298H148.827V4.46H144.263V7.344H148.323V8.478H144.263V11.838H149.177V13H142.905ZM157.553 13C157.348 12.6547 157.11 12.2673 156.839 11.838C156.578 11.4087 156.293 10.9653 155.985 10.508C155.677 10.0413 155.355 9.57 155.019 9.094C154.693 8.618 154.366 8.16067 154.039 7.722C153.713 7.274 153.395 6.854 153.087 6.462C152.779 6.07 152.495 5.72467 152.233 5.426V13H150.903V3.298H151.981C152.42 3.76467 152.887 4.31067 153.381 4.936C153.885 5.552 154.38 6.19133 154.865 6.854C155.36 7.50733 155.822 8.15133 156.251 8.786C156.69 9.42067 157.059 9.98533 157.357 10.48V3.298H158.687V13H157.553ZM167.571 3.298V4.474H164.519V13H163.161V4.474H160.109V3.298H167.571ZM171.259 12.034C172.677 12.034 173.387 11.5487 173.387 10.578C173.387 10.2793 173.321 10.0273 173.191 9.822C173.069 9.60733 172.901 9.42533 172.687 9.276C172.472 9.11733 172.225 8.982 171.945 8.87C171.674 8.758 171.385 8.646 171.077 8.534C170.722 8.41267 170.386 8.27733 170.069 8.128C169.751 7.96933 169.476 7.78733 169.243 7.582C169.009 7.36733 168.823 7.11533 168.683 6.826C168.552 6.53667 168.487 6.18667 168.487 5.776C168.487 4.92667 168.776 4.264 169.355 3.788C169.933 3.312 170.731 3.074 171.749 3.074C172.337 3.074 172.869 3.13933 173.345 3.27C173.83 3.39133 174.185 3.52667 174.409 3.676L173.975 4.782C173.779 4.66067 173.485 4.544 173.093 4.432C172.71 4.31067 172.262 4.25 171.749 4.25C171.487 4.25 171.245 4.278 171.021 4.334C170.797 4.39 170.601 4.474 170.433 4.586C170.265 4.698 170.129 4.84267 170.027 5.02C169.933 5.188 169.887 5.38867 169.887 5.622C169.887 5.88333 169.938 6.10267 170.041 6.28C170.143 6.45733 170.288 6.616 170.475 6.756C170.661 6.88667 170.876 7.008 171.119 7.12C171.371 7.232 171.646 7.344 171.945 7.456C172.365 7.624 172.747 7.792 173.093 7.96C173.447 8.128 173.751 8.32867 174.003 8.562C174.264 8.79533 174.465 9.07533 174.605 9.402C174.745 9.71933 174.815 10.1067 174.815 10.564C174.815 11.4133 174.502 12.0667 173.877 12.524C173.261 12.9813 172.388 13.21 171.259 13.21C170.876 13.21 170.521 13.182 170.195 13.126C169.877 13.0793 169.593 13.0233 169.341 12.958C169.089 12.8833 168.869 12.8087 168.683 12.734C168.505 12.65 168.365 12.58 168.263 12.524L168.669 11.404C168.883 11.5253 169.21 11.6607 169.649 11.81C170.087 11.9593 170.624 12.034 171.259 12.034Z" fill="#434343"/>
</svg>
