<svg width="353" height="140" viewBox="0 0 353 140" fill="none" xmlns="http://www.w3.org/2000/svg">
<g clip-path="url(#clip0_84_160)">
<path d="M302.306 140V0H316.79L327.72 92.9835L338.606 0H353V140H344.094L344.543 31.904L331.229 140H323.942L310.852 31.904L311.122 140H302.306Z" fill="#FF8522"/>
<path d="M273.939 0C282.575 0 285.229 0.411154 287.343 2.0558C291.976 5.96182 294.226 16.8576 294.855 38.8546C295.035 44.4053 295.125 55.5066 295.125 72.1586C295.125 105.257 294.361 118.62 291.797 128.282C289.997 135.272 287.478 138.561 283.115 139.383C281.496 139.794 277.493 140 274.569 140C267.417 140 263.773 139.383 261.974 137.739C258.645 135.066 256.711 129.31 255.587 119.236C254.417 109.163 254.147 99.0896 254.147 69.0749C254.147 46.0499 254.237 40.2937 254.777 31.0426C255.632 16.4464 257.386 8.63436 260.759 4.11159C263.278 0.82232 266.022 0 273.939 0ZM274.659 33.5095C267.956 33.5095 266.112 34.5374 264.943 38.4435C263.728 42.7606 263.368 49.5448 263.368 69.2805C263.368 89.4273 263.728 96.8282 264.853 101.145C266.067 105.668 267.552 106.49 274.434 106.49C282.306 106.49 283.925 105.257 284.959 98.6784C285.814 93.7445 286.039 86.7548 286.039 68.4582C286.039 33.9207 285.904 33.5095 274.659 33.5095Z" fill="#FF8522"/>
<path d="M207.951 140V0H217.082V51.8441H237.863V0H246.994V140H237.863V86.4768H217.082V140H207.951Z" fill="#FF8522"/>
<path d="M139.625 0H148.891L157.617 106.627L165.354 0H176.375L183.886 106.627L192.883 0H202.149L189.734 140H177.499L170.842 39.2504L163.87 140H151.725L139.625 0Z" fill="#FF8522"/>
<path d="M85.7896 140V0H111.654C115.972 0 117.996 1.25938 119.75 5.03749C122.359 10.7046 123.574 23.5082 123.574 45.3373C123.574 60.4498 122.989 70.5247 121.685 77.0315C120.65 82.069 119.256 84.1679 115.207 86.8965C115.882 87.1064 116.467 87.3163 116.692 87.3163C119.84 88.1559 121.01 89.8351 121.91 94.8726C122.809 99.7002 123.169 105.997 123.169 117.961V140H113.903V122.579C113.903 114.603 113.588 110.195 112.778 107.466C112.059 105.157 111.339 104.738 108.865 104.738H94.8758V140H85.7896ZM94.8758 70.5247H109.135C113.543 70.5247 114.398 68.006 114.398 54.1529C114.398 45.1274 114.218 41.3493 113.633 38.4108C112.958 35.0525 112.194 34.4228 109.45 34.4228H94.8758V70.5247Z" fill="#FF8522"/>
<path d="M57.4225 0C66.0589 0 68.7128 0.411154 70.827 2.0558C75.46 5.96182 77.7091 16.8576 78.3388 38.8546C78.5188 44.4053 78.6087 55.5066 78.6087 72.1586C78.6087 105.257 77.844 118.62 75.2801 128.282C73.4809 135.272 70.9619 138.561 66.5987 139.383C64.9794 139.794 60.976 140 58.0523 140C50.9002 140 47.2567 139.383 45.4575 137.739C42.1289 135.066 40.1947 129.31 39.0701 119.236C37.9006 109.163 37.6307 99.0896 37.6307 69.0749C37.6307 46.0499 37.7207 40.2937 38.2605 31.0426C39.1151 16.4464 40.8694 8.63436 44.243 4.11159C46.7619 0.82232 49.5058 0 57.4225 0ZM58.1422 33.5095C51.44 33.5095 49.5958 34.5374 48.4263 38.4435C47.2118 42.7606 46.8519 49.5448 46.8519 69.2805C46.8519 89.4273 47.2118 96.8282 48.3363 101.145C49.5508 105.668 51.0352 106.49 57.9173 106.49C65.789 106.49 67.4084 105.257 68.4429 98.6784C69.2976 93.7445 69.5225 86.7548 69.5225 68.4582C69.5225 33.9207 69.3875 33.5095 58.1422 33.5095Z" fill="#FF8522"/>
<path d="M0 140V0H31.8468V31.6942H9.08623V59.6102H30.6773V91.3043H9.08623V140H0Z" fill="#FF8522"/>
</g>
<defs>
<clipPath id="clip0_84_160">
<rect width="353" height="140" fill="white"/>
</clipPath>
</defs>
</svg>
