<svg width="16" height="16" viewBox="0 0 16 16" fill="none" xmlns="http://www.w3.org/2000/svg">
<path d="M0.888889 13H15.1111C15.6 13 16 12.625 16 12.1667C16 11.7083 15.6 11.3333 15.1111 11.3333H0.888889C0.4 11.3333 0 11.7083 0 12.1667C0 12.625 0.4 13 0.888889 13ZM0.888889 8.83333H15.1111C15.6 8.83333 16 8.45833 16 8C16 7.54167 15.6 7.16667 15.1111 7.16667H0.888889C0.4 7.16667 0 7.54167 0 8C0 8.45833 0.4 8.83333 0.888889 8.83333ZM0 3.83333C0 4.29167 0.4 4.66667 0.888889 4.66667H15.1111C15.6 4.66667 16 4.29167 16 3.83333C16 3.375 15.6 3 15.1111 3H0.888889C0.4 3 0 3.375 0 3.83333Z" fill="white"/>
</svg>
