<svg width="456" height="158" viewBox="0 0 456 158" fill="none" xmlns="http://www.w3.org/2000/svg">
<path d="M361.609 0H383.988V68.0832C383.988 101.655 383.988 101.655 385.421 108.698C387.295 117.62 392.146 120.437 405.815 120.437C422.572 120.437 427.202 119.498 429.958 115.037C432.163 111.516 433.265 104.707 433.375 92.734C433.486 89.2125 433.486 89.2125 433.486 71.8395V0H455.865V82.1694C455.865 110.577 455.424 119.733 453.66 128.654C450.573 143.914 444.179 153.305 434.478 156.357C431.391 157.53 421.8 158 408.351 158C390.051 158 382.885 157.061 378.145 154.244C370.097 149.548 365.247 140.158 363.262 125.367C362.05 116.446 361.609 106.351 361.609 84.2823V0Z" fill="white"/>
<path d="M242.228 158V0H277.836L322.373 120.099L321.822 0H342.988V158H307.049L263.174 39.0855L263.725 158H242.228Z" fill="white"/>
<path d="M143.399 0H224.867V35.7691H165.447V63.0105H221.449V94.2789H165.447V122.231H225.638V158H143.399V0Z" fill="white"/>
<path d="M0 158V0H35.4975L62.2859 104.939L88.9641 0H124.241V158H102.413L103.516 36.006L70.8847 158H53.0257L20.9457 36.006L21.6072 158H0Z" fill="white"/>
</svg>
