<svg width="470" height="140" viewBox="0 0 470 140" fill="none" xmlns="http://www.w3.org/2000/svg">
<path d="M428.422 140V0H443.115L461.493 106.417L461.266 0H470V140H455.17L437.065 34.6327L437.293 140H428.422Z" fill="#FF8522"/>
<path d="M399.735 0C408.469 0 411.152 0.411154 413.291 2.0558C417.976 5.96182 420.25 16.8576 420.887 38.8546C421.069 44.4053 421.16 55.5066 421.16 72.1586C421.16 105.257 420.387 118.62 417.794 128.282C415.974 135.272 413.427 138.561 409.014 139.383C407.377 139.794 403.328 140 400.371 140C393.139 140 389.454 139.383 387.634 137.739C384.268 135.066 382.312 129.31 381.175 119.236C379.992 109.163 379.719 99.0896 379.719 69.0749C379.719 46.0499 379.81 40.2937 380.356 31.0426C381.22 16.4464 382.994 8.63436 386.406 4.11159C388.953 0.82232 391.728 0 399.735 0ZM400.462 33.5095C393.684 33.5095 391.819 34.5374 390.637 38.4435C389.408 42.7606 389.044 49.5448 389.044 69.2805C389.044 89.4273 389.408 96.8282 390.546 101.145C391.774 105.668 393.275 106.49 400.235 106.49C408.196 106.49 409.833 105.257 410.88 98.6784C411.744 93.7445 411.971 86.7548 411.971 68.4582C411.971 33.9207 411.835 33.5095 400.462 33.5095Z" fill="#FF8522"/>
<path d="M363.208 140V0H372.443V140H363.208Z" fill="#FF8522"/>
<path d="M334.63 140V34.6327H321.119V0H357.375V34.6327H343.864V140H334.63Z" fill="#FF8522"/>
<path d="M277.119 140L294.177 0H306.551L323.154 140H313.056L310.053 115.022H290.493L287.581 140H277.119ZM293.813 85.8471H306.824L300.273 30.015L293.813 85.8471Z" fill="#FF8522"/>
<path d="M233.891 140V0H260.048C264.415 0 266.462 1.25938 268.236 5.03749C270.874 10.7046 272.102 23.5082 272.102 45.3373C272.102 60.4498 271.511 70.5247 270.192 77.0315C269.146 82.069 267.735 84.1679 263.641 86.8965C264.324 87.1064 264.915 87.3163 265.142 87.3163C268.327 88.1559 269.509 89.8351 270.419 94.8726C271.329 99.7002 271.693 105.997 271.693 117.961V140H262.322V122.579C262.322 114.603 262.004 110.195 261.185 107.466C260.457 105.157 259.729 104.738 257.227 104.738H243.08V140H233.891ZM243.08 70.5247H257.5C261.958 70.5247 262.822 68.006 262.822 54.1529C262.822 45.1274 262.64 41.3493 262.049 38.4108C261.367 35.0525 260.593 34.4228 257.819 34.4228H243.08V70.5247Z" fill="#FF8522"/>
<path d="M205.313 140V34.6327H191.802V0H228.057V34.6327H214.547V140H205.313Z" fill="#FF8522"/>
<path d="M149.208 94.9188H158.26C158.351 104.431 158.578 106.706 159.67 108.567C160.353 109.808 162.945 110.635 165.857 110.635C176.547 110.635 177.821 109.188 177.821 97.8139C177.821 92.2304 177.229 88.0945 176.274 86.647C175.273 85.1994 175.273 85.1994 170.497 84.9926H162.127C156.531 84.9926 154.211 83.5451 152.255 78.9956C150.072 73.8257 149.071 62.8656 149.071 44.0473C149.071 19.2319 150.618 8.68538 154.985 3.9291C157.441 1.03397 160.989 0 167.631 0C178.276 0 180.732 1.24078 182.916 7.6514C185.008 14.062 185.69 22.5406 185.69 43.2201H176.683C176.683 31.226 175.774 29.5716 169.814 29.5716C166.858 29.5716 162.9 29.9852 161.444 30.3988C158.988 31.226 158.169 34.1211 158.169 41.9793C158.169 47.7696 158.806 51.4919 160.125 52.9394C160.671 53.5598 160.853 53.7666 163.855 53.9734H172.453C173.272 53.9734 177.366 54.5938 178.912 55.0074C184.69 56.2482 186.964 67.8287 186.964 95.5392C186.964 120.975 185.326 132.142 180.868 136.484C178.594 138.759 174.09 140 167.494 140C156.986 140 154.666 138.966 151.982 132.762C150.117 128.626 149.162 118.08 149.162 101.743C149.162 100.502 149.162 97.8139 149.208 94.9188Z" fill="#FF8522"/>
<path d="M132.56 140V0H141.795V140H132.56Z" fill="#FF8522"/>
<path d="M125.252 47.7696H116.2C116.109 36.6027 115.063 32.4668 112.379 32.4668H110.059L106.784 32.26C102.962 32.26 99.1867 32.6736 98.5044 33.0872C96.4118 34.5347 95.502 38.6706 95.2746 48.1832C95.1381 51.9055 95.0471 64.52 95.0471 73.4121C95.0471 96.1595 95.684 102.984 98.0495 106.292C99.3232 107.947 99.5052 108.154 107.42 108.154C112.242 108.154 112.242 108.154 113.334 107.326C115.154 105.879 116.063 101.95 116.2 95.1256C116.245 93.4712 116.245 92.8508 116.245 89.1285V86.8538H104.555V61.2112H125.252V80.2363C125.252 102.984 125.07 111.049 124.479 118.493C123.433 131.315 121.295 137.518 117.474 139.38C116.518 139.793 113.743 140 104.782 140C97.822 140 95.1381 139.38 93.2275 137.518C89.9068 134.21 87.9507 127.799 86.9045 116.425C85.9947 107.12 85.7672 97.4003 85.7672 71.7578C85.7672 42.1861 86.1311 30.3988 87.3139 20.6795C88.6786 9.92615 90.8166 4.34269 94.7287 1.86115C96.8213 0.620389 100.506 0 106.283 0C114.562 0 117.201 0.620388 119.111 2.68833C123.797 8.065 125.298 18.8183 125.252 47.7696Z" fill="#FF8522"/>
<path d="M45.6232 0H79.2402V31.6942H54.7211V55.8321H77.83V83.5382H54.7211V108.306H79.5586V140H45.6232V0Z" fill="#FF8522"/>
<path d="M0 140V0H26.1567C30.5237 0 32.5708 1.25938 34.3449 5.03749C36.9833 10.7046 38.2115 23.5082 38.2115 45.3373C38.2115 60.4498 37.6201 70.5247 36.3009 77.0315C35.2547 82.069 33.8445 84.1679 29.7504 86.8965C30.4327 87.1064 31.0241 87.3163 31.2515 87.3163C34.4358 88.1559 35.6186 89.8351 36.5284 94.8726C37.4382 99.7002 37.8021 105.997 37.8021 117.961V140H28.4312V122.579C28.4312 114.603 28.1127 110.195 27.2939 107.466C26.5661 105.157 25.8383 104.738 23.3363 104.738H9.18896V140H0ZM9.18896 70.5247H23.6092C28.0673 70.5247 28.9316 68.006 28.9316 54.1529C28.9316 45.1274 28.7496 41.3493 28.1582 38.4108C27.4759 35.0525 26.7026 34.4228 23.9277 34.4228H9.18896V70.5247Z" fill="#FF8522"/>
</svg>
